<svg width="34" height="24" viewBox="0 0 34 24" fill="none" xmlns="http://www.w3.org/2000/svg">
<path d="M14 18C14.5523 18 15 18.4477 15 19C15 19.5128 14.614 19.9355 14.1166 19.9933L14 20H4C3.44772 20 3 19.5523 3 19C3 18.4872 3.38604 18.0645 3.88338 18.0067L4 18H14ZM20 13C20.5523 13 21 13.4477 21 14C21 14.5523 20.5523 15 20 15H4C3.44772 15 3 14.5523 3 14C3 13.4477 3.44772 13 4 13H20ZM14 8C14.5523 8 15 8.44772 15 9C15 9.51283 14.614 9.93551 14.1166 9.99327L14 10H4C3.44772 10 3 9.55228 3 9C3 8.48717 3.38604 8.06449 3.88338 8.00673L4 8H14ZM20 3C20.5523 3 21 3.44772 21 4C21 4.51283 20.614 4.93551 20.1166 4.99327L20 5H4C3.44772 5 3 4.55228 3 4C3 3.48717 3.38604 3.06449 3.88338 3.00673L4 3H20Z" fill="#7E7F81"/>
<path fill-rule="evenodd" clip-rule="evenodd" d="M26.4648 10.2929C26.8553 9.90238 27.4885 9.90238 27.879 10.2929L30.0003 12.4143L32.1216 10.2929C32.5121 9.90238 33.1453 9.90238 33.5358 10.2929C33.9263 10.6835 33.9263 11.3166 33.5358 11.7071L30.7074 14.5356C30.3168 14.9261 29.6837 14.9261 29.2932 14.5356L26.4648 11.7071C26.0742 11.3166 26.0742 10.6835 26.4648 10.2929Z" fill="#7E7F81"/>
</svg>
