<svg width="24" height="24" viewBox="0 0 24 24" fill="none" xmlns="http://www.w3.org/2000/svg">
<path fill-rule="evenodd" clip-rule="evenodd" d="M20.9239 5.61732C20.7691 5.24364 20.4044 5 20 5H10C6.13401 5 3 8.13401 3 12C3 15.866 6.13401 19 10 19H19C19.5523 19 20 18.5523 20 18C20 17.4477 19.5523 17 19 17H10C7.23858 17 5 14.7614 5 12C5 9.23858 7.23858 7 10 7H17.5858L15.7929 8.79289C15.4023 9.18342 15.4023 9.81658 15.7929 10.2071C16.1834 10.5976 16.8166 10.5976 17.2071 10.2071L20.7071 6.70711C20.9931 6.42111 21.0786 5.99099 20.9239 5.61732Z" fill="#7E7F81"/>
</svg>
