<svg width="24" height="24" viewBox="0 0 24 24" fill="none" xmlns="http://www.w3.org/2000/svg">
<path fill-rule="evenodd" clip-rule="evenodd" d="M4 12C4 7.58172 7.58172 4 12 4C17.3671 4 20.4445 8.44465 20.0061 12.3896C19.8854 13.4758 19.5677 14.1126 19.2862 14.485C19.0047 14.8575 18.7149 15.0245 18.5527 15.1056C17.7998 15.4821 17.4199 15.3172 17.2696 15.1982C17.0795 15.0477 16.898 14.6946 16.9864 14.1644L16.9918 14.1321L17.4951 9.09951C17.55 8.54997 17.1491 8.05992 16.5995 8.00496C16.1915 7.96416 15.8163 8.17467 15.6276 8.51073C14.7176 7.58459 13.4482 7 12.0306 7C9.27906 7 7 9.2287 7 12C7 14.7736 9.28848 17 12.0377 17C13.2496 17 14.3885 16.5638 15.2752 15.8239C15.45 16.1834 15.6999 16.5064 16.028 16.7662C16.9451 17.4923 18.2001 17.5179 19.4472 16.8944C19.785 16.7255 20.3572 16.3849 20.8817 15.691C21.4062 14.9971 21.8385 14.0089 21.9939 12.6104C22.5556 7.55535 18.6329 2 12 2C6.47715 2 2 6.47715 2 12C2 17.5228 6.47715 22 12 22C13.5947 22 15.1049 21.626 16.445 20.96C16.9396 20.7142 17.1413 20.114 16.8955 19.6194C16.6497 19.1249 16.0495 18.9232 15.555 19.169C14.4852 19.7006 13.279 20 12 20C7.58172 20 4 16.4183 4 12ZM9 12C9 10.353 10.3638 9 12.0306 9C13.9499 9 15.3943 10.7673 15.0036 12.6192C14.7128 13.9979 13.4651 15 12.0377 15C10.3686 15 9 13.6447 9 12Z" fill="#7E7F81"/>
</svg>
