<svg width="43" height="42" viewBox="0 0 43 42" fill="none" xmlns="http://www.w3.org/2000/svg">
<path d="M15.3738 20.5261C15.2492 20.4015 15.1793 20.2327 15.1793 20.0566C15.1793 19.8805 15.2492 19.7116 15.3738 19.5871L20.0678 14.8961C20.497 14.4558 21.0094 14.1051 21.5753 13.8644C22.1411 13.6236 22.7491 13.4977 23.364 13.4937C23.9789 13.4898 24.5885 13.608 25.1574 13.8415C25.7262 14.075 26.2431 14.4191 26.6779 14.8539C27.1128 15.2887 27.457 15.8055 27.6905 16.3743C27.9241 16.9431 28.0424 17.5527 28.0386 18.1676C28.0347 18.7825 27.9089 19.3905 27.6682 19.9564C27.4276 20.5223 27.077 21.0347 26.6368 21.4641L20.5368 27.5641C19.9118 28.1734 19.0719 28.512 18.1991 28.5064C17.3262 28.5008 16.4907 28.1515 15.8737 27.5342C15.2566 26.9168 14.9076 26.0812 14.9024 25.2083C14.8972 24.3355 15.2361 23.4957 15.8458 22.8711L21.0068 17.7101C21.3817 17.3441 21.8858 17.1406 22.4097 17.1438C22.9336 17.147 23.4352 17.3567 23.8056 17.7272C24.176 18.0978 24.3855 18.5994 24.3885 19.1233C24.3915 19.6473 24.1879 20.1513 23.8218 20.5261L20.0678 24.2791C19.9434 24.4034 19.7747 24.4733 19.5988 24.4733C19.4228 24.4733 19.2541 24.4034 19.1298 24.2791C19.0054 24.1547 18.9355 23.986 18.9355 23.8101C18.9355 23.6342 19.0054 23.4654 19.1298 23.3411L22.8828 19.5871C22.9443 19.5255 22.9932 19.4524 23.0265 19.3719C23.0599 19.2914 23.077 19.2052 23.077 19.1181C23.077 19.031 23.0599 18.9447 23.0265 18.8642C22.9932 18.7838 22.9443 18.7107 22.8828 18.6491C22.8212 18.5875 22.748 18.5386 22.6676 18.5053C22.5871 18.472 22.5009 18.4548 22.4138 18.4548C22.3267 18.4548 22.2404 18.472 22.1599 18.5053C22.0795 18.5386 22.0063 18.5875 21.9448 18.6491L16.7838 23.8101C16.4105 24.1834 16.2008 24.6896 16.2008 25.2176C16.2008 25.479 16.2522 25.7378 16.3523 25.9793C16.4523 26.2208 16.5989 26.4402 16.7838 26.6251C16.9686 26.8099 17.188 26.9565 17.4295 27.0565C17.671 27.1566 17.9299 27.2081 18.1913 27.2081C18.7192 27.2081 19.2255 26.9984 19.5988 26.6251L25.6988 20.5251C26.019 20.2198 26.2749 19.8535 26.4515 19.4478C26.6281 19.0421 26.7218 18.6052 26.727 18.1628C26.7322 17.7204 26.6489 17.2814 26.482 16.8716C26.315 16.4619 26.0678 16.0897 25.7549 15.7769C25.442 15.4641 25.0697 15.217 24.6598 15.0503C24.25 14.8835 23.811 14.8004 23.3686 14.8058C22.9262 14.8112 22.4893 14.9051 22.0837 15.0818C21.6781 15.2586 21.3119 15.5147 21.0068 15.8351L16.3148 20.5261C16.1903 20.6503 16.0216 20.72 15.8458 20.72C15.6699 20.72 15.5012 20.6503 15.3768 20.5261" fill="#262626" fill-opacity="0.45"/>
</svg>
