<svg width="24" height="24" viewBox="0 0 24 24" fill="none" xmlns="http://www.w3.org/2000/svg">
<path d="M13 3C15.7614 3 18 5.23858 18 8C18 9.43071 17.3991 10.7211 16.4359 11.6325C17.9657 12.4875 19 14.123 19 16C19 18.6887 16.8777 20.8818 14.2169 20.9954L14 21H6.1C5.533 21 5.06618 20.571 5.00645 20.0199L5 19.9V4.1C5 3.53299 5.42901 3.06618 5.98014 3.00645L6.1 3H13ZM14 13H7V19H14C15.6569 19 17 17.6569 17 16C17 14.3431 15.6569 13 14 13ZM13 5H7V11H13C14.6569 11 16 9.65685 16 8C16 6.34315 14.6569 5 13 5Z" fill="#7E7F81"/>
</svg>
