<svg width="320" height="320" viewBox="0 0 320 320" fill="none" xmlns="http://www.w3.org/2000/svg">
<path d="M320 244.735H0V244.895H320V244.735Z" fill="#EBEBEB"/>
<path d="M205.776 253.659H184.578V253.819H205.776V253.659Z" fill="#EBEBEB"/>
<path d="M266.099 251.923H260.535V252.083H266.099V251.923Z" fill="#EBEBEB"/>
<path d="M253.815 249.093H209.707V249.253H253.815V249.093Z" fill="#EBEBEB"/>
<path d="M144.094 252.87H124.699V253.03H144.094V252.87Z" fill="#EBEBEB"/>
<path d="M119.001 252.87H106.699V253.03H119.001V252.87Z" fill="#EBEBEB"/>
<path d="M63.5505 250.168H33.5742V250.328H63.5505V250.168Z" fill="#EBEBEB"/>
<path d="M151.69 216.191H28.1062C26.0922 216.191 24.4531 214.552 24.4531 212.538V38.8223C24.4531 36.8082 26.0922 35.1692 28.1062 35.1692H151.69C153.703 35.1692 155.342 36.8082 155.342 38.8223V212.539C155.342 214.553 153.703 216.191 151.69 216.191ZM28.1062 35.3292C26.1798 35.3292 24.6131 36.8959 24.6131 38.8223V212.539C24.6131 214.465 26.1798 216.032 28.1062 216.032H151.69C153.615 216.032 155.182 214.465 155.182 212.539V38.8223C155.182 36.8965 153.615 35.3292 151.69 35.3292H28.1062Z" fill="#EBEBEB"/>
<path d="M290.118 216.191H166.535C164.521 216.191 162.883 214.552 162.883 212.538V38.8223C162.883 36.8082 164.522 35.1692 166.535 35.1692H290.118C292.133 35.1692 293.771 36.8082 293.771 38.8223V212.539C293.772 214.553 292.133 216.191 290.118 216.191ZM166.535 35.3292C164.61 35.3292 163.043 36.8959 163.043 38.8223V212.539C163.043 214.465 164.61 216.032 166.535 216.032H290.118C292.044 216.032 293.611 214.465 293.611 212.539V38.8223C293.611 36.8965 292.044 35.3292 290.118 35.3292H166.535Z" fill="#EBEBEB"/>
<path d="M36.6974 150.236H145.686V49.896L36.6974 49.896L36.6974 150.236Z" fill="#E6E6E6"/>
<path d="M34.1093 150.236H144.561V49.896L34.1093 49.896L34.1093 150.236Z" fill="#F5F5F5"/>
<path d="M139.916 145.217L139.916 54.9153L38.7538 54.9153L38.7538 145.217H139.916Z" fill="#FAFAFA"/>
<path d="M127.417 145.217L93.3967 54.9158H79.0723L113.093 145.217H127.417Z" fill="white"/>
<path d="M109.032 145.217L75.0115 54.9158H65.1484L99.1689 145.217H109.032Z" fill="white"/>
<path d="M78.5391 145.217L78.5391 54.9158H72.9979L72.9979 145.217H78.5391Z" fill="#E6E6E6"/>
<path d="M109.383 145.217L109.383 54.9155H103.842L103.842 145.217H109.383Z" fill="#E6E6E6"/>
<path d="M77.541 148.402L77.541 51.1838H70.5369L70.5369 148.402H77.541Z" fill="#F5F5F5"/>
<path d="M108.385 148.401L108.385 51.1836H101.381L101.381 148.401H108.385Z" fill="#F5F5F5"/>
<path d="M39.248 145.217L39.248 54.9155H38.7552L38.7552 145.217H39.248Z" fill="#E6E6E6"/>
<path d="M256.443 244.734V174.83L47.9993 174.83V244.734L256.443 244.734Z" fill="#F0F0F0"/>
<path d="M247.963 203.087V180.54C247.963 179.577 247.183 178.797 246.22 178.797H58.2258C57.2626 178.797 56.4824 179.577 56.4824 180.54V203.087C56.4824 204.05 57.2632 204.83 58.2258 204.83H246.22C247.183 204.83 247.963 204.05 247.963 203.087Z" fill="#F5F5F5"/>
<path d="M247.963 238.668V209.504C247.963 208.541 247.183 207.76 246.22 207.76H58.2258C57.2626 207.76 56.4824 208.541 56.4824 209.504V238.668C56.4824 239.631 57.2632 240.411 58.2258 240.411H246.22C247.183 240.411 247.963 239.631 247.963 238.668Z" fill="#F5F5F5"/>
<path d="M209.631 178.364H94.8125C94.8125 180.234 96.328 181.75 98.1981 181.75H206.245C208.115 181.75 209.631 180.234 209.631 178.364Z" fill="#F0F0F0"/>
<path d="M209.631 207.329H94.8125C94.8125 209.198 96.328 210.714 98.1981 210.714H206.245C208.115 210.714 209.631 209.198 209.631 207.329Z" fill="#F0F0F0"/>
<path d="M272 244.734V174.83H256.444V244.734H272Z" fill="#E6E6E6"/>
<path d="M48 170.521V174.831H256.444V170.521H48Z" fill="#FAFAFA"/>
<path d="M238.117 164.281C238.117 167.728 240.911 170.521 244.357 170.521C247.804 170.521 250.597 167.728 250.597 164.281H238.117Z" fill="#F5F5F5"/>
<path d="M221.482 164.281C221.482 167.728 224.276 170.521 227.722 170.521C231.169 170.521 233.962 167.728 233.962 164.281H221.482Z" fill="#F5F5F5"/>
<path d="M50.2422 168.413C50.2422 169.577 55.4313 170.521 61.8326 170.521C68.2339 170.521 73.4223 169.577 73.4223 168.413H50.2422Z" fill="#F5F5F5"/>
<path d="M50.2422 167.311C50.2422 168.475 55.4313 169.419 61.8326 169.419C68.2339 169.419 73.4223 168.475 73.4223 167.311H50.2422Z" fill="#F5F5F5"/>
<path d="M256.445 170.521V174.831H272.001V170.521H256.445Z" fill="#E0E0E0"/>
<path d="M265.217 48.6143H227.174V98.1803H265.217V48.6143Z" fill="#EBEBEB"/>
<path d="M263.447 48.6143H225.404V98.1803H263.447V48.6143Z" fill="#F5F5F5"/>
<path d="M258.336 55.2742H230.516V91.5212H258.336V55.2742Z" fill="white"/>
<path d="M178.512 112.928V150.971H238.617V112.928H178.512Z" fill="#EBEBEB"/>
<path d="M176.682 112.928V150.971H236.787V112.928H176.682Z" fill="#F5F5F5"/>
<path d="M183.342 118.039V145.859H230.128V118.039H183.342Z" fill="white"/>
<path d="M286.189 108.379H255.256V138.859H286.189V108.379Z" fill="#EBEBEB"/>
<path d="M284.419 108.379H253.486V138.859H284.419V108.379Z" fill="#F5F5F5"/>
<path d="M279.308 115.039H258.598V132.2H279.308V115.039Z" fill="white"/>
<path d="M217.343 71.9294H186.41V102.409H217.343V71.9294Z" fill="#EBEBEB"/>
<path d="M215.574 71.9294H184.641V102.409H215.574V71.9294Z" fill="#F5F5F5"/>
<path d="M210.462 78.5894H189.752V95.7497H210.462V78.5894Z" fill="white"/>
<path d="M159.999 273.639C228.532 273.639 284.088 270.395 284.088 266.392C284.088 262.39 228.532 259.146 159.999 259.146C91.4667 259.146 35.9102 262.39 35.9102 266.392C35.9102 270.395 91.4667 273.639 159.999 273.639Z" fill="#F5F5F5"/>
<path d="M202.743 81.9719H202.078V86.1851H202.743V81.9719Z" fill="#4AB100"/>
<path d="M202.742 78.5478H202.077C202.077 73.447 197.928 69.2973 192.826 69.2973V68.6323C198.294 68.6323 202.742 73.0803 202.742 78.5478Z" fill="#4AB100"/>
<path d="M192.827 70.96H104.492C100.319 70.96 96.9043 74.3744 96.9043 78.5478V258.714C96.9043 262.888 100.319 266.302 104.492 266.302H192.827C197.001 266.302 200.415 262.888 200.415 258.714V78.5478C200.415 74.375 197.001 70.96 192.827 70.96Z" fill="#4AB100"/>
<path opacity="0.95" d="M103.977 263.38C101.405 263.38 99.3125 261.287 99.3125 258.715V78.5478C99.3125 75.9756 101.405 73.8828 103.977 73.8828H192.312C194.884 73.8828 196.977 75.9756 196.977 78.5478V258.715C196.977 261.287 194.884 263.38 192.312 263.38H103.977Z" fill="white"/>
<path d="M148.145 256.143C151.059 256.143 153.422 253.78 153.422 250.865C153.422 247.951 151.059 245.588 148.145 245.588C145.23 245.588 142.867 247.951 142.867 250.865C142.867 253.78 145.23 256.143 148.145 256.143Z" fill="#4AB100"/>
<path d="M144.109 73.3491C144.109 75.7562 146.061 77.7082 148.468 77.7082C150.875 77.7082 152.827 75.7568 152.827 73.3491H144.109Z" fill="#4AB100"/>
<path opacity="0.7" d="M176.965 92.2656H119.973C115.151 92.2656 111.205 96.2112 111.205 101.034V106.879C111.205 111.701 115.151 115.647 119.973 115.647H176.965L185.733 120.842V101.033C185.732 96.2112 181.787 92.2656 176.965 92.2656Z" fill="#4AB100"/>
<path d="M175.377 100.637H121.561V102.098H175.377V100.637Z" fill="white"/>
<path d="M175.377 105.814H131.916V107.276H175.377V105.814Z" fill="white"/>
<path opacity="0.15" d="M119.973 131.198H176.965C181.787 131.198 185.733 135.144 185.733 139.966V145.811C185.733 150.634 181.787 154.579 176.965 154.579H119.973L111.205 159.775V139.966C111.205 135.144 115.151 131.198 119.973 131.198Z" fill="#4AB100"/>
<path opacity="0.5" d="M175.377 139.57H121.561V141.031H175.377V139.57Z" fill="#4AB100"/>
<path opacity="0.5" d="M146.521 144.748H121.561V146.209H146.521V144.748Z" fill="#4AB100"/>
<path opacity="0.5" d="M160.566 144.748H150.418V146.209H160.566V144.748Z" fill="#4AB100"/>
<path opacity="0.7" d="M176.965 170.131H119.973C115.151 170.131 111.205 174.077 111.205 178.899V184.744C111.205 189.567 115.151 193.512 119.973 193.512H176.965L185.733 198.708V178.899C185.732 174.077 181.787 170.131 176.965 170.131Z" fill="#4AB100"/>
<path d="M175.377 178.502H121.561V179.964H175.377V178.502Z" fill="white"/>
<path d="M175.377 183.681H131.916V185.142H175.377V183.681Z" fill="white"/>
<path opacity="0.15" d="M119.973 209.064H142.137C146.959 209.064 150.905 213.01 150.905 217.832V223.677C150.905 228.5 146.959 232.445 142.137 232.445H119.973L111.205 237.641V217.832C111.205 213.01 115.151 209.064 119.973 209.064Z" fill="#4AB100"/>
<path opacity="0.5" d="M124.416 220.755C124.416 222.185 123.257 223.344 121.827 223.344C120.397 223.344 119.238 222.185 119.238 220.755C119.238 219.325 120.397 218.166 121.827 218.166C123.257 218.166 124.416 219.325 124.416 220.755Z" fill="#4AB100"/>
<path opacity="0.5" d="M129.595 221.273C131.024 221.273 132.183 220.114 132.183 218.684C132.183 217.254 131.024 216.095 129.595 216.095C128.165 216.095 127.006 217.254 127.006 218.684C127.006 220.114 128.165 221.273 129.595 221.273Z" fill="#4AB100"/>
<path opacity="0.5" d="M139.949 223.862C139.949 225.291 138.79 226.451 137.36 226.451C135.931 226.451 134.771 225.291 134.771 223.862C134.771 222.432 135.931 221.273 137.36 221.273C138.79 221.273 139.949 222.432 139.949 223.862Z" fill="#4AB100"/>
<path d="M220.37 214.527C221.074 215.927 221.704 217.338 222.359 218.748C223.007 220.16 223.624 221.586 224.231 223.02C224.833 224.457 225.434 225.895 225.997 227.359C226.57 228.822 227.131 230.289 227.649 231.821L225.354 229.663C226.467 230.089 227.938 230.327 229.5 230.382C231.064 230.43 232.729 230.348 234.407 230.155C236.092 229.978 237.798 229.698 239.511 229.377C241.213 229.055 242.97 228.662 244.623 228.272L246.139 231.954C244.43 232.903 242.753 233.662 240.986 234.371C239.229 235.073 237.422 235.676 235.551 236.176C233.675 236.654 231.741 237.052 229.686 237.199C227.639 237.361 225.451 237.308 223.101 236.661L221.601 236.247L220.805 234.503C219.578 231.812 218.25 229.041 216.942 226.284C216.289 224.901 215.631 223.518 214.993 222.124C214.363 220.73 213.699 219.338 213.094 217.944L220.37 214.527Z" fill="#FFC3BD"/>
<path d="M242.568 229.414L245.084 226.956L249.075 231.279C249.075 231.279 247.627 233.802 244.035 232.333L242.568 229.414Z" fill="#FFC3BD"/>
<path d="M248.868 225.33L251.069 228.924L249.074 231.28L245.082 226.956L248.868 225.33Z" fill="#FFC3BD"/>
<path d="M209.068 208.772C214.209 206.798 218.158 209.747 224.626 217.916L217.051 225.703C217.051 225.703 199.086 212.604 209.068 208.772Z" fill="#263238"/>
<path opacity="0.2" d="M218.683 217.222C216.262 215.652 214.153 216.098 212.377 217.555C213.049 220.043 214.772 222.896 216.428 225.231C216.82 225.537 217.053 225.703 217.053 225.703L221.277 221.359C220.957 219.451 220.02 218.081 218.683 217.222Z" fill="black"/>
<path d="M248.064 263.067L254.192 262.356L253.684 249.782L247.557 250.493L248.064 263.067Z" fill="#FFC3BD"/>
<path d="M254.247 259.711L247.344 259.807C247.12 259.81 246.935 259.986 246.9 260.23L246.119 265.663C246.039 266.226 246.465 266.752 246.982 266.735C249.129 266.662 250.114 266.5 252.821 266.46C254.487 266.436 259.521 266.555 261.822 266.522C264.072 266.489 264.282 263.955 263.327 263.74C259.047 262.774 256.585 261.403 255.157 260.072C254.901 259.832 254.575 259.705 254.247 259.711Z" fill="#263238"/>
<path d="M255.711 258.109C255.889 258.038 256.088 258.061 256.303 258.181C256.486 258.282 256.539 258.429 256.551 258.534C256.629 259.201 255.243 260.323 255.084 260.449C255.048 260.478 254.997 260.481 254.955 260.456C254.913 260.431 254.888 260.383 254.891 260.333C254.937 259.643 255.096 258.441 255.644 258.14C255.666 258.128 255.688 258.118 255.711 258.109ZM255.152 260.068C255.693 259.601 256.357 258.9 256.316 258.55C256.31 258.506 256.293 258.449 256.202 258.398C256.033 258.304 255.888 258.293 255.763 258.361C255.468 258.523 255.245 259.153 255.152 260.068Z" fill="#4AB100"/>
<path d="M255.646 259.848C256.173 259.637 256.812 259.515 257.132 259.717C257.229 259.778 257.383 259.925 257.33 260.229C257.296 260.421 257.194 260.567 257.03 260.661C256.411 261.012 255.033 260.488 254.974 260.465C254.933 260.45 254.903 260.414 254.894 260.37C254.884 260.327 254.898 260.282 254.928 260.254C255.074 260.12 255.341 259.969 255.646 259.848ZM256.839 260.474C256.863 260.464 256.886 260.453 256.906 260.441C257.012 260.381 257.074 260.292 257.096 260.17C257.123 260.015 257.069 259.959 257.018 259.927C256.711 259.733 255.769 259.987 255.265 260.311C255.705 260.453 256.446 260.63 256.839 260.474Z" fill="#4AB100"/>
<path opacity="0.2" d="M247.555 250.497L253.685 249.786L253.943 256.267L247.786 256.296L247.555 250.497Z" fill="black"/>
<path d="M217.498 243.197C217.498 243.197 233.406 228.397 243.715 228.175C251.258 228.013 256.648 252.945 256.648 252.945L247.71 253.119C247.71 253.119 246.138 244.303 240.278 241.867C231.821 254.566 197.333 279.658 200.618 252.458C205.713 250.533 217.498 243.197 217.498 243.197Z" fill="#4AB100"/>
<path opacity="0.2" d="M217.498 243.197C217.498 243.197 233.406 228.397 243.715 228.175C251.258 228.013 256.648 252.945 256.648 252.945L247.71 253.119C247.71 253.119 246.138 244.303 240.278 241.867C231.821 254.566 197.333 279.658 200.618 252.458C205.713 250.533 217.498 243.197 217.498 243.197Z" fill="black"/>
<path d="M256.631 254.191L246.1 255.2L246.132 251.36L257.277 250.036L256.631 254.191Z" fill="#263238"/>
<path d="M196.609 253.399C196.609 253.399 189.767 240.04 188.942 218.515C188.747 213.445 193.312 208.667 198.526 208.395C202.92 208.166 207.563 208.108 211.307 208.123C215.066 208.138 217.951 210.633 218.381 214.25C219.329 222.242 219.492 234.365 224.394 248.819L196.609 253.399Z" fill="#263238"/>
<path opacity="0.2" d="M192.137 218.627C195.901 214.366 197.2 215.724 197.765 216.236C202.989 220.97 195.32 235.692 193.785 237.863C192.835 233.089 192.083 227.487 191.839 221.183C191.809 220.313 191.911 219.457 192.137 218.627Z" fill="black"/>
<path d="M203.62 195.605C203.198 199.526 202.16 205.55 199.49 208.348C201.591 210.321 205.007 212.268 209.865 213.08C212.377 212.042 212.71 209.733 211.495 208.127C207.205 207.378 207.253 206.161 208.876 203.429L203.62 195.605Z" fill="#FFC3BD"/>
<path opacity="0.2" d="M205.763 198.797L208.875 203.425C208.489 204.071 208.084 204.828 207.923 205.478C206.4 204.863 204.708 202.507 205.053 200.796C205.226 199.944 205.508 199.152 205.763 198.797Z" fill="black"/>
<path d="M214.859 188.371C217.372 191.041 222.661 191.054 220.391 187.89C218.121 184.726 212.901 186.292 214.859 188.371Z" fill="#263238"/>
<path d="M204.665 188.086C203.262 193.176 202.188 196.072 203.78 199.609C206.175 204.929 212.981 205.062 215.846 200.565C218.424 196.519 220.285 188.873 216.183 184.985C212.142 181.154 206.068 182.995 204.665 188.086Z" fill="#FFC3BD"/>
<path d="M203.53 192.83C204.158 192.72 207.332 191.758 208.875 190.275C210.613 188.606 210.625 186.992 210.144 186.253C209.663 185.514 206.012 184.102 204.305 184.43C201.607 184.947 202.273 189.727 202.31 191.02C202.347 192.313 203.53 192.83 203.53 192.83Z" fill="#FFC3BD"/>
<path opacity="0.7" d="M203.53 192.83C204.158 192.72 207.332 191.758 208.875 190.275C210.613 188.606 210.625 186.992 210.144 186.253C209.663 185.514 206.012 184.102 204.305 184.43C201.607 184.947 202.273 189.727 202.31 191.02C202.347 192.313 203.53 192.83 203.53 192.83Z" fill="#263238"/>
<path d="M200.836 193.185C201.36 194.372 202.365 195.229 203.341 195.626C204.81 196.225 205.649 194.961 205.329 193.486C205.041 192.158 203.93 190.246 202.413 190.275C200.919 190.304 200.236 191.829 200.836 193.185Z" fill="#FFC3BD"/>
<path d="M205.652 185.952C212.177 187.349 216.816 191.023 219.905 188.813C222.089 187.251 220.655 184.403 218.151 182.342C216.015 180.584 213.058 180.038 212.136 178.595C211.697 180.176 213.146 181.157 213.146 181.157C213.146 181.157 207.248 180.25 205.617 178.713C205.226 179.629 206.741 181.395 206.741 181.395C206.741 181.395 205.073 182.975 200.305 181.19C200.62 182.721 201.942 185.157 205.652 185.952Z" fill="#263238"/>
<path d="M218.617 189.331C218.532 189.331 218.446 189.329 218.359 189.322L218.381 188.991C219.644 189.071 220.663 188.484 221.101 187.412C221.545 186.324 221.353 184.675 219.92 183.443C219.408 183.002 218.766 182.681 218.088 182.34C216.568 181.578 214.846 180.714 214.016 178.199L214.331 178.095C215.118 180.478 216.704 181.273 218.237 182.042C218.935 182.392 219.594 182.723 220.137 183.19C221.695 184.531 221.899 186.339 221.409 187.538C220.944 188.674 219.912 189.331 218.617 189.331Z" fill="#263238"/>
<path d="M212.061 193.057C211.922 193.462 212.021 193.875 212.281 193.978C212.54 194.082 212.864 193.838 213.002 193.434C213.141 193.029 213.042 192.617 212.782 192.513C212.523 192.409 212.2 192.653 212.061 193.057Z" fill="#263238"/>
<path d="M216.891 194.512C216.752 194.917 216.851 195.329 217.111 195.433C217.37 195.537 217.694 195.293 217.832 194.888C217.971 194.484 217.872 194.071 217.612 193.967C217.353 193.864 217.029 194.108 216.891 194.512Z" fill="#263238"/>
<path d="M215.117 194.025C215.117 194.025 215.221 196.721 215.83 198.246C214.898 198.633 213.807 197.85 213.807 197.85L215.117 194.025Z" fill="#ED847E"/>
<path d="M211.192 198.821C209.75 198.008 209.415 196.659 209.4 196.597C209.384 196.527 209.425 196.46 209.49 196.445C209.556 196.431 209.624 196.476 209.64 196.545C209.644 196.561 210.039 198.129 211.778 198.824C211.842 198.851 211.877 198.924 211.855 198.99C211.832 199.056 211.762 199.088 211.697 199.062C211.515 198.989 211.347 198.908 211.192 198.821Z" fill="#263238"/>
<path d="M210.748 190.409C210.712 190.389 210.679 190.358 210.655 190.319C210.579 190.199 210.61 190.042 210.723 189.968C211.862 189.231 212.916 189.726 212.96 189.747C213.086 189.807 213.144 189.96 213.089 190.087C213.035 190.214 212.891 190.268 212.765 190.209C212.731 190.193 211.905 189.816 210.996 190.404C210.92 190.454 210.825 190.453 210.748 190.409Z" fill="#263238"/>
<path d="M218.532 193.318C218.456 193.292 218.391 193.228 218.365 193.142C218.039 192.054 217.187 191.753 217.151 191.741C217.021 191.696 216.945 191.552 216.982 191.419C217.02 191.285 217.155 191.212 217.286 191.256C217.334 191.272 218.428 191.646 218.838 193.009C218.879 193.146 218.806 193.286 218.676 193.323C218.627 193.336 218.578 193.333 218.532 193.318Z" fill="#263238"/>
<path d="M269.334 266.053L272.98 260.746L263.153 252.189L259.506 257.497L269.334 266.053Z" fill="#FFC3BD"/>
<path d="M270.46 258.239L266.175 263.573C266.031 263.751 266.036 264.011 266.186 264.197L269.516 268.346C269.861 268.776 270.511 268.782 270.835 268.362C272.183 266.622 273.085 265.285 274.821 263.123C275.889 261.793 279.253 257.9 280.728 256.063C282.171 254.268 280.517 252.454 279.743 253.067C276.272 255.815 273.18 257.496 271.309 257.756C270.971 257.802 270.67 257.977 270.46 258.239Z" fill="#263238"/>
<path d="M270.175 256.051C270.225 255.864 270.363 255.72 270.587 255.619C270.777 255.533 270.927 255.578 271.019 255.631C271.6 255.967 271.671 257.75 271.677 257.952C271.678 257.998 271.65 258.041 271.605 258.06C271.559 258.078 271.506 258.07 271.468 258.038C270.942 257.589 270.074 256.742 270.16 256.124C270.164 256.098 270.169 256.074 270.175 256.051ZM271.412 257.669C271.362 256.956 271.196 256.006 270.891 255.829C270.852 255.807 270.796 255.787 270.7 255.83C270.524 255.909 270.429 256.019 270.409 256.159C270.363 256.493 270.734 257.048 271.412 257.669Z" fill="#4AB100"/>
<path d="M271.53 257.141C271.677 256.593 271.96 256.007 272.314 255.871C272.421 255.83 272.631 255.795 272.842 256.019C272.977 256.161 273.032 256.328 273.009 256.517C272.921 257.223 271.677 258.016 271.624 258.049C271.587 258.072 271.54 258.075 271.5 258.057C271.459 258.039 271.432 258.001 271.427 257.96C271.407 257.763 271.446 257.458 271.53 257.141ZM272.746 256.558C272.752 256.533 272.757 256.509 272.76 256.485C272.774 256.364 272.741 256.261 272.655 256.17C272.548 256.056 272.47 256.066 272.415 256.087C272.075 256.218 271.717 257.125 271.676 257.723C272.052 257.456 272.636 256.968 272.746 256.558Z" fill="#4AB100"/>
<path opacity="0.2" d="M259.508 257.5L263.156 252.191L268.22 256.604L264.039 261.449L259.508 257.5Z" fill="black"/>
<path d="M206.598 251.453C206.598 251.453 234.568 223.032 247.152 235.194C254.993 242.771 266.515 253.211 266.515 253.211L259.813 259.704C259.813 259.704 242.906 250.714 238.505 245.747C215.396 271.576 194.75 273.345 196.609 253.4C201.993 251.975 206.598 251.453 206.598 251.453Z" fill="#4AB100"/>
<path d="M268.502 253.27L261.171 262.486L258.059 260.394L265.551 250.609L268.502 253.27Z" fill="#263238"/>
<path d="M196.7 216.709L197.252 228.36C197.356 230.293 197.475 232.22 197.625 234.106C197.7 235.048 197.801 235.976 197.909 236.867C197.961 237.311 198.022 237.749 198.09 238.144C198.153 238.549 198.238 238.913 198.292 239.135C198.302 239.169 198.31 239.205 198.314 239.242C198.296 239.189 198.263 239.167 198.226 239.101C198.145 239.002 198.025 238.853 197.881 238.766C197.746 238.667 197.614 238.615 197.533 238.597C197.465 238.575 197.424 238.591 197.459 238.604C197.577 238.689 198.304 238.672 199.026 238.503C200.525 238.167 202.268 237.514 203.949 236.754C205.654 236.005 207.36 235.141 209.063 234.247C210.768 233.368 212.479 232.398 214.139 231.467L216.532 234.649C213.507 237.42 210.361 239.909 206.799 242.119C205.905 242.665 204.983 243.188 204.009 243.681C203.037 244.177 202.011 244.634 200.855 245.011C200.275 245.199 199.661 245.368 198.971 245.489C198.281 245.607 197.511 245.687 196.58 245.599C196.124 245.561 195.602 245.454 195.069 245.272C194.526 245.08 193.957 244.791 193.431 244.39C192.914 243.985 192.44 243.48 192.11 242.954C191.928 242.687 191.807 242.432 191.671 242.163L191.429 241.579C191.165 240.867 191 240.275 190.862 239.714C190.718 239.146 190.605 238.611 190.5 238.083C190.292 237.025 190.134 235.996 189.989 234.979C189.696 232.943 189.483 230.936 189.304 228.933C188.946 224.923 188.738 220.965 188.666 216.939L196.7 216.709Z" fill="#FFC3BD"/>
<path d="M194.735 209.2C191.721 209.544 187.21 212.383 187.049 225.703L199.981 224.683C199.981 224.683 206.057 207.907 194.735 209.2Z" fill="#263238"/>
<path d="M224.991 224.737L220.193 225.052C219.657 225.087 219.121 225.571 219.002 226.127L216.756 236.671C216.637 237.228 216.979 237.654 217.516 237.619L222.314 237.304C222.851 237.268 223.387 236.785 223.505 236.228L225.752 225.684C225.87 225.128 225.528 224.701 224.991 224.737Z" fill="#4AB100"/>
<path d="M214.51 231.224L218.486 229.845L217.504 236.072C217.504 236.072 213.076 237.046 212.711 234.665L213.353 232.542C213.542 231.92 213.995 231.403 214.51 231.224Z" fill="#FFC3BD"/>
<path d="M223.027 230.367L221.305 235.908L217.504 236.072L218.486 229.844L223.027 230.367Z" fill="#FFC3BD"/>
<path d="M85.3603 99.8107C82.2416 92.5588 99.2727 84.9678 104.082 96.2568C112.255 99.8107 101.808 114.915 104.174 117.475C106.539 120.034 108.313 116.93 108.313 116.93C108.313 116.93 110.699 123.287 104.617 128.385C99.1587 132.961 82.7594 134.202 82.721 125.189C82.6711 113.493 89.4608 109.345 85.3603 99.8107Z" fill="#263238"/>
<path d="M101.024 252.072L96.4424 254.739L85.4414 242.16L91.1502 237.013L101.024 252.072Z" fill="#FF8B7B"/>
<path d="M95.9204 253.585L100.645 249.958C100.818 249.826 101.041 249.83 101.183 249.969L104.35 253.053C104.678 253.373 104.603 253.972 104.201 254.271C102.534 255.508 101.672 256.028 99.594 257.622C98.3159 258.604 95.7648 260.757 93.9997 262.112C92.273 263.437 90.913 261.906 91.537 261.194C94.3344 258.001 94.9444 256.09 95.3994 254.365C95.4813 254.055 95.6688 253.777 95.9204 253.585Z" fill="#263238"/>
<path d="M94.8565 255.484C94.4386 255.805 94.0072 256.041 93.6546 256.024C93.4306 256.014 93.2552 255.908 93.1336 255.709C93.0607 255.59 93.0549 255.459 93.1164 255.331C93.4332 254.671 95.7116 254.186 95.9701 254.133C96.0213 254.122 96.0712 254.144 96.0949 254.188C96.1186 254.232 96.1103 254.288 96.0744 254.327C95.7672 254.668 95.3199 255.129 94.8565 255.484ZM93.4952 255.245C93.4184 255.304 93.3628 255.363 93.3346 255.422C93.3096 255.474 93.3122 255.521 93.3442 255.573C93.4268 255.708 93.5375 255.777 93.6834 255.784C94.1 255.803 94.8207 255.309 95.6431 254.449C94.8719 254.632 93.8939 254.94 93.4952 255.245Z" fill="#4AB100"/>
<path d="M96.057 254.345C96.0429 254.355 96.0269 254.363 96.0096 254.368C95.3491 254.54 93.7197 254.453 93.4624 253.947C93.4016 253.827 93.3824 253.635 93.639 253.397C93.8317 253.221 94.055 253.132 94.3117 253.134C95.1501 253.141 96.0429 254.126 96.08 254.167C96.1075 254.198 96.1158 254.242 96.1011 254.283C96.0928 254.307 96.0768 254.329 96.057 254.345ZM93.8566 253.518C93.8368 253.533 93.8176 253.549 93.799 253.567C93.6301 253.724 93.6691 253.801 93.6819 253.826C93.8362 254.13 95.0112 254.281 95.7395 254.178C95.4592 253.907 94.8416 253.379 94.2918 253.375C94.1261 253.374 93.9827 253.421 93.8566 253.518Z" fill="#4AB100"/>
<path d="M84.3678 126.132C84.0644 127.507 83.7201 128.751 83.3393 130.037C82.963 131.312 82.5617 132.578 82.1009 133.827C81.1972 136.328 80.2033 138.809 78.9892 141.214L78.049 143.008C77.7092 143.598 77.379 144.188 77.0231 144.769L76.4727 145.635C76.2795 145.929 76.1342 146.191 75.8718 146.534C75.7444 146.703 75.6171 146.87 75.4462 147.065C75.2683 147.263 75.1031 147.457 74.7159 147.754C74.4657 147.914 74.2839 148.096 73.6209 148.271C73.5006 148.303 73.258 148.335 73.0564 148.334C72.8631 148.339 72.6123 148.307 72.3729 148.238C71.9095 148.114 71.4891 147.807 71.2759 147.572C70.8228 147.073 70.7294 146.705 70.6551 146.486C70.5809 146.234 70.5579 146.064 70.5361 145.9C70.4772 145.292 70.5156 144.909 70.5559 144.512C70.6014 144.127 70.6609 143.771 70.7262 143.423C70.8535 142.73 71.0238 142.074 71.1979 141.424C71.5582 140.127 71.9799 138.884 72.4811 137.636L75.0065 138.199L74.8382 142.009C74.8081 142.633 74.7959 143.253 74.7895 143.843C74.7889 144.136 74.7959 144.422 74.8151 144.682C74.8324 144.929 74.8638 145.194 74.8971 145.225C74.9015 145.219 74.9092 145.208 74.8855 145.11C74.8561 145.045 74.8356 144.826 74.4907 144.446C74.3313 144.27 73.9812 144.01 73.5953 143.905C73.395 143.846 73.1831 143.827 73.0302 143.824C72.8683 143.819 72.6673 143.855 72.5847 143.872C72.0817 144.012 72.0324 144.095 71.914 144.163C71.7809 144.26 71.8283 144.209 71.8539 144.158L71.9998 143.909L72.8587 142.37C73.1479 141.835 73.411 141.28 73.6932 140.74L74.4785 139.072C75.4743 136.815 76.3806 134.493 77.1659 132.122C77.5601 130.937 77.9294 129.742 78.2935 128.546C78.6475 127.359 78.9834 126.116 79.274 124.981L84.3678 126.132Z" fill="#FF8B7B"/>
<path d="M82.1802 119.469C80.3191 119.77 77.3789 131.565 77.3789 131.565L81.6573 134.86C81.6573 134.86 85.9562 126.336 86.1367 122.504C86.2666 119.723 83.5786 119.244 82.1802 119.469Z" fill="#FF8B7B"/>
<path d="M75.4634 138.794L74.7396 132.927L71.3809 137.856C71.3809 137.856 71.8116 139.883 73.8833 140.218L75.4634 138.794Z" fill="#FF8B7B"/>
<path d="M98.9468 262.022L93.8281 262.198L92.8457 244.325L99.9523 244.425L98.9468 262.022Z" fill="#FF8B7B"/>
<path d="M93.4781 260.566L99.2202 260.525C99.4294 260.524 99.5888 260.668 99.6042 260.871L99.9504 265.407C99.9862 265.878 99.551 266.326 99.0691 266.322C97.0698 266.302 96.113 266.191 93.5875 266.209C92.0342 266.22 89.7533 266.398 87.608 266.412C85.5094 266.427 85.4922 264.308 86.3984 264.11C90.4624 263.22 91.1754 262.028 92.6019 260.886C92.8592 260.68 93.1722 260.568 93.4781 260.566Z" fill="#263238"/>
<path d="M81.8636 119.434C81.8636 119.434 79.3164 120.074 79.2793 150.362C87.4265 151.082 95.847 151.827 99.8111 152.178C100.836 143.736 101.671 138.548 108.475 121.638C108.475 121.638 104.327 120.316 99.9449 119.711C96.5171 119.238 93.7042 118.876 90.6214 118.886C86.5567 118.9 81.8636 119.434 81.8636 119.434Z" fill="#4AB100"/>
<path opacity="0.2" d="M104.432 125.505L105.523 129.235C104.666 131.545 103.954 133.586 103.359 135.423C102.736 131.975 103.603 127.474 104.432 125.505Z" fill="black"/>
<path d="M74.7396 132.927L71.3809 137.856L75.4602 137.617L77.6401 133.115L74.7396 132.927Z" fill="#FF8B7B"/>
<path d="M76.8696 144.259L80.7403 144.203C81.2767 144.195 81.6843 143.72 81.6107 143.189L80.4133 134.579C80.3512 134.134 79.9672 133.804 79.5173 133.811L75.6466 133.867C75.1103 133.875 74.7026 134.35 74.7762 134.881L75.9736 143.491C76.0357 143.936 76.4197 144.266 76.8696 144.259Z" fill="#263238"/>
<path d="M100.743 109.061C99.6632 112.029 98.1752 117.51 99.9461 119.71C99.9461 119.71 96.1208 123.175 89.7669 125.888C87.6267 120.881 90.6225 118.887 90.6225 118.887C94.0984 118.378 94.419 115.872 94.2181 113.475L100.743 109.061Z" fill="#FF8B7B"/>
<path d="M86.6774 105.659C86.1411 114.546 80.7926 117.094 82.0502 121.64C83.8218 128.045 91.055 123.026 91.055 123.026C91.055 123.026 87.1197 124.301 86.8701 121.197C86.6659 118.655 95.7488 119.035 93.2272 113.012C91.6125 109.154 86.6774 105.659 86.6774 105.659Z" fill="#263238"/>
<path opacity="0.2" d="M98.878 111.31L94.2207 113.471C94.27 114.039 94.2873 114.612 94.2367 115.163C95.2095 115.249 97.7273 114.513 98.6815 112.946C99.0463 112.348 98.9362 111.632 98.878 111.31Z" fill="black"/>
<path d="M101.549 100.701C102.018 105.749 102.324 107.876 100.196 110.835C96.9949 115.285 90.6922 114.755 88.7248 109.949C86.9539 105.622 86.4861 98.0935 91.0723 95.3447C95.5907 92.6362 101.081 95.6526 101.549 100.701Z" fill="#FF8B7B"/>
<path d="M100.435 95.6449C96.4548 92.9102 93.146 98.1543 100.214 103.26C107.28 108.366 104.953 98.7489 100.435 95.6449Z" fill="#263238"/>
<path d="M98.3157 94.1762C99.9592 95.654 90.1679 101.105 84.8463 99.3033C79.5253 97.5017 83.7928 93.4281 85.7333 92.9289C84.0706 94.5366 86.9807 96.975 88.3938 95.4511C89.8069 93.9266 95.0178 91.2105 98.3157 94.1762Z" fill="#263238"/>
<path d="M79.2795 150.361C79.2795 150.361 68.4443 196.244 69.3928 207.826C70.5013 221.369 85.3128 243.197 85.3128 243.197L92.1166 237.025C92.1166 237.025 85.3608 219.141 80.365 207.493C81.9675 195.848 96.109 162.935 96.109 151.85L79.2795 150.361Z" fill="#4AB100"/>
<path opacity="0.6" d="M79.2795 150.361C79.2795 150.361 68.4443 196.244 69.3928 207.826C70.5013 221.369 85.3128 243.197 85.3128 243.197L92.1166 237.025C92.1166 237.025 85.3608 219.141 80.365 207.493C81.9675 195.848 96.109 162.935 96.109 151.85L79.2795 150.361Z" fill="black"/>
<path d="M93.3707 237.945L85.3335 243.939L83.2695 242.371L92.0894 235.413L93.3707 237.945Z" fill="#4AB100"/>
<path opacity="0.2" d="M87.2952 170.543C81.3285 178.811 81.036 194.016 81.4085 202.556C83.4571 194.707 87.7541 182.988 91.173 172.432C91.093 168.375 90.0882 166.672 87.2952 170.543Z" fill="black"/>
<path d="M83.1309 150.399C83.1309 150.399 87.095 190.025 88.4205 203.399C89.9949 219.277 92.3059 244.743 92.3059 244.743L99.9507 244.425C99.9507 244.425 101.627 222.835 100.381 208.609C100.609 189.725 103.393 164.056 99.8105 152.177L83.1309 150.399Z" fill="#4AB100"/>
<path opacity="0.6" d="M83.1309 150.399C83.1309 150.399 87.095 190.025 88.4205 203.399C89.9949 219.277 92.3059 244.743 92.3059 244.743L99.9507 244.425C99.9507 244.425 101.627 222.835 100.381 208.609C100.609 189.725 103.393 164.056 99.8105 152.177L83.1309 150.399Z" fill="black"/>
<path d="M100.53 245.822L91.7635 245.575L91.1504 242.817L101.068 242.542L100.53 245.822Z" fill="#4AB100"/>
<path d="M93.702 103.486C93.7654 103.893 93.6002 104.257 93.3346 104.298C93.0684 104.339 92.8015 104.043 92.7381 103.636C92.6748 103.229 92.8399 102.865 93.1055 102.824C93.3718 102.782 93.6386 103.079 93.702 103.486Z" fill="#263238"/>
<path d="M89.1004 104.2C89.1638 104.607 88.9987 104.97 88.7331 105.012C88.4668 105.053 88.1999 104.757 88.1366 104.35C88.0732 103.942 88.2384 103.579 88.504 103.537C88.7702 103.496 89.0371 103.793 89.1004 104.2Z" fill="#263238"/>
<path d="M88.625 103.542L87.6035 103.411C87.6035 103.411 88.2237 104.097 88.625 103.542Z" fill="#263238"/>
<path d="M90.6095 104.6C90.6095 104.6 90.1903 106.46 89.5605 107.424C90.1762 107.842 91.0543 107.471 91.0543 107.471L90.6095 104.6Z" fill="#FF5652"/>
<path d="M93.7023 108.588C93.4969 108.658 93.2729 108.714 93.0284 108.752C92.9625 108.762 92.9004 108.717 92.8902 108.651C92.8799 108.585 92.9234 108.524 92.9913 108.513C94.7769 108.237 95.4194 106.858 95.4258 106.844C95.4534 106.783 95.525 106.756 95.5858 106.783C95.6466 106.811 95.6742 106.883 95.6466 106.943C95.6223 106.997 95.1065 108.108 93.7023 108.588Z" fill="#263238"/>
<path d="M102.948 104.15C102.887 105.2 102.347 106.123 101.693 106.687C100.71 107.536 99.6671 106.789 99.4802 105.571C99.3112 104.476 99.6204 102.715 100.829 102.336C102.021 101.961 103.017 102.95 102.948 104.15Z" fill="#FF8B7B"/>
<path d="M95.7966 100.964C95.7339 100.977 95.6661 100.965 95.6091 100.926C94.7221 100.311 93.8939 100.637 93.8843 100.641C93.7614 100.69 93.6194 100.632 93.5688 100.508C93.5182 100.384 93.5777 100.243 93.7019 100.192C93.7454 100.175 94.7842 99.7647 95.885 100.529C95.9944 100.605 96.0219 100.756 95.9457 100.866C95.9093 100.918 95.8549 100.952 95.7966 100.964Z" fill="#263238"/>
<path d="M87.1053 102.43C87.0483 102.449 86.9843 102.448 86.9254 102.421C86.8045 102.365 86.7513 102.221 86.8077 102.1C87.3696 100.885 88.4736 100.712 88.5209 100.705C88.6534 100.686 88.7763 100.778 88.7949 100.91C88.8141 101.042 88.7225 101.165 88.5907 101.185C88.5472 101.191 87.6934 101.338 87.2467 102.304C87.2179 102.366 87.1654 102.41 87.1053 102.43Z" fill="#263238"/>
<path d="M109.854 127.784C109.952 128.712 110.003 129.521 110.032 130.384C110.062 131.234 110.076 132.083 110.071 132.933C110.043 134.632 109.935 136.334 109.74 138.042C109.55 139.751 109.234 141.462 108.78 143.169C108.556 144.023 108.274 144.873 107.951 145.717C107.792 146.14 107.609 146.559 107.423 146.978C107.419 146.993 107.33 147.18 107.264 147.299C107.195 147.432 107.117 147.557 107.031 147.671C106.861 147.914 106.675 148.104 106.479 148.287C106.094 148.622 105.71 148.835 105.358 148.993C104.663 149.286 104.082 149.389 103.543 149.454C103.005 149.515 102.512 149.525 102.036 149.518C101.084 149.5 100.204 149.401 99.3392 149.279C97.6195 149.013 95.9786 148.647 94.3658 148.207C92.7555 147.767 91.1734 147.279 89.6061 146.762C88.0438 146.213 86.5034 145.667 84.9629 145.021L85.761 142.56C87.3168 142.899 88.8976 143.26 90.4714 143.561C92.0406 143.891 93.6131 144.187 95.1786 144.431C96.7421 144.672 98.3011 144.898 99.8109 144.993C100.561 145.045 101.303 145.07 101.977 145.031C102.313 145.013 102.632 144.978 102.9 144.926C103.163 144.875 103.382 144.798 103.431 144.762C103.446 144.748 103.413 144.75 103.334 144.817C103.28 144.855 103.241 144.903 103.181 144.975L103.106 145.088C103.086 145.117 103.05 145.215 103.079 145.135C103.202 144.801 103.323 144.468 103.428 144.122C103.641 143.433 103.822 142.723 103.98 141.999C104.293 140.548 104.483 139.042 104.625 137.519C104.761 135.994 104.808 134.447 104.806 132.898C104.812 132.124 104.802 131.347 104.775 130.574C104.746 129.813 104.708 129 104.659 128.309L109.854 127.784Z" fill="#FF8B7B"/>
<path d="M108.454 121.636C110.663 123.079 109.915 135.63 109.915 135.63L104.716 136.67C104.716 136.67 104.669 130.3 104.113 126.121C103.738 123.299 106.881 120.607 108.454 121.636Z" fill="#FF8B7B"/>
<path d="M90.6622 261.157C90.5412 261.007 90.5047 260.81 90.5553 260.569C90.5975 260.365 90.7223 260.27 90.819 260.227C91.4315 259.955 92.9162 260.945 93.0833 261.059C93.121 261.084 93.1396 261.133 93.1274 261.18C93.1159 261.228 93.0775 261.266 93.0295 261.278C92.3569 261.439 91.162 261.645 90.7115 261.211C90.6935 261.194 90.6775 261.176 90.6622 261.157ZM92.6987 261.107C92.0919 260.73 91.226 260.304 90.9035 260.448C90.8631 260.466 90.8132 260.499 90.7921 260.602C90.7524 260.791 90.7851 260.933 90.8868 261.031C91.13 261.266 91.7969 261.291 92.6987 261.107Z" fill="#4AB100"/>
<path d="M92.3413 260.701C91.9836 260.26 91.6764 259.686 91.7743 259.321C91.8037 259.21 91.8991 259.019 92.2044 258.98C92.3983 258.955 92.5666 259.008 92.7055 259.138C93.2245 259.625 93.1349 261.097 93.1305 261.159C93.1273 261.202 93.1023 261.242 93.0632 261.264C93.0248 261.286 92.9788 261.287 92.9423 261.266C92.7714 261.166 92.5481 260.956 92.3413 260.701ZM92.5839 259.376C92.5679 259.356 92.5506 259.337 92.5327 259.321C92.4437 259.237 92.3407 259.205 92.2172 259.22C92.061 259.24 92.0239 259.308 92.0079 259.366C91.9138 259.717 92.4373 260.541 92.8969 260.926C92.902 260.464 92.8508 259.705 92.5839 259.376Z" fill="#4AB100"/>
<path d="M100.316 150.991L100.54 152.888C100.589 153.038 100.396 153.169 100.159 153.148L79.0274 151.279C78.8424 151.262 78.7042 151.158 78.7112 151.039L78.827 149.173C78.8354 149.044 79.0133 148.95 79.2155 148.968L100.007 150.806C100.16 150.821 100.286 150.895 100.316 150.991Z" fill="white"/>
<path d="M97.1439 153.085L97.7007 153.134C97.8114 153.144 97.9055 153.094 97.9093 153.023L98.0399 150.596C98.0437 150.525 97.9561 150.459 97.8453 150.449L97.2879 150.4C97.1772 150.391 97.0831 150.44 97.0793 150.511L96.9493 152.938C96.9455 153.009 97.0325 153.075 97.1439 153.085Z" fill="#4AB100"/>
<path opacity="0.6" d="M97.1439 153.085L97.7007 153.134C97.8114 153.144 97.9055 153.094 97.9093 153.023L98.0399 150.596C98.0437 150.525 97.9561 150.459 97.8453 150.449L97.2879 150.4C97.1772 150.391 97.0831 150.44 97.0793 150.511L96.9493 152.938C96.9455 153.009 97.0325 153.075 97.1439 153.085Z" fill="black"/>
<path d="M80.5599 151.618L81.1167 151.667C81.2274 151.677 81.3215 151.627 81.3254 151.556L81.4553 149.129C81.4591 149.058 81.3714 148.992 81.2607 148.982L80.7039 148.933C80.5932 148.923 80.4991 148.973 80.4953 149.044L80.3654 151.471C80.3615 151.543 80.4492 151.608 80.5599 151.618Z" fill="#4AB100"/>
<path opacity="0.6" d="M80.5599 151.618L81.1167 151.667C81.2274 151.677 81.3215 151.627 81.3254 151.556L81.4553 149.129C81.4591 149.058 81.3714 148.992 81.2607 148.982L80.7039 148.933C80.5932 148.923 80.4991 148.973 80.4953 149.044L80.3654 151.471C80.3615 151.543 80.4492 151.608 80.5599 151.618Z" fill="black"/>
<path d="M88.8509 152.351L89.4077 152.401C89.5185 152.41 89.6125 152.36 89.6164 152.289L89.7463 149.862C89.7501 149.791 89.6625 149.725 89.5517 149.715L88.9949 149.666C88.8842 149.656 88.7901 149.706 88.7863 149.777L88.6564 152.204C88.6525 152.275 88.7402 152.342 88.8509 152.351Z" fill="#4AB100"/>
<path opacity="0.6" d="M88.8509 152.351L89.4077 152.401C89.5185 152.41 89.6125 152.36 89.6164 152.289L89.7463 149.862C89.7501 149.791 89.6625 149.725 89.5517 149.715L88.9949 149.666C88.8842 149.656 88.7901 149.706 88.7863 149.777L88.6564 152.204C88.6525 152.275 88.7402 152.342 88.8509 152.351Z" fill="black"/>
<path d="M86.5602 142.791L83.3826 138.522L82.0488 143.629C82.0488 143.629 84.4283 145.71 86.452 144.899L86.5602 142.791Z" fill="#FF8B7B"/>
<path d="M79.2614 137.583L78.373 141.901L82.6943 144.108L83.3823 138.522L79.2614 137.583Z" fill="#FF8B7B"/>
<path d="M93.2265 102.828L92.2051 102.698C92.2051 102.698 92.8246 103.384 93.2265 102.828Z" fill="#263238"/>
</svg>
