<svg width="24" height="24" viewBox="0 0 24 24" fill="none" xmlns="http://www.w3.org/2000/svg">
<path d="M14.3887 3.12132C14.9326 3.21722 15.2958 3.73588 15.1999 4.27977L10.7688 20.0671C10.6729 20.611 10.1542 20.9741 9.61032 20.8782C9.06642 20.7823 8.70328 20.2637 8.79918 19.7198L13.2302 3.93248C13.3261 3.38858 13.8448 3.02541 14.3887 3.12132ZM7.20659 7.05004C7.59712 7.44056 7.59712 8.07373 7.20659 8.46425L3.67106 11.9998L7.20659 15.5353C7.59712 15.9258 7.59712 16.559 7.20659 16.9495C6.81607 17.3401 6.1829 17.3401 5.79238 16.9495L1.54974 12.7069C1.3622 12.5194 1.25684 12.265 1.25684 11.9998C1.25684 11.7346 1.3622 11.4802 1.54974 11.2927L5.79238 7.05004C6.1829 6.65951 6.81607 6.65951 7.20659 7.05004ZM18.2066 7.05004L22.4492 11.2927C22.6367 11.4802 22.7421 11.7346 22.7421 11.9998C22.7421 12.265 22.6367 12.5194 22.4492 12.7069L18.2066 16.9495C17.816 17.3401 17.1829 17.3401 16.7924 16.9495C16.4018 16.559 16.4018 15.9258 16.7924 15.5353L20.3279 11.9998L16.7924 8.46425C16.4018 8.07373 16.4018 7.44056 16.7924 7.05004C17.1829 6.65951 17.816 6.65951 18.2066 7.05004Z" fill="#7E7F81"/>
</svg>
