<svg width="40" height="41" viewBox="0 0 40 41" fill="none" xmlns="http://www.w3.org/2000/svg">
<path d="M13.332 22.9998H26.6654M13.332 14.6665H19.9987" stroke="#4AB100" stroke-width="2.5" stroke-linecap="round" stroke-linejoin="round"/>
<path d="M10.1634 32.1665C7.99653 31.9533 6.37328 31.3025 5.28465 30.2138C3.33203 28.2613 3.33203 25.1185 3.33203 18.8332V17.9998C3.33203 11.7144 3.33203 8.57175 5.28465 6.61912C7.23728 4.6665 10.38 4.6665 16.6654 4.6665H23.332C29.6174 4.6665 32.7602 4.6665 34.7127 6.61912C36.6654 8.57175 36.6654 11.7144 36.6654 17.9998V18.8332C36.6654 25.1185 36.6654 28.2613 34.7127 30.2138C32.7602 32.1665 29.6174 32.1665 23.332 32.1665C22.3979 32.1873 21.6539 32.2583 20.923 32.4248C18.9257 32.8847 17.0762 33.9067 15.2485 34.798C12.6442 36.0678 11.342 36.7028 10.5248 36.1083C8.96151 34.944 10.4896 31.3363 10.832 29.6665" stroke="#4AB100" stroke-width="2.5" stroke-linecap="round"/>
</svg>
