<svg width="40" height="41" viewBox="0 0 40 41" fill="none" xmlns="http://www.w3.org/2000/svg">
<path d="M28.332 23.5075C28.332 22.9313 28.332 22.6433 28.4187 22.3867C28.6707 21.6407 29.335 21.3513 30.0005 21.0482C30.7487 20.7073 31.1227 20.537 31.4934 20.507C31.9142 20.473 32.3357 20.5637 32.6954 20.7655C33.1722 21.033 33.5047 21.5415 33.8452 21.955C35.4174 23.8647 36.2035 24.8197 36.4912 25.8727C36.7234 26.7223 36.7234 27.611 36.4912 28.4607C36.0717 29.9965 34.7462 31.284 33.765 32.4757C33.2632 33.0852 33.0122 33.39 32.6954 33.5678C32.3357 33.7697 31.9142 33.8603 31.4934 33.8263C31.1227 33.7963 30.7487 33.626 30.0005 33.2852C29.335 32.982 28.6707 32.6927 28.4187 31.9467C28.332 31.69 28.332 31.402 28.332 30.8258V23.5075Z" stroke="#4AB100" stroke-width="2.5"/>
<path d="M15.832 35.5C18.1332 37.7222 21.8642 37.7222 24.1654 35.5" stroke="#4AB100" stroke-width="2.5" stroke-linecap="round" stroke-linejoin="round"/>
<path d="M11.6654 23.5074C11.6654 22.7821 11.645 22.1303 11.0585 21.6203C10.8452 21.4348 10.5624 21.306 9.99688 21.0483C9.24871 20.7076 8.87463 20.5373 8.50396 20.5073C7.39188 20.4173 6.79356 21.1763 6.15225 21.9551C4.57995 23.8648 3.7938 24.8196 3.50613 25.8726C3.274 26.7223 3.274 27.6109 3.50613 28.4606C3.9257 29.9964 5.25123 31.2836 6.23238 32.4753C6.85085 33.2264 7.44165 33.9119 8.50396 33.8259C8.87463 33.7959 9.24871 33.6256 9.99688 33.2848C10.5624 33.0273 10.8452 32.8985 11.0585 32.713C11.645 32.203 11.6654 31.5511 11.6654 30.8256V23.5074Z" stroke="#4AB100" stroke-width="2.5"/>
<path d="M3.33203 27.1668V20.5002C3.33203 11.2954 10.7939 3.8335 19.9987 3.8335C29.2034 3.8335 36.6654 11.2954 36.6654 20.5002L36.6655 27.1668" stroke="#4AB100" stroke-width="2.5" stroke-linecap="round" stroke-linejoin="round"/>
</svg>
