<svg width="20" height="21" viewBox="0 0 20 21" fill="none" xmlns="http://www.w3.org/2000/svg">
<rect y="0.876465" width="20" height="20" rx="10" fill="#4AB100"/>
<path d="M10.3334 5C10.1861 5 10.0403 5.00748 9.89659 5.02148C9.73492 5.03715 9.59085 5.1308 9.51052 5.27213C9.42986 5.41347 9.42329 5.58477 9.49229 5.73177C9.71863 6.21477 9.83344 6.72566 9.83344 7.24999C9.83344 9.04998 8.48695 10.5764 6.70129 10.8014C6.53996 10.8214 6.39872 10.9188 6.32238 11.0625C6.24605 11.2058 6.24418 11.3778 6.31718 11.5228C6.57584 12.0351 6.92837 12.49 7.3647 12.875C7.45203 12.952 7.55878 12.9849 7.66678 12.9909V13H13.0001V12.9954C13.1084 12.9894 13.2158 12.953 13.3035 12.8756C14.2758 12.0193 14.8334 10.7886 14.8334 9.49998C14.8334 7.01866 12.8148 5 10.3334 5ZM5.66679 14C5.60053 13.999 5.53475 14.0113 5.47327 14.036C5.41178 14.0607 5.35582 14.0974 5.30864 14.1439C5.26145 14.1904 5.22399 14.2458 5.19841 14.307C5.17284 14.3681 5.15967 14.4337 5.15967 14.5C5.15967 14.5662 5.17284 14.6318 5.19841 14.693C5.22399 14.7541 5.26145 14.8095 5.30864 14.856C5.35582 14.9026 5.41178 14.9392 5.47327 14.9639C5.53475 14.9887 5.60053 15.0009 5.66679 15H15.3334C15.3997 15.0009 15.4655 14.9887 15.5269 14.9639C15.5884 14.9392 15.6444 14.9026 15.6916 14.856C15.7387 14.8095 15.7762 14.7541 15.8018 14.693C15.8274 14.6318 15.8405 14.5662 15.8405 14.5C15.8405 14.4337 15.8274 14.3681 15.8018 14.307C15.7762 14.2458 15.7387 14.1904 15.6916 14.1439C15.6444 14.0974 15.5884 14.0607 15.5269 14.036C15.4655 14.0113 15.3997 13.999 15.3334 14H5.66679ZM7.66678 16C7.60052 15.999 7.53474 16.0113 7.47326 16.036C7.41177 16.0607 7.35581 16.0974 7.30863 16.1439C7.26144 16.1904 7.22398 16.2458 7.1984 16.307C7.17283 16.3681 7.15966 16.4337 7.15966 16.5C7.15966 16.5662 7.17283 16.6318 7.1984 16.6929C7.22398 16.7541 7.26144 16.8095 7.30863 16.856C7.35581 16.9026 7.41177 16.9392 7.47326 16.9639C7.53474 16.9886 7.60052 17.0009 7.66678 17H13.3334C13.3997 17.0009 13.4655 16.9886 13.5269 16.9639C13.5884 16.9392 13.6444 16.9026 13.6916 16.856C13.7388 16.8095 13.7762 16.7541 13.8018 16.6929C13.8274 16.6318 13.8405 16.5662 13.8405 16.5C13.8405 16.4337 13.8274 16.3681 13.8018 16.307C13.7762 16.2458 13.7388 16.1904 13.6916 16.1439C13.6444 16.0974 13.5884 16.0607 13.5269 16.036C13.4655 16.0113 13.3997 15.999 13.3334 16H7.66678Z" fill="white"/>
</svg>
