<svg width="17" height="18" viewBox="0 0 17 18" fill="none" xmlns="http://www.w3.org/2000/svg">
<path d="M3.2088 0.666748C2.4109 0.666748 1.75047 1.32718 1.75047 2.12508V3.11629L0.266907 4.59985C0.179549 4.68727 0.120066 4.79863 0.0959752 4.91984C0.0718845 5.04106 0.0842675 5.16669 0.131559 5.28087C0.178851 5.39505 0.258929 5.49265 0.361673 5.56133C0.464417 5.63002 0.585216 5.6667 0.708802 5.66675H11.5421C12.34 5.66675 13.0005 5.00631 13.0005 4.20841V2.12508C13.0005 1.32718 12.34 0.666748 11.5421 0.666748H3.2088ZM4.87547 6.50008C4.07757 6.50008 3.41714 7.16052 3.41714 7.95841V8.94963L1.93357 10.4332C1.84622 10.5206 1.78673 10.632 1.76264 10.7532C1.73855 10.8744 1.75093 11 1.79823 11.1142C1.84552 11.2284 1.9256 11.326 2.02834 11.3947C2.13108 11.4633 2.25188 11.5 2.37547 11.5001H13.2088C14.0067 11.5001 14.6671 10.8396 14.6671 10.0417V7.95841C14.6671 7.16052 14.0067 6.50008 13.2088 6.50008H4.87547ZM6.54214 12.3334C5.74424 12.3334 5.0838 12.9938 5.0838 13.7917V14.783L3.60024 16.2665C3.51288 16.3539 3.4534 16.4653 3.42931 16.5865C3.40522 16.7077 3.4176 16.8334 3.46489 16.9475C3.51218 17.0617 3.59226 17.1593 3.69501 17.228C3.79775 17.2967 3.91855 17.3334 4.04214 17.3334H14.8755C15.6734 17.3334 16.3338 16.673 16.3338 15.8751V13.7917C16.3338 12.9938 15.6734 12.3334 14.8755 12.3334H6.54214Z" fill="white"/>
</svg>
