<svg width="27" height="26" viewBox="0 0 27 26" fill="none" xmlns="http://www.w3.org/2000/svg">
<path d="M20 0H7C3.42532 0 0.5 2.92532 0.5 6.5V19.5006C0.5 23.0744 3.42532 26.0006 7 26.0006H20C23.5747 26.0006 26.5 23.0744 26.5 19.5006V6.5C26.5 2.92532 23.5747 0 20 0ZM24.3332 19.5006C24.3332 21.8894 22.3901 23.8339 20 23.8339H7C4.61093 23.8339 2.66677 21.8894 2.66677 19.5006V6.5C2.66677 4.11062 4.61093 2.16677 7 2.16677H20C22.3901 2.16677 24.3332 4.11062 24.3332 6.5V19.5006Z" fill="#AFB0B1"/>
<path d="M19.7148 15.4444H17.5094V24.3749H14.2413C14.2413 24.3749 14.2413 19.4953 14.2413 15.4444H12.6877V12.288H14.2413V10.2464C14.2413 8.78427 14.8528 6.49951 17.5394 6.49951L19.9611 6.51006V9.57397C19.9611 9.57397 18.4895 9.57397 18.2034 9.57397C17.9172 9.57397 17.5104 9.73651 17.5104 10.4338V12.2886H20.0004L19.7148 15.4444Z" fill="#AFB0B1"/>
</svg>
