<svg width="158" height="30" viewBox="0 0 158 30" fill="none" xmlns="http://www.w3.org/2000/svg">
<path d="M0 15C0 6.71573 6.71573 0 15 0H143C151.284 0 158 6.71573 158 15C158 23.2843 151.284 30 143 30H15C6.71573 30 0 23.2843 0 15Z" fill="#E9ECF5"/>
<path d="M19 8.63525C19 8.63525 21.5464 5.7915 24.6875 5.7915C27.8286 5.7915 30.375 8.37255 30.375 11.479C30.375 13.4046 28.4786 15.2701 28.4786 15.2701L19.9593 23.7905C19.4295 24.3203 18.5699 24.3203 18.0402 23.7905L9.52138 15.2701C9.52138 15.2701 7.625 13.4035 7.625 11.479C7.625 8.37255 10.1714 5.7915 13.3125 5.7915C16.4536 5.7915 19 8.63525 19 8.63525Z" fill="url(#paint0_linear_6240_249)"/>
<path d="M49.0003 25.8332C54.983 25.8332 59.8337 20.9825 59.8337 14.9998C59.8337 9.01713 54.983 4.1665 49.0003 4.1665C43.0176 4.1665 38.167 9.01713 38.167 14.9998C38.167 20.9825 43.0176 25.8332 49.0003 25.8332Z" fill="url(#paint1_linear_6240_249)"/>
<path d="M49.0003 23.125C46.6072 23.125 44.667 21.1848 44.667 18.7917C44.667 18.4927 44.9097 18.25 45.2087 18.25H52.792C53.091 18.25 53.3337 18.4927 53.3337 18.7917C53.3337 21.1848 51.3934 23.125 49.0003 23.125Z" fill="#343434"/>
<path d="M51.9992 19.3333H46.0008C45.8621 19.3333 45.75 19.2212 45.75 19.0825V18.25H52.25V19.0825C52.25 19.2212 52.1379 19.3333 51.9992 19.3333Z" fill="white"/>
<path d="M46.4043 22.2553C47.1285 22.7986 48.025 23.1247 49 23.1247C49.975 23.1247 50.8714 22.7986 51.5956 22.2553C51.0025 21.4683 50.0616 20.958 49 20.958C47.9383 20.958 46.9974 21.4683 46.4043 22.2553Z" fill="url(#paint2_linear_6240_249)"/>
<path d="M46.8149 14.4582C46.628 14.4582 46.446 14.3612 46.3458 14.1879C46.0549 13.6863 45.5154 13.3748 44.9374 13.3748C44.3595 13.3748 43.82 13.6863 43.5291 14.1873C43.3791 14.4463 43.0465 14.534 42.7892 14.3845C42.5297 14.2345 42.4414 13.903 42.592 13.644C43.0757 12.8099 43.9744 12.2915 44.9374 12.2915C45.9005 12.2915 46.7997 12.8104 47.2829 13.6446C47.4329 13.9035 47.3446 14.235 47.0857 14.385C47.0007 14.4343 46.9069 14.4582 46.8149 14.4582Z" fill="#343434"/>
<path d="M54.9399 14.4582C54.753 14.4582 54.571 14.3612 54.4708 14.1879C54.1799 13.6863 53.6404 13.3748 53.0624 13.3748C52.4845 13.3748 51.945 13.6863 51.6541 14.1873C51.5041 14.4463 51.1715 14.534 50.9142 14.3845C50.6547 14.2345 50.5664 13.903 50.717 13.644C51.2007 12.8099 52.0994 12.2915 53.0624 12.2915C54.0255 12.2915 54.9247 12.8104 55.4079 13.6446C55.5579 13.9035 55.4696 14.235 55.2107 14.385C55.1257 14.4343 55.0319 14.4582 54.9399 14.4582Z" fill="#343434"/>
<path d="M79.0003 25.8332C84.9587 25.8332 89.8337 20.9582 89.8337 14.9998C89.8337 9.0415 84.9587 4.1665 79.0003 4.1665C73.042 4.1665 68.167 9.0415 68.167 14.9998C68.167 20.9582 73.042 25.8332 79.0003 25.8332Z" fill="url(#paint3_linear_6240_249)"/>
<path d="M76.8334 12.8332C76.6709 12.8332 76.4543 12.7248 76.3459 12.5623C76.0751 12.0748 75.5334 11.7498 74.9376 11.7498C74.3418 11.7498 73.8001 12.0748 73.5293 12.5623C73.3668 12.8332 73.0418 12.8873 72.7709 12.779C72.5001 12.6165 72.4459 12.2915 72.5543 12.0207C73.0418 11.2082 73.9626 10.6665 74.8834 10.6665C75.8043 10.6665 76.7251 11.2082 77.2126 12.0207C77.3751 12.2915 77.2668 12.6165 76.9959 12.779C76.9959 12.8332 76.8876 12.8332 76.8334 12.8332Z" fill="#343434"/>
<path d="M84.9584 12.8332C84.7959 12.8332 84.5793 12.7248 84.4709 12.5623C84.2001 12.0748 83.6584 11.7498 83.0626 11.7498C82.4668 11.7498 81.9251 12.0748 81.6543 12.5623C81.4918 12.8332 81.1668 12.8873 80.8959 12.779C80.6251 12.6165 80.5709 12.2915 80.6793 12.0207C81.1668 11.2082 82.0876 10.6665 83.0084 10.6665C83.9293 10.6665 84.8501 11.2082 85.3376 12.0207C85.5001 12.2915 85.3918 12.6165 85.1209 12.779C85.1209 12.8332 85.0126 12.8332 84.9584 12.8332Z" fill="#343434"/>
<path d="M72.2295 20.4165C73.5757 20.4165 74.667 19.3252 74.667 17.979C74.667 16.6328 73.5757 15.5415 72.2295 15.5415C70.8833 15.5415 69.792 16.6328 69.792 17.979C69.792 19.3252 70.8833 20.4165 72.2295 20.4165Z" fill="url(#paint4_radial_6240_249)"/>
<path d="M83.2246 18.0873C83.4413 18.3039 83.3871 18.6289 83.1705 18.8456C81.9788 19.8748 80.5163 20.4164 78.9996 20.4164C77.483 20.4164 76.0205 19.8748 74.8288 18.8456C74.6121 18.6289 74.558 18.3039 74.7746 18.0873C74.9913 17.8706 75.3163 17.8164 75.533 18.0331C76.508 18.8456 77.6996 19.3331 78.9455 19.3331C80.1913 19.3331 81.4371 18.8456 82.358 18.0331C82.4663 17.9248 82.5746 17.8706 82.7371 17.8706C82.9538 17.8706 83.1163 17.9789 83.2246 18.0873Z" fill="#343434"/>
<path d="M85.7705 20.4165C87.1167 20.4165 88.208 19.3252 88.208 17.979C88.208 16.6328 87.1167 15.5415 85.7705 15.5415C84.4243 15.5415 83.333 16.6328 83.333 17.979C83.333 19.3252 84.4243 20.4165 85.7705 20.4165Z" fill="url(#paint5_radial_6240_249)"/>
<path d="M74.3415 20.4163C74.179 20.4163 74.0706 20.3622 73.9623 20.2538C73.7456 20.0372 73.7456 19.7122 73.9623 19.4955C74.2873 19.1705 74.504 18.7372 74.504 18.2497C74.504 17.7622 74.3415 17.3288 74.0165 17.0038C73.7998 16.7872 73.7998 16.4622 74.0165 16.2455C74.2331 16.0288 74.5581 16.0288 74.7748 16.2455C75.3165 16.7872 75.5873 17.4913 75.5873 18.2497C75.5873 19.008 75.3165 19.7122 74.7748 20.2538C74.6123 20.3622 74.4498 20.4163 74.3415 20.4163Z" fill="#343434"/>
<path d="M83.6585 20.4163C83.496 20.4163 83.3876 20.3622 83.2793 20.2538C82.7376 19.7122 82.4668 19.008 82.4668 18.2497C82.4668 17.4913 82.7376 16.7872 83.2793 16.2455C83.496 16.0288 83.821 16.0288 84.0376 16.2455C84.2543 16.4622 84.2543 16.7872 84.0376 17.0038C83.7126 17.3288 83.5501 17.7622 83.5501 18.2497C83.5501 18.7372 83.7126 19.1705 84.0918 19.4955C84.3085 19.7122 84.3085 20.0372 84.0918 20.2538C83.9293 20.3622 83.821 20.4163 83.6585 20.4163Z" fill="#343434"/>
<path d="M109 25.8332C114.959 25.8332 119.834 20.9582 119.834 14.9998C119.834 9.0415 114.959 4.1665 109 4.1665C103.042 4.1665 98.167 9.0415 98.167 14.9998C98.167 20.9582 103.042 25.8332 109 25.8332Z" fill="url(#paint6_linear_6240_249)"/>
<path d="M106.779 13.4292C106.562 12.4542 105.696 11.75 104.667 11.75C103.475 11.75 102.5 12.725 102.5 13.9167C102.5 14.1333 102.554 14.35 102.608 14.5667L106.779 13.4292Z" fill="white"/>
<path d="M105.75 13.6997C105.641 13.2122 105.208 12.833 104.666 12.833C104.071 12.833 103.583 13.3205 103.583 13.9163C103.583 14.0247 103.583 14.133 103.637 14.2955L105.75 13.6997Z" fill="#343434"/>
<path d="M115.392 14.5667C115.446 14.35 115.5 14.1875 115.5 13.9167C115.5 12.725 114.525 11.75 113.333 11.75C112.304 11.75 111.437 12.4542 111.221 13.4292L115.392 14.5667Z" fill="white"/>
<path d="M114.363 14.2955C114.417 14.133 114.417 14.0247 114.417 13.9163C114.417 13.3205 113.929 12.833 113.333 12.833C112.792 12.833 112.358 13.2122 112.25 13.6997L114.363 14.2955Z" fill="#343434"/>
<path d="M109 23.6665C110.196 23.6665 111.166 22.5752 111.166 21.229C111.166 19.8828 110.196 18.7915 109 18.7915C107.803 18.7915 106.833 19.8828 106.833 21.229C106.833 22.5752 107.803 23.6665 109 23.6665Z" fill="#343434"/>
<path d="M109 23.6665C109.542 23.6665 110.029 23.4498 110.408 23.0707C110.138 22.4748 109.596 22.0415 109 22.0415C108.404 22.0415 107.863 22.4748 107.592 23.0707C107.971 23.4498 108.458 23.6665 109 23.6665Z" fill="url(#paint7_linear_6240_249)"/>
<path d="M139 25.8332C144.983 25.8332 149.834 20.9825 149.834 14.9998C149.834 9.01713 144.983 4.1665 139 4.1665C133.018 4.1665 128.167 9.01713 128.167 14.9998C128.167 20.9825 133.018 25.8332 139 25.8332Z" fill="url(#paint8_linear_6240_249)"/>
<path d="M136.814 14.4582C136.628 14.4582 136.446 14.3612 136.345 14.1873C136.055 13.6863 135.516 13.3748 134.938 13.3748C134.36 13.3748 133.82 13.6863 133.53 14.1873C133.38 14.4463 133.049 14.5345 132.79 14.3845C132.531 14.2345 132.443 13.9035 132.593 13.6446C133.076 12.8099 133.974 12.2915 134.938 12.2915C135.901 12.2915 136.8 12.8104 137.283 13.6451C137.432 13.904 137.344 14.235 137.085 14.385C137 14.4349 136.906 14.4582 136.814 14.4582Z" fill="#343434"/>
<path d="M144.939 14.4582C144.753 14.4582 144.571 14.3612 144.47 14.1873C144.18 13.6863 143.641 13.3748 143.063 13.3748C142.485 13.3748 141.945 13.6863 141.655 14.1873C141.505 14.4463 141.173 14.5345 140.915 14.3845C140.656 14.2345 140.568 13.9035 140.718 13.6446C141.201 12.8099 142.099 12.2915 143.063 12.2915C144.026 12.2915 144.925 12.8104 145.408 13.6451C145.557 13.904 145.469 14.235 145.21 14.385C145.125 14.4349 145.031 14.4582 144.939 14.4582Z" fill="#343434"/>
<path d="M145.426 15.5903C145.408 15.4332 145.557 15.313 145.707 15.3639C146.63 15.6808 149.287 16.6411 149.905 17.4076C150.656 18.3393 150.509 19.7032 149.578 20.4539C148.646 21.2047 147.282 21.0579 146.531 20.1262C145.913 19.3603 145.54 16.5599 145.426 15.5903Z" fill="url(#paint9_linear_6240_249)"/>
<path d="M131.469 20.1267C130.718 21.0584 129.354 21.2052 128.423 20.4544C127.491 19.7037 127.344 18.3398 128.095 17.4081C128.712 16.6416 131.369 15.6818 132.293 15.3644C132.442 15.3135 132.592 15.4337 132.574 15.5908C132.46 16.5598 132.086 19.3603 131.469 20.1267Z" fill="url(#paint10_linear_6240_249)"/>
<path d="M139 18.25C136.607 18.25 134.667 20.1902 134.667 22.5833C134.667 22.8823 134.91 23.125 135.209 23.125H142.792C143.091 23.125 143.334 22.8823 143.334 22.5833C143.334 20.1902 141.393 18.25 139 18.25Z" fill="#343434"/>
<path d="M141.86 19.3333C141.096 18.6611 140.097 18.25 139 18.25C137.903 18.25 136.904 18.6611 136.141 19.3333H141.86Z" fill="white"/>
<defs>
<linearGradient id="paint0_linear_6240_249" x1="14.6347" y1="4.50071" x2="25.0997" y2="20.6169" gradientUnits="userSpaceOnUse">
<stop stop-color="#F44F5A"/>
<stop offset="0.443" stop-color="#EE3D4A"/>
<stop offset="1" stop-color="#E52030"/>
</linearGradient>
<linearGradient id="paint1_linear_6240_249" x1="41.4338" y1="7.4333" x2="56.6432" y2="22.6428" gradientUnits="userSpaceOnUse">
<stop stop-color="#FEDE00"/>
<stop offset="0.519" stop-color="#FECC00"/>
<stop offset="1" stop-color="#FFB700"/>
</linearGradient>
<linearGradient id="paint2_linear_6240_249" x1="49" y1="24.3185" x2="49" y2="21.504" gradientUnits="userSpaceOnUse">
<stop stop-color="#F05964"/>
<stop offset="1" stop-color="#D4414C"/>
</linearGradient>
<linearGradient id="paint3_linear_6240_249" x1="71.4338" y1="7.4333" x2="86.6432" y2="22.6428" gradientUnits="userSpaceOnUse">
<stop stop-color="#FEDE00"/>
<stop offset="0.519" stop-color="#FECC00"/>
<stop offset="1" stop-color="#FFB700"/>
</linearGradient>
<radialGradient id="paint4_radial_6240_249" cx="0" cy="0" r="1" gradientUnits="userSpaceOnUse" gradientTransform="translate(72.2295 17.979) scale(3.07775)">
<stop stop-color="#F34B56"/>
<stop offset="1" stop-color="#FED300" stop-opacity="0"/>
</radialGradient>
<radialGradient id="paint5_radial_6240_249" cx="0" cy="0" r="1" gradientUnits="userSpaceOnUse" gradientTransform="translate(85.7705 17.979) scale(3.07775)">
<stop stop-color="#F34B56"/>
<stop offset="1" stop-color="#FED400" stop-opacity="0"/>
</radialGradient>
<linearGradient id="paint6_linear_6240_249" x1="101.434" y1="7.4333" x2="116.643" y2="22.6428" gradientUnits="userSpaceOnUse">
<stop stop-color="#FEDE00"/>
<stop offset="0.519" stop-color="#FECC00"/>
<stop offset="1" stop-color="#FFB700"/>
</linearGradient>
<linearGradient id="paint7_linear_6240_249" x1="109" y1="24.5619" x2="109" y2="22.451" gradientUnits="userSpaceOnUse">
<stop stop-color="#F05964"/>
<stop offset="1" stop-color="#D4414C"/>
</linearGradient>
<linearGradient id="paint8_linear_6240_249" x1="131.434" y1="7.4333" x2="146.643" y2="22.6428" gradientUnits="userSpaceOnUse">
<stop stop-color="#FEDE00"/>
<stop offset="0.519" stop-color="#FECC00"/>
<stop offset="1" stop-color="#FFB700"/>
</linearGradient>
<linearGradient id="paint9_linear_6240_249" x1="146.025" y1="15.0645" x2="149.37" y2="20.7169" gradientUnits="userSpaceOnUse">
<stop stop-color="#66DDFF"/>
<stop offset="0.214" stop-color="#5ED6FC"/>
<stop offset="0.555" stop-color="#47C2F3"/>
<stop offset="0.978" stop-color="#21A2E6"/>
<stop offset="1" stop-color="#1FA0E5"/>
</linearGradient>
<linearGradient id="paint10_linear_6240_249" x1="131.974" y1="15.0651" x2="128.629" y2="20.7175" gradientUnits="userSpaceOnUse">
<stop stop-color="#66DDFF"/>
<stop offset="0.214" stop-color="#5ED6FC"/>
<stop offset="0.555" stop-color="#47C2F3"/>
<stop offset="0.978" stop-color="#21A2E6"/>
<stop offset="1" stop-color="#1FA0E5"/>
</linearGradient>
</defs>
</svg>
