<svg width="18" height="18" viewBox="0 0 18 18" fill="none" xmlns="http://www.w3.org/2000/svg">
<path fill-rule="evenodd" clip-rule="evenodd" d="M0 6.75C0 10.4779 3.02208 13.5 6.75 13.5C8.30847 13.5 9.74359 12.9718 10.8861 12.0847C10.9291 12.1758 10.9883 12.2611 11.0636 12.3364L16.4636 17.7364C16.8151 18.0879 17.3849 18.0879 17.7364 17.7364C18.0879 17.3849 18.0879 16.8151 17.7364 16.4636L12.3364 11.0636C12.2611 10.9883 12.1758 10.9291 12.0847 10.8861C12.9718 9.74359 13.5 8.30847 13.5 6.75C13.5 3.02208 10.4779 0 6.75 0C3.02208 0 0 3.02208 0 6.75ZM1.8 6.75C1.8 4.01619 4.01619 1.8 6.75 1.8C9.48381 1.8 11.7 4.01619 11.7 6.75C11.7 9.48381 9.48381 11.7 6.75 11.7C4.01619 11.7 1.8 9.48381 1.8 6.75Z" fill="#4AB100"/>
</svg>
