<svg width="20" height="20" viewBox="0 0 20 20" fill="none" xmlns="http://www.w3.org/2000/svg">
<path d="M5.62467 2.08325C4.36092 2.08325 3.33301 3.11159 3.33301 4.37492V13.5416C3.33301 14.8049 4.36092 15.8333 5.62467 15.8333H12.2913C13.5551 15.8333 14.583 14.8049 14.583 13.5416V4.37492C14.583 3.11159 13.5551 2.08325 12.2913 2.08325H5.62467ZM15.4163 4.16659V13.9583C15.4163 15.4541 14.2038 16.6666 12.708 16.6666H5.41634L5.75488 17.1744C6.06363 17.6381 6.5841 17.9166 7.1416 17.9166H12.708C14.8943 17.9166 16.6663 16.1445 16.6663 13.9583V5.89185C16.6663 5.33476 16.3879 4.81429 15.9242 4.50513L15.4163 4.16659ZM8.95801 4.58325C10.2218 4.58325 11.2497 5.61159 11.2497 6.87492C11.2497 8.19659 10.6304 8.6702 10.1779 9.01603C9.79456 9.30895 9.58301 9.46992 9.58301 10.2083C9.58301 10.5533 9.30342 10.8333 8.95801 10.8333C8.61259 10.8333 8.33301 10.5533 8.33301 10.2083C8.33301 8.85158 8.96029 8.3728 9.41862 8.02238C9.7932 7.73655 9.99967 7.57825 9.99967 6.87492C9.99967 6.30034 9.53217 5.83325 8.95801 5.83325C8.38384 5.83325 7.91634 6.30034 7.91634 6.87492V7.05965C7.91634 7.40465 7.63676 7.68465 7.29134 7.68465C6.94592 7.68465 6.66634 7.40465 6.66634 7.05965V6.87492C6.66634 5.61159 7.69426 4.58325 8.95801 4.58325ZM8.95801 11.6666C9.41842 11.6666 9.79134 12.0395 9.79134 12.4999C9.79134 12.9603 9.41842 13.3333 8.95801 13.3333C8.49759 13.3333 8.12467 12.9603 8.12467 12.4999C8.12467 12.0395 8.49759 11.6666 8.95801 11.6666Z" fill="white"/>
</svg>
