<svg width="30" height="30" viewBox="0 0 30 30" fill="none" xmlns="http://www.w3.org/2000/svg">
<path d="M15 2.50024C8.1075 2.50024 2.5 8.10774 2.5 15.0002C2.5 21.8927 8.1075 27.5002 15 27.5002C21.8925 27.5002 27.5 21.8927 27.5 15.0002C27.5 8.10774 21.8925 2.50024 15 2.50024ZM20.3125 15.9377H15.9375V20.3127C15.9375 20.8309 15.5181 21.2502 15 21.2502C14.4819 21.2502 14.0625 20.8309 14.0625 20.3127V15.9377H9.6875C9.16938 15.9377 8.75 15.5184 8.75 15.0002C8.75 14.4821 9.16938 14.0627 9.6875 14.0627H14.0625V9.68774C14.0625 9.16962 14.4819 8.75024 15 8.75024C15.5181 8.75024 15.9375 9.16962 15.9375 9.68774V14.0627H20.3125C20.8306 14.0627 21.25 14.4821 21.25 15.0002C21.25 15.5184 20.8306 15.9377 20.3125 15.9377Z" fill="#4AB100"/>
</svg>
