<svg width="22" height="22" viewBox="0 0 22 22" fill="none" xmlns="http://www.w3.org/2000/svg">
<path d="M5.5 2.75C3.99207 2.75 2.75 3.99207 2.75 5.5V16.5C2.75 18.0079 3.99207 19.25 5.5 19.25H13.2917C14.564 19.25 15.6966 18.4161 16.013 17.1866C16.043 17.07 16.0497 16.9486 16.0328 16.8294C16.0158 16.7102 15.9756 16.5955 15.9143 16.4918C15.8531 16.3882 15.772 16.2976 15.6757 16.2253C15.5795 16.1529 15.4699 16.1003 15.3533 16.0703C15.2367 16.0403 15.1153 16.0336 14.9961 16.0506C14.8769 16.0675 14.7621 16.1077 14.6585 16.169C14.5548 16.2303 14.4643 16.3113 14.3919 16.4076C14.3196 16.5039 14.267 16.6134 14.237 16.7301C14.1464 17.0819 13.728 17.4167 13.2917 17.4167H5.5C4.98301 17.4167 4.58333 17.017 4.58333 16.5V5.5C4.58333 4.98301 4.98301 4.58333 5.5 4.58333H13.2917C13.728 4.58333 14.1464 4.91815 14.237 5.26994C14.267 5.38655 14.3196 5.49613 14.3919 5.59239C14.4643 5.68866 14.5548 5.76974 14.6585 5.831C14.7621 5.89227 14.8769 5.93251 14.9961 5.94945C15.1153 5.96638 15.2367 5.95966 15.3533 5.92969C15.4699 5.89971 15.5795 5.84706 15.6757 5.77474C15.772 5.70241 15.8531 5.61184 15.9143 5.50818C15.9756 5.40452 16.0158 5.28981 16.0328 5.1706C16.0497 5.05139 16.043 4.93001 16.013 4.8134C15.6966 3.58394 14.564 2.75 13.2917 2.75H5.5ZM15.5735 7.32438C15.3912 7.32461 15.2131 7.37917 15.062 7.48109C14.9109 7.58301 14.7936 7.72767 14.7251 7.89658C14.6566 8.0655 14.64 8.251 14.6774 8.4294C14.7148 8.60779 14.8046 8.77098 14.9352 8.89811L16.1204 10.0833H7.79167C7.6702 10.0816 7.5496 10.1041 7.43688 10.1494C7.32416 10.1946 7.22156 10.2619 7.13506 10.3472C7.04855 10.4325 6.97986 10.5341 6.93297 10.6462C6.88609 10.7582 6.86194 10.8785 6.86194 11C6.86194 11.1215 6.88609 11.2418 6.93297 11.3538C6.97986 11.4659 7.04855 11.5675 7.13506 11.6528C7.22156 11.7381 7.32416 11.8054 7.43688 11.8506C7.5496 11.8959 7.6702 11.9184 7.79167 11.9167H16.1204L14.9352 13.1019C14.8472 13.1864 14.777 13.2875 14.7286 13.3995C14.6802 13.5114 14.6547 13.6319 14.6534 13.7539C14.6522 13.8758 14.6753 13.9968 14.7214 14.1097C14.7675 14.2226 14.8357 14.3252 14.9219 14.4114C15.0081 14.4977 15.1107 14.5658 15.2236 14.6119C15.3365 14.658 15.4575 14.6811 15.5795 14.6799C15.7014 14.6787 15.8219 14.6531 15.9339 14.6047C16.0458 14.5563 16.147 14.4861 16.2314 14.3981L18.9814 11.6481C19.1533 11.4762 19.2498 11.2431 19.2498 11C19.2498 10.7569 19.1533 10.5238 18.9814 10.3519L16.2314 7.60189C16.1459 7.51397 16.0436 7.44411 15.9306 7.39644C15.8176 7.34877 15.6961 7.32427 15.5735 7.32438Z" fill="#FF3D00"/>
</svg>
