<svg width="17" height="17" viewBox="0 0 17 17" fill="none" xmlns="http://www.w3.org/2000/svg">
<g clip-path="url(#clip0_6647_6784)">
<path d="M8.76888 0.44873C6.93394 0.44873 5.43555 1.94712 5.43555 3.78206V6.28206H5.44987C4.22451 7.26032 3.43555 8.76343 3.43555 10.4487C3.43555 13.3883 5.82928 15.7821 8.76888 15.7821C11.7085 15.7821 14.1022 13.3883 14.1022 10.4487C14.1022 8.76343 13.3132 7.26032 12.0879 6.28206H12.1022V3.78206C12.1022 1.94712 10.6038 0.44873 8.76888 0.44873ZM8.76888 1.44873C10.0633 1.44873 11.1022 2.48767 11.1022 3.78206V5.66097C10.3962 5.31526 9.60618 5.1154 8.76888 5.1154C7.93158 5.1154 7.14157 5.31526 6.43555 5.66097V3.78206C6.43555 2.48767 7.47449 1.44873 8.76888 1.44873ZM8.76888 8.1154C9.68921 8.1154 10.4355 8.86173 10.4355 9.78206C10.4355 10.4651 10.0235 11.0508 9.43555 11.3081V12.4487C9.43555 12.8171 9.13721 13.1154 8.76888 13.1154C8.40055 13.1154 8.10221 12.8171 8.10221 12.4487V11.3081C7.51421 11.0508 7.10221 10.4651 7.10221 9.78206C7.10221 8.86173 7.84855 8.1154 8.76888 8.1154Z" fill="#4AB100"/>
</g>
<defs>
<clipPath id="clip0_6647_6784">
<rect width="16" height="16" fill="white" transform="translate(0.769531 0.115479)"/>
</clipPath>
</defs>
</svg>
