<svg width="20" height="20" viewBox="0 0 20 20" fill="none" xmlns="http://www.w3.org/2000/svg">
<path d="M9.99935 1.66675C5.40435 1.66675 1.66602 5.40508 1.66602 10.0001C1.66602 14.5951 5.40435 18.3334 9.99935 18.3334C14.5943 18.3334 18.3327 14.5951 18.3327 10.0001C18.3327 5.40508 14.5943 1.66675 9.99935 1.66675ZM13.541 10.6251H10.6243V13.5417C10.6243 13.8872 10.3448 14.1667 9.99935 14.1667C9.65393 14.1667 9.37435 13.8872 9.37435 13.5417V10.6251H6.45768C6.11227 10.6251 5.83268 10.3455 5.83268 10.0001C5.83268 9.65466 6.11227 9.37508 6.45768 9.37508H9.37435V6.45841C9.37435 6.113 9.65393 5.83341 9.99935 5.83341C10.3448 5.83341 10.6243 6.113 10.6243 6.45841V9.37508H13.541C13.8864 9.37508 14.166 9.65466 14.166 10.0001C14.166 10.3455 13.8864 10.6251 13.541 10.6251Z" fill="#7E7F81"/>
</svg>
