<svg width="20" height="20" viewBox="0 0 20 20" fill="none" xmlns="http://www.w3.org/2000/svg">
<path d="M10.0013 1.66675C5.3988 1.66675 1.66797 5.39758 1.66797 10.0001C1.66797 14.1784 4.74255 17.638 8.75297 18.2405C9.16005 18.3017 9.57714 17.0834 10.0013 17.0834C10.3842 17.0834 10.7613 18.3076 11.1309 18.2576C15.1992 17.7063 18.3346 14.2197 18.3346 10.0001C18.3346 5.39758 14.6038 1.66675 10.0013 1.66675Z" fill="url(#paint0_linear_6153_3443)"/>
<path opacity="0.05" d="M11.545 8.82038C11.545 8.22705 11.6721 7.51996 12.2771 7.51996H14.0616L14.0612 5.17955L14.0404 4.82455L13.6879 4.77705C13.4346 4.74288 12.9075 4.67163 11.9354 4.67163C9.61497 4.67163 8.33706 6.05288 8.33706 8.5608V9.60163H6.27539V12.6258H8.33706V18.1666C8.87456 18.2754 9.43081 18.3333 10.0004 18.3333C10.5287 18.3333 11.0437 18.2787 11.545 18.1845V12.6254H13.6421L14.1096 9.60121H11.545V8.82038Z" fill="black"/>
<path opacity="0.05" d="M11.3353 8.8203C11.3353 8.25655 11.4574 7.31155 12.2758 7.31155H13.852V5.19155L13.8412 5.00822L13.6608 4.98363C13.412 4.94988 12.8949 4.87988 11.9345 4.87988C9.71659 4.87988 8.54451 6.1528 8.54451 8.56072V9.80988H6.48242V12.4174H8.54409V18.1982C9.01742 18.2815 9.50159 18.3332 9.99909 18.3332C10.4549 18.3332 10.8991 18.2866 11.3353 18.2161V12.417H13.462L13.8649 9.80947H11.3349V8.8203H11.3353Z" fill="black"/>
<path d="M11.1277 12.2088H13.2843L13.6231 10.018H11.1277V8.82046C11.1277 7.91046 11.4252 7.10338 12.2764 7.10338H13.6443V5.19171C13.4039 5.15921 12.8956 5.08838 11.9352 5.08838C9.92932 5.08838 8.75349 6.14755 8.75349 8.56088V10.0184H6.69141V12.2092H8.75307V18.2405C9.16141 18.3013 9.57516 18.3334 9.99974 18.3334C10.3835 18.3334 10.7581 18.3075 11.1277 18.2575V12.2088Z" fill="white"/>
<defs>
<linearGradient id="paint0_linear_6153_3443" x1="4.16505" y1="4.16383" x2="16.9242" y2="16.923" gradientUnits="userSpaceOnUse">
<stop stop-color="#2AA4F4"/>
<stop offset="1" stop-color="#007AD9"/>
</linearGradient>
</defs>
</svg>
