<svg width="20" height="21" viewBox="0 0 20 21" fill="none" xmlns="http://www.w3.org/2000/svg">
<path d="M16.5929 3.00098C16.3607 3.00098 16.1285 3.0888 15.9517 3.26546L9.05469 10.1632L8.74951 11.751L10.3372 11.4458L17.2342 4.54883C17.4055 4.37758 17.5003 4.14964 17.5003 3.90755C17.5003 3.66547 17.4055 3.43713 17.2342 3.26546C17.0573 3.0888 16.8251 3.00098 16.5929 3.00098ZM5.20866 3.41683C3.95288 3.41683 2.91699 4.45271 2.91699 5.7085V15.2918C2.91699 16.5476 3.95288 17.5835 5.20866 17.5835H14.792C16.0478 17.5835 17.0837 16.5476 17.0837 15.2918V8.41683C17.0852 8.3064 17.0648 8.19677 17.0236 8.09429C16.9825 7.99182 16.9213 7.89855 16.8438 7.81991C16.7663 7.74127 16.6739 7.67882 16.572 7.6362C16.4701 7.59358 16.3608 7.57163 16.2503 7.57163C16.1399 7.57163 16.0306 7.59358 15.9287 7.6362C15.8268 7.67882 15.7344 7.74127 15.6569 7.81991C15.5793 7.89855 15.5182 7.99182 15.477 8.09429C15.4358 8.19677 15.4154 8.3064 15.417 8.41683V15.2918C15.417 15.6469 15.147 15.9168 14.792 15.9168H5.20866C4.85361 15.9168 4.58366 15.6469 4.58366 15.2918V5.7085C4.58366 5.35344 4.85361 5.0835 5.20866 5.0835H12.0837C12.1941 5.08506 12.3037 5.06466 12.4062 5.02348C12.5087 4.9823 12.6019 4.92117 12.6806 4.84363C12.7592 4.76609 12.8217 4.6737 12.8643 4.57182C12.9069 4.46994 12.9289 4.3606 12.9289 4.25016C12.9289 4.13973 12.9069 4.03039 12.8643 3.92851C12.8217 3.82663 12.7592 3.73423 12.6806 3.6567C12.6019 3.57916 12.5087 3.51803 12.4062 3.47685C12.3037 3.43567 12.1941 3.41527 12.0837 3.41683H5.20866Z" fill="#4AB100"/>
</svg>
