<svg width="20" height="21" viewBox="0 0 20 21" fill="none" xmlns="http://www.w3.org/2000/svg">
<rect y="0.876465" width="20" height="20" rx="10" fill="#4AB100"/>
<path d="M5.10614 4.41406C5.02129 4.41408 4.93838 4.43942 4.86801 4.48683C4.79764 4.53423 4.74301 4.60156 4.71112 4.68019C4.67922 4.75882 4.67152 4.84517 4.68898 4.92821C4.70644 5.01124 4.74828 5.08718 4.80914 5.1463L5.21106 5.54822C5.25035 5.58914 5.29741 5.62181 5.34947 5.64431C5.40154 5.66682 5.45758 5.6787 5.5143 5.67928C5.57102 5.67986 5.62729 5.66911 5.67981 5.64767C5.73232 5.62623 5.78003 5.59453 5.82014 5.55442C5.86025 5.51431 5.89196 5.4666 5.9134 5.41408C5.93484 5.36156 5.94559 5.3053 5.94501 5.24857C5.94443 5.19185 5.93254 5.13582 5.91004 5.08375C5.88753 5.03168 5.85487 4.98462 5.81395 4.94534L5.41203 4.54341C5.37228 4.50249 5.32474 4.46995 5.27219 4.44773C5.21965 4.42551 5.16319 4.41406 5.10614 4.41406ZM14.8817 4.41462C14.771 4.41784 14.6658 4.46404 14.5886 4.54341L14.1866 4.94534C14.1457 4.98462 14.113 5.03168 14.0905 5.08375C14.068 5.13582 14.0562 5.19185 14.0556 5.24858C14.055 5.3053 14.0657 5.36156 14.0872 5.41408C14.1086 5.4666 14.1403 5.51431 14.1804 5.55442C14.2205 5.59453 14.2683 5.62623 14.3208 5.64767C14.3733 5.66911 14.4296 5.67986 14.4863 5.67928C14.543 5.67871 14.599 5.66682 14.6511 5.64431C14.7032 5.62181 14.7502 5.58914 14.7895 5.54822L15.1914 5.1463C15.253 5.08639 15.2949 5.00932 15.3119 4.92515C15.3289 4.84099 15.3201 4.75366 15.2866 4.6746C15.2531 4.59553 15.1966 4.52841 15.1243 4.48203C15.0521 4.43564 14.9675 4.41215 14.8817 4.41462ZM10.0003 5.05081C7.80686 5.05167 6.02102 6.83026 6.02102 9.02398C6.02102 10.1223 6.47723 11.1641 7.26399 11.9102C7.56357 12.1941 7.75458 12.5738 7.84411 12.9766L7.97679 13.5717H12.0238L12.1565 12.9766C12.246 12.5738 12.4373 12.1941 12.7366 11.9102C13.5236 11.1641 13.9796 10.1223 13.9796 9.02398C13.9796 6.83026 12.1937 5.05167 10.0003 5.05081ZM3.60503 8.17128C3.54853 8.17048 3.49244 8.18092 3.44001 8.20199C3.38759 8.22305 3.33987 8.25433 3.29963 8.294C3.2594 8.33367 3.22745 8.38094 3.20564 8.43306C3.18384 8.48519 3.17261 8.54113 3.17261 8.59763C3.17261 8.65413 3.18384 8.71007 3.20564 8.7622C3.22745 8.81432 3.2594 8.86159 3.29963 8.90126C3.33987 8.94093 3.38759 8.97221 3.44001 8.99327C3.49244 9.01434 3.54853 9.02478 3.60503 9.02398H4.45773C4.51423 9.02478 4.57032 9.01434 4.62275 8.99327C4.67518 8.97221 4.72289 8.94093 4.76313 8.90126C4.80336 8.86159 4.83531 8.81432 4.85712 8.7622C4.87893 8.71007 4.89016 8.65413 4.89016 8.59763C4.89016 8.54113 4.87893 8.48519 4.85712 8.43306C4.83531 8.38094 4.80336 8.33367 4.76313 8.294C4.72289 8.25433 4.67518 8.22305 4.62275 8.20199C4.57032 8.18092 4.51423 8.17048 4.45773 8.17128H3.60503ZM15.5429 8.17128C15.4864 8.17048 15.4303 8.18092 15.3778 8.20199C15.3254 8.22305 15.2777 8.25433 15.2375 8.294C15.1972 8.33367 15.1653 8.38094 15.1435 8.43306C15.1217 8.48519 15.1104 8.54113 15.1104 8.59763C15.1104 8.65413 15.1217 8.71007 15.1435 8.7622C15.1653 8.81432 15.1972 8.86159 15.2375 8.90126C15.2777 8.94093 15.3254 8.97221 15.3778 8.99327C15.4303 9.01434 15.4864 9.02478 15.5429 9.02398H16.3956C16.4521 9.02478 16.5081 9.01434 16.5606 8.99327C16.613 8.97221 16.6607 8.94093 16.7009 8.90126C16.7412 8.86159 16.7731 8.81432 16.7949 8.7622C16.8167 8.71007 16.828 8.65413 16.828 8.59763C16.828 8.54113 16.8167 8.48519 16.7949 8.43306C16.7731 8.38094 16.7412 8.33367 16.7009 8.294C16.6607 8.25433 16.613 8.22305 16.5606 8.20199C16.5081 8.18092 16.4521 8.17048 16.3956 8.17128H15.5429ZM14.4836 11.5177C14.3988 11.5177 14.3159 11.543 14.2455 11.5905C14.1751 11.6379 14.1205 11.7052 14.0886 11.7838C14.0567 11.8624 14.049 11.9488 14.0665 12.0318C14.0839 12.1149 14.1258 12.1908 14.1866 12.2499L14.5886 12.6518C14.6278 12.6928 14.6749 12.7254 14.727 12.7479C14.779 12.7704 14.8351 12.7823 14.8918 12.7829C14.9485 12.7835 15.0048 12.7727 15.0573 12.7513C15.1098 12.7299 15.1575 12.6982 15.1976 12.658C15.2377 12.6179 15.2695 12.5702 15.2909 12.5177C15.3123 12.4652 15.3231 12.4089 15.3225 12.3522C15.3219 12.2955 15.31 12.2394 15.2875 12.1874C15.265 12.1353 15.2324 12.0882 15.1914 12.049L14.7895 11.647C14.7498 11.6061 14.7022 11.5736 14.6497 11.5514C14.5971 11.5291 14.5407 11.5177 14.4836 11.5177ZM5.50418 11.5182C5.39345 11.5215 5.28833 11.5677 5.21106 11.647L4.80914 12.049C4.76822 12.0882 4.73555 12.1353 4.71305 12.1874C4.69055 12.2394 4.67866 12.2955 4.67808 12.3522C4.6775 12.4089 4.68825 12.4652 4.70969 12.5177C4.73113 12.5702 4.76284 12.6179 4.80295 12.658C4.84306 12.6982 4.89077 12.7299 4.94328 12.7513C4.9958 12.7727 5.05207 12.7835 5.10879 12.7829C5.16551 12.7823 5.22154 12.7704 5.27361 12.7479C5.32568 12.7254 5.37274 12.6928 5.41203 12.6518L5.81395 12.2499C5.87546 12.19 5.91745 12.1129 5.93443 12.0288C5.95141 11.9446 5.94258 11.8573 5.90911 11.7782C5.87563 11.6992 5.81907 11.632 5.74682 11.5857C5.67457 11.5393 5.59 11.5158 5.50418 11.5182ZM8.1661 14.4244L8.43479 15.6352C8.53597 16.0905 8.94014 16.4141 9.40629 16.4141H10.5943C11.0604 16.4141 11.4646 16.0905 11.5658 15.6352L11.8345 14.4244H8.1661Z" fill="white"/>
</svg>
