<svg width="20" height="20" viewBox="0 0 20 20" fill="none" xmlns="http://www.w3.org/2000/svg">
<path d="M14.8795 11.7148C14.5365 12.0959 14.0791 12.2865 13.5837 12.2865H10.0776C10.0014 12.2865 9.96329 12.3246 9.92519 12.3627C9.88708 12.4389 9.88708 12.5151 9.92519 12.5914C10.2301 13.2773 10.4206 13.8871 10.5731 14.6493C10.6874 15.0685 10.7255 15.3353 10.7255 15.602C10.7255 16.7072 9.88708 17.1264 9.46787 17.2026C9.39165 17.2026 9.31543 17.2026 9.27732 17.1264C9.23921 17.0883 6.8383 13.6203 5.88555 12.6676C5.08525 11.9054 4.62793 10.9526 4.62793 9.99989V7.48465C4.62793 5.31239 6.41909 3.52123 8.62945 3.52123H12.1737C13.4313 3.52123 14.4602 4.43587 14.6508 5.69349L15.2987 10.3429C15.3749 10.8383 15.2224 11.3337 14.8795 11.7148Z" fill="#A2B6D7"/>
</svg>
