<svg width="20" height="20" viewBox="0 0 20 20" fill="none" xmlns="http://www.w3.org/2000/svg">
<path d="M14.7913 1.66675H5.20801C4.17426 1.66675 3.33301 2.508 3.33301 3.54175V16.4584C3.33301 17.4922 4.17426 18.3334 5.20801 18.3334H14.7913C15.8251 18.3334 16.6663 17.4922 16.6663 16.4584V3.54175C16.6663 2.508 15.8251 1.66675 14.7913 1.66675ZM6.87467 5.00008H9.79134C10.1368 5.00008 10.4163 5.27966 10.4163 5.62508C10.4163 5.9705 10.1368 6.25008 9.79134 6.25008H6.87467C6.52926 6.25008 6.24967 5.9705 6.24967 5.62508C6.24967 5.27966 6.52926 5.00008 6.87467 5.00008ZM11.458 15.0001H6.87467C6.52926 15.0001 6.24967 14.7205 6.24967 14.3751C6.24967 14.0297 6.52926 13.7501 6.87467 13.7501H11.458C11.8034 13.7501 12.083 14.0297 12.083 14.3751C12.083 14.7205 11.8034 15.0001 11.458 15.0001ZM13.1247 12.5001H6.87467C6.52926 12.5001 6.24967 12.2205 6.24967 11.8751C6.24967 11.5297 6.52926 11.2501 6.87467 11.2501H13.1247C13.4701 11.2501 13.7497 11.5297 13.7497 11.8751C13.7497 12.2205 13.4701 12.5001 13.1247 12.5001ZM13.1247 10.0001H6.87467C6.52926 10.0001 6.24967 9.7205 6.24967 9.37508C6.24967 9.02966 6.52926 8.75008 6.87467 8.75008H13.1247C13.4701 8.75008 13.7497 9.02966 13.7497 9.37508C13.7497 9.7205 13.4701 10.0001 13.1247 10.0001Z" fill="white"/>
</svg>
