<svg width="21" height="20" viewBox="0 0 21 20" fill="none" xmlns="http://www.w3.org/2000/svg">
<path d="M16.9671 11.0163C16.9671 10.0404 16.1588 9.24961 15.1634 9.24961C13.7417 9.19003 12.2863 9.16503 10.8009 9.16711C9.31631 9.16503 7.86089 9.19045 6.43839 9.24961C5.44381 9.24961 4.63548 10.0404 4.63548 11.0163C4.57631 11.7879 4.54881 12.5604 4.55089 13.3338C4.54881 14.1059 4.57589 14.8784 4.63589 15.6509C4.63589 16.6279 5.44339 17.4188 6.43839 17.4188C7.86089 17.4771 9.31631 17.5021 10.8009 17.5C12.2859 17.5034 13.7417 17.4767 15.1634 17.4188C16.1588 17.4188 16.9671 16.6279 16.9671 15.6509C17.0263 14.8784 17.0542 14.1059 17.0509 13.3338C17.0542 12.5604 17.0263 11.7879 16.9671 11.0163Z" fill="url(#paint0_linear_6153_3465)"/>
<path opacity="0.05" d="M16.522 13.0383C16.522 12.5279 16.3837 12.1183 16.1116 11.8195C15.8266 11.507 15.4329 11.3491 14.9404 11.3491C14.4599 11.3491 14.0587 11.5116 13.7487 11.832C13.6754 11.9074 13.6104 11.9887 13.5545 12.0754C13.5195 11.9995 13.4783 11.9295 13.4316 11.8654C13.2095 11.5608 12.8791 11.3999 12.4766 11.3999C12.4187 11.3999 12.3612 11.4045 12.3037 11.4133V10.5179C12.3037 10.2412 12.0783 10.0166 11.8012 10.0166H11.0358C10.7583 10.0166 10.5329 10.2416 10.5329 10.5179V11.5195C10.4612 11.4804 10.3833 11.4524 10.2962 11.4524H9.53745C9.41453 11.4524 9.30161 11.4966 9.21411 11.5704C9.12703 11.497 9.01411 11.4524 8.8912 11.4524H8.61703C8.63036 11.407 8.64536 11.362 8.64536 11.3124V10.5191C8.64536 10.2424 8.41995 10.0174 8.14286 10.0174H5.52161C5.24453 10.0174 5.01953 10.2424 5.01953 10.5191V11.3124C5.01953 11.5891 5.24495 11.8137 5.52161 11.8137H5.90245V15.9929C5.90245 16.2695 6.12786 16.4945 6.40495 16.4945H7.2587C7.53411 16.4945 7.75745 16.272 7.76036 15.9974C7.78953 16.0591 7.82328 16.1166 7.86245 16.1691C8.04578 16.4166 8.32995 16.5529 8.66203 16.5529C8.86536 16.5529 9.06161 16.5054 9.25786 16.4083C9.33953 16.4633 9.43703 16.4941 9.5387 16.4941H10.2979C10.4454 16.4941 10.5749 16.4279 10.6666 16.3266C10.7587 16.4279 10.8883 16.4941 11.0358 16.4941H11.8012C11.872 16.4941 11.942 16.4791 12.0062 16.4504C12.1658 16.5129 12.3391 16.5445 12.5224 16.5445C12.9037 16.5445 13.2183 16.3991 13.432 16.1249C13.4829 16.0604 13.5274 15.9899 13.5645 15.9133C13.6058 15.9787 13.652 16.0404 13.7029 16.0983C13.9924 16.4283 14.4004 16.6029 14.882 16.6029C15.4079 16.6029 15.8199 16.4416 16.107 16.1237C16.382 15.8195 16.5216 15.3912 16.5216 14.8512V14.5474C16.5216 14.4629 16.4999 14.3812 16.4608 14.3087C16.5004 14.2362 16.522 14.1537 16.522 14.0691V13.0383Z" fill="black"/>
<path d="M6.85938 2.5H7.74479L8.31563 4.79H8.37104L8.91604 2.50125H9.81063L8.78646 5.84958V8.33333H7.90646V5.95708L6.85938 2.5ZM9.77021 4.96792C9.77021 4.64125 9.87604 4.38 10.0865 4.18708C10.2965 3.99292 10.579 3.89542 10.9344 3.89542C11.2585 3.89542 11.5231 3.9975 11.7294 4.2025C11.9356 4.40583 12.039 4.66958 12.039 4.99167V7.17292C12.039 7.53375 11.9381 7.81792 11.7356 8.02458C11.5331 8.23042 11.2556 8.33333 10.8994 8.33333C10.5565 8.33333 10.284 8.22542 10.0769 8.01375C9.87146 7.80208 9.76938 7.51625 9.76938 7.1575V4.9675H9.77021V4.96792ZM10.5744 7.23667C10.5744 7.35125 10.6019 7.4425 10.6598 7.50583C10.7148 7.56833 10.794 7.6 10.8977 7.6C11.004 7.6 11.0869 7.56792 11.1494 7.5025C11.2115 7.43958 11.2435 7.35 11.2435 7.23667V4.93583C11.2435 4.84417 11.2106 4.76958 11.1473 4.7125C11.0844 4.65625 11.0006 4.62708 10.8977 4.62708C10.8023 4.62708 10.724 4.65625 10.664 4.7125C10.6044 4.76958 10.5744 4.84417 10.5744 4.93583V7.23667ZM14.934 4.00208V8.33333H14.1527V7.80583C14.0085 7.97833 13.859 8.10917 13.7023 8.19792C13.5473 8.2875 13.396 8.33333 13.2498 8.33333C13.0685 8.33333 12.9331 8.27125 12.841 8.145C12.749 8.02 12.704 7.83208 12.704 7.57958V4.00208H13.4848V7.28792C13.4848 7.38625 13.5015 7.45875 13.5348 7.50417C13.566 7.5475 13.621 7.57167 13.6931 7.57167C13.7519 7.57167 13.8244 7.54208 13.9106 7.48208C13.9994 7.42333 14.0798 7.34708 14.1527 7.25542V4.00208H14.934Z" fill="url(#paint1_linear_6153_3465)"/>
<g opacity="0.07">
<path d="M16.3119 13.0384C16.3119 12.5817 16.1919 12.2188 15.9561 11.96C15.7127 11.6929 15.3702 11.5575 14.939 11.5575C14.5169 11.5575 14.1661 11.6988 13.8965 11.9775C13.6648 12.2154 13.5377 12.5167 13.5057 12.8688C13.499 12.5004 13.4186 12.2029 13.2623 11.9884C13.0811 11.74 12.8094 11.6084 12.4757 11.6084C12.3473 11.6084 12.2198 11.6346 12.0944 11.6871V10.5175C12.0944 10.3559 11.9623 10.2246 11.8002 10.2246H11.0348C10.8723 10.2246 10.7402 10.3559 10.7402 10.5175V15.9925C10.7402 16.1542 10.8723 16.2859 11.0348 16.2859H11.8002C11.8727 16.2859 11.939 16.2596 11.9902 16.2163C11.9911 16.2167 11.9919 16.2171 11.9927 16.2175C12.1511 16.2963 12.329 16.3363 12.5215 16.3363C12.8361 16.3363 13.0944 16.2184 13.2677 15.9963C13.4282 15.7929 13.5098 15.51 13.5098 15.1554V15.1C13.5477 15.445 13.6615 15.7359 13.8586 15.9609C14.1077 16.2446 14.4615 16.3946 14.8815 16.3946C15.3461 16.3946 15.7061 16.2563 15.9519 15.9842C16.1911 15.7192 16.3127 15.3379 16.3127 14.8513V14.5475C16.3127 14.4492 16.264 14.3617 16.189 14.3084C16.264 14.255 16.3132 14.1679 16.3132 14.0692V13.0384H16.3119ZM12.1394 15.0475C12.1394 15.0754 12.1382 15.0967 12.1361 15.1129C12.1277 15.1113 12.1207 15.1088 12.1136 15.105C12.109 15.1025 12.1027 15.0992 12.0948 15.0938V12.8434C12.1073 12.8379 12.1165 12.8359 12.1219 12.835C12.129 12.8525 12.1394 12.8929 12.1394 12.9617V15.0475ZM14.8619 13.0325C14.8619 12.9217 14.8757 12.8671 14.8736 12.8546C14.8798 12.8538 14.8898 12.8525 14.9048 12.8525L14.914 12.8325C14.9144 12.8329 14.9419 12.8779 14.9419 13.0325V13.1467H14.8615L14.8619 13.0325ZM14.9432 14.5475V14.8288C14.9432 14.9863 14.9302 15.0696 14.9227 15.1063C14.9148 15.1092 14.9057 15.1134 14.894 15.1179C14.8927 15.1154 14.8623 15.0534 14.8623 14.8296V14.3625H15.0094C14.9677 14.4129 14.9432 14.4775 14.9432 14.5475Z" fill="black"/>
<path d="M8.43573 11.312V10.5187C8.43573 10.357 8.30365 10.2253 8.14156 10.2253H5.52031C5.35823 10.2253 5.22656 10.357 5.22656 10.5187V11.312C5.22656 11.4737 5.35823 11.6049 5.52031 11.6049H6.10948V15.9924C6.10948 16.1541 6.24115 16.2858 6.40365 16.2858H7.2574C7.41948 16.2858 7.55156 16.1541 7.55156 15.9924V11.6049H8.14156C8.30365 11.6049 8.43573 11.4737 8.43573 11.312Z" fill="black"/>
<path d="M10.2947 11.6604H9.53594C9.37344 11.6604 9.24135 11.7921 9.24135 11.9537V14.9075C9.22302 14.9258 9.20385 14.9425 9.18344 14.9587V11.9537C9.18344 11.7921 9.05135 11.6604 8.88927 11.6604H8.13052C7.96802 11.6604 7.83594 11.7921 7.83594 11.9537V15.3287C7.83594 15.6312 7.9001 15.8716 8.0276 16.045C8.17302 16.2412 8.39177 16.3446 8.6601 16.3446C8.85802 16.3446 9.0501 16.29 9.24594 16.1779C9.26094 16.1696 9.27552 16.1608 9.2901 16.1521C9.3426 16.2325 9.43344 16.2858 9.53677 16.2858H10.2959C10.458 16.2858 10.5901 16.1542 10.5901 15.9921L10.5889 11.9537C10.5889 11.7921 10.4568 11.6604 10.2947 11.6604Z" fill="black"/>
</g>
<path d="M11.0355 16.0774H11.8009C11.848 16.0774 11.8867 16.0399 11.8867 15.9924V15.8954C11.9501 15.9512 12.0171 15.9962 12.0863 16.0308C12.2167 16.0958 12.3626 16.1279 12.5221 16.1279C12.7726 16.1279 12.9688 16.0412 13.1046 15.867C13.2355 15.7012 13.3017 15.462 13.3017 15.1554L13.3009 12.9162C13.3009 12.5695 13.2313 12.2983 13.0946 12.1108C12.9526 11.9158 12.7434 11.8166 12.4763 11.8166C12.3446 11.8166 12.213 11.8524 12.0842 11.9233C12.0159 11.962 11.9492 12.0095 11.8867 12.0662V10.5174C11.8867 10.4708 11.848 10.4329 11.8009 10.4329H11.0355C10.9876 10.4329 10.9492 10.4708 10.9492 10.5174V15.9924C10.9492 16.0399 10.988 16.0774 11.0355 16.0774ZM11.888 12.7412C11.9246 12.7045 11.9596 12.6783 11.9955 12.6608C12.1201 12.5983 12.2301 12.6274 12.2859 12.7016C12.3271 12.7566 12.3492 12.8462 12.3492 12.962V15.0474C12.3492 15.1812 12.3234 15.2429 12.2996 15.2724C12.2901 15.2858 12.2601 15.3237 12.1638 15.3237C12.113 15.3237 12.0659 15.3133 12.0196 15.2904C11.9784 15.2691 11.9338 15.2358 11.888 15.1895V12.7412Z" fill="white"/>
<path d="M16.103 14.8513V14.5475C16.103 14.5 16.0651 14.4625 16.0176 14.4625H15.2376C15.1901 14.4625 15.1513 14.5 15.1513 14.5475V14.8288C15.1513 15.1238 15.1088 15.2163 15.0934 15.2405C15.0596 15.2859 14.9938 15.3088 14.898 15.3088C14.7788 15.3088 14.7376 15.2625 14.7155 15.2259C14.688 15.1817 14.6538 15.0763 14.6538 14.8296V14.1542H16.0176C16.0651 14.1542 16.1034 14.1163 16.1038 14.0692L16.1034 13.0384C16.1034 12.6355 16.0017 12.3196 15.8017 12.1005C15.5996 11.8788 15.3092 11.7659 14.9384 11.7659C14.5759 11.7659 14.2742 11.8863 14.0451 12.123C13.8151 12.3588 13.6992 12.6663 13.6992 13.038V14.8513C13.6992 15.2592 13.8055 15.5855 14.0138 15.8234C14.2242 16.063 14.5167 16.1863 14.8801 16.1863C15.2834 16.1863 15.5917 16.0709 15.7959 15.8446C15.9992 15.6196 16.103 15.2863 16.103 14.8513ZM14.6534 13.0325C14.6534 12.8438 14.6871 12.7571 14.7138 12.7192C14.7513 12.6684 14.8134 12.6442 14.9046 12.6442C14.9921 12.6442 15.0521 12.6675 15.0876 12.7171C15.1159 12.7596 15.1505 12.8467 15.1505 13.0325V13.355H14.6534V13.0325Z" fill="white"/>
<path d="M7.34193 15.9926V11.3968H8.14026C8.18818 11.3968 8.22609 11.3584 8.22609 11.3122V10.5188C8.22609 10.4722 8.18776 10.4338 8.14026 10.4338H5.51901C5.47193 10.4338 5.43359 10.4722 5.43359 10.5188V11.3122C5.43359 11.3584 5.47193 11.3968 5.51901 11.3968H6.31651V15.9926C6.31651 16.0388 6.35484 16.0776 6.40234 16.0776H7.25609C7.30359 16.0776 7.34193 16.0388 7.34193 15.9926Z" fill="white"/>
<path d="M10.3812 11.9537C10.3812 11.907 10.3428 11.8687 10.2953 11.8687H9.53659C9.48867 11.8687 9.45034 11.907 9.45034 11.9537V14.9882C9.39242 15.0574 9.32659 15.1174 9.25326 15.1653C9.16284 15.2266 9.11284 15.2357 9.09117 15.2357C9.02659 15.2357 9.01117 15.2149 9.00576 15.2078C8.99409 15.1916 8.97575 15.1503 8.97575 15.0487V11.9537C8.97575 11.907 8.93742 11.8687 8.88992 11.8687H8.13117C8.08325 11.8687 8.04492 11.907 8.04492 11.9537V15.3287C8.04492 15.5862 8.09617 15.7857 8.19534 15.9207C8.30076 16.0628 8.45742 16.1362 8.66076 16.1362C8.82076 16.1362 8.97867 16.0907 9.14409 15.9962C9.24909 15.937 9.35034 15.8599 9.45159 15.7628V15.9924C9.45159 16.0387 9.48992 16.0774 9.53742 16.0774H10.2966C10.3441 16.0774 10.3824 16.0387 10.3824 15.9924L10.3812 15.992V11.9537Z" fill="white"/>
<defs>
<linearGradient id="paint0_linear_6153_3465" x1="3.89298" y1="8.02003" x2="21.8717" y2="21.85" gradientUnits="userSpaceOnUse">
<stop stop-color="#F52537"/>
<stop offset="0.293" stop-color="#F32536"/>
<stop offset="0.465" stop-color="#EA2434"/>
<stop offset="0.605" stop-color="#DC2231"/>
<stop offset="0.729" stop-color="#C8202C"/>
<stop offset="0.841" stop-color="#AE1E25"/>
<stop offset="0.944" stop-color="#8F1A1D"/>
<stop offset="1" stop-color="#7A1818"/>
</linearGradient>
<linearGradient id="paint1_linear_6153_3465" x1="7.31396" y1="2.58792" x2="15.6119" y2="9.82208" gradientUnits="userSpaceOnUse">
<stop stop-color="#4C4C4C"/>
<stop offset="1" stop-color="#343434"/>
</linearGradient>
</defs>
</svg>
