<svg width="30" height="31" viewBox="0 0 30 31" fill="none" xmlns="http://www.w3.org/2000/svg">
<path d="M15 3C8.1075 3 2.5 8.6075 2.5 15.5C2.5 22.3925 8.1075 28 15 28C21.8925 28 27.5 22.3925 27.5 15.5C27.5 8.6075 21.8925 3 15 3ZM20.3125 16.4375H15.9375V20.8125C15.9375 21.3306 15.5181 21.75 15 21.75C14.4819 21.75 14.0625 21.3306 14.0625 20.8125V16.4375H9.6875C9.16938 16.4375 8.75 16.0181 8.75 15.5C8.75 14.9819 9.16938 14.5625 9.6875 14.5625H14.0625V10.1875C14.0625 9.66938 14.4819 9.25 15 9.25C15.5181 9.25 15.9375 9.66938 15.9375 10.1875V14.5625H20.3125C20.8306 14.5625 21.25 14.9819 21.25 15.5C21.25 16.0181 20.8306 16.4375 20.3125 16.4375Z" fill="#141A28"/>
</svg>
