<svg width="30" height="30" viewBox="0 0 30 30" fill="none" xmlns="http://www.w3.org/2000/svg">
<path d="M23.0625 12.1875C22.5 11.5625 21.75 11.25 20.9375 11.25H15.1875C15.0625 11.25 15 11.1875 14.9375 11.125C14.875 11 14.875 10.875 14.9375 10.75C15.4375 9.625 15.75 8.625 16 7.375C16.1875 6.6875 16.25 6.25 16.25 5.8125C16.25 4 14.875 3.3125 14.1875 3.1875C14.0625 3.1875 13.9375 3.1875 13.875 3.3125C13.8125 3.375 9.875 9.0625 8.3125 10.625C7 11.875 6.25 13.4375 6.25 15V19.125C6.25 22.6875 9.1875 25.625 12.8125 25.625H18.625C20.6875 25.625 22.375 24.125 22.6875 22.0625L23.75 14.4375C23.875 13.625 23.625 12.8125 23.0625 12.1875Z" fill="#A2B6D7"/>
</svg>
