<svg width="34" height="34" viewBox="0 0 34 34" fill="none" xmlns="http://www.w3.org/2000/svg">
<path d="M16.9999 2.83331C9.17567 2.83331 2.83325 9.17573 2.83325 17C2.83325 24.1031 8.06004 29.9844 14.8778 31.0087C15.5698 31.1128 16.2788 29.0416 16.9999 29.0416C17.6509 29.0416 18.2919 31.1227 18.9202 31.0377C25.8364 30.1006 31.1666 24.1733 31.1666 17C31.1666 9.17573 24.8242 2.83331 16.9999 2.83331Z" fill="url(#paint0_linear_4021_4053)"/>
<path opacity="0.05" d="M19.6258 14.9947C19.6258 13.986 19.8418 12.784 20.8703 12.784H23.9041L23.9034 8.80529L23.868 8.20179L23.2687 8.12104C22.8381 8.06296 21.942 7.94183 20.2895 7.94183C16.3448 7.94183 14.1723 10.29 14.1723 14.5534V16.3228H10.6675V21.4639H14.1723V30.8833C15.0861 31.0682 16.0317 31.1667 17 31.1667C17.8981 31.1667 18.7736 31.0739 19.6258 30.9138V21.4632H23.1908L23.9856 16.3221H19.6258V14.9947Z" fill="black"/>
<path opacity="0.05" d="M19.2717 14.9947C19.2717 14.0364 19.4792 12.4299 20.8704 12.4299H23.55V8.82585L23.5316 8.51419L23.2249 8.4724C22.802 8.41502 21.923 8.29602 20.2903 8.29602C16.5198 8.29602 14.5273 10.46 14.5273 14.5534V16.677H11.0217V21.1098H14.5266V30.9372C15.3312 31.0789 16.1543 31.1667 17.0001 31.1667C17.775 31.1667 18.5301 31.0874 19.2717 30.9676V21.1091H22.887L23.572 16.6763H19.271V14.9947H19.2717Z" fill="black"/>
<path d="M18.9174 20.7549H22.5837L23.1596 17.0304H18.9174V14.9947C18.9174 13.4477 19.4231 12.0756 20.8702 12.0756H23.1957V8.82581C22.787 8.77056 21.9228 8.65015 20.2901 8.65015C16.8802 8.65015 14.8813 10.4507 14.8813 14.5534V17.0311H11.3757V20.7556H14.8806V31.0087C15.5747 31.1121 16.2781 31.1666 16.9999 31.1666C17.6523 31.1666 18.2891 31.1227 18.9174 31.0377V20.7549Z" fill="white"/>
<defs>
<linearGradient id="paint0_linear_4021_4053" x1="7.07829" y1="7.07835" x2="28.7689" y2="28.7689" gradientUnits="userSpaceOnUse">
<stop stop-color="#2AA4F4"/>
<stop offset="1" stop-color="#007AD9"/>
</linearGradient>
</defs>
</svg>
