<svg width="48" height="48" viewBox="0 0 48 48" fill="none" xmlns="http://www.w3.org/2000/svg">
<path d="M19.3894 5.00197C18.7745 5.0055 18.1511 5.04496 17.5223 5.12306C10.6979 5.97028 5.17532 11.3675 4.17265 18.1719C3.68268 21.4986 4.35919 24.6352 5.71561 27.3555L4.04374 34.1406C3.98185 34.3913 3.9857 34.6537 4.05491 34.9024C4.12412 35.1511 4.25635 35.3778 4.43881 35.5604C4.62128 35.7431 4.84779 35.8756 5.09644 35.9451C5.3451 36.0145 5.60748 36.0187 5.85819 35.957L12.6492 34.2871C15.3698 35.6425 18.5073 36.3172 21.8328 35.8262C28.6351 34.8224 34.0305 29.3019 34.8777 22.4785C35.9722 13.6756 29.5665 6.03336 21.2078 5.09767C20.6108 5.03084 20.0044 4.99844 19.3894 5.00197ZM36.991 14.5098C37.901 17.1498 38.2004 19.9996 37.8504 22.8496C36.8404 31.0296 30.4303 37.5891 22.2703 38.7891C21.3503 38.9291 20.4208 39 19.5008 39C19.0108 39 18.5103 38.9797 18.0203 38.9297C20.2303 40.9697 23.0607 42.3601 26.1707 42.8301C29.4107 43.3001 32.6308 42.7903 35.5008 41.3203L42.1414 42.961C42.2614 42.991 42.3808 43 42.5008 43C42.8908 43 43.2813 42.8506 43.5613 42.5606C43.9313 42.1906 44.0817 41.6506 43.9617 41.1406L42.3211 34.5C43.7911 31.63 44.3108 28.4199 43.8308 25.1699C43.1708 20.7099 40.601 16.8798 36.991 14.5098Z" fill="#4AB100"/>
</svg>
