<svg width="20" height="21" viewBox="0 0 20 21" fill="none" xmlns="http://www.w3.org/2000/svg">
<rect y="0.876465" width="20" height="20" rx="10" fill="#141A28"/>
<path d="M10.3284 5C10.1766 5 10.0264 5.00748 9.87846 5.02148C9.71196 5.03715 9.56359 5.1308 9.48085 5.27213C9.39778 5.41347 9.39102 5.58477 9.46208 5.73177C9.69518 6.21477 9.81342 6.72566 9.81342 7.24999C9.81342 9.04998 8.4267 10.5764 6.58768 10.8014C6.42153 10.8214 6.27607 10.9188 6.19746 11.0625C6.11884 11.2058 6.11691 11.3778 6.19209 11.5228C6.45849 12.0351 6.82154 12.49 7.27091 12.875C7.36086 12.952 7.47079 12.9849 7.58202 12.9909V13H13.0747V12.9954C13.1863 12.9894 13.2969 12.953 13.3871 12.8756C14.3885 12.0193 14.9628 10.7886 14.9628 9.49998C14.9628 7.01866 12.8838 5 10.3284 5ZM5.52227 14C5.45404 13.999 5.38629 14.0113 5.32297 14.036C5.25965 14.0607 5.20202 14.0974 5.15342 14.1439C5.10483 14.1904 5.06624 14.2458 5.0399 14.307C5.01356 14.3681 5 14.4337 5 14.5C5 14.5662 5.01356 14.6318 5.0399 14.693C5.06624 14.7541 5.10483 14.8095 5.15342 14.856C5.20202 14.9026 5.25965 14.9392 5.32297 14.9639C5.38629 14.9887 5.45404 15.0009 5.52227 15H15.4777C15.546 15.0009 15.6137 14.9887 15.677 14.9639C15.7404 14.9392 15.798 14.9026 15.8466 14.856C15.8952 14.8095 15.9338 14.7541 15.9601 14.693C15.9864 14.6318 16 14.5662 16 14.5C16 14.4337 15.9864 14.3681 15.9601 14.307C15.9338 14.2458 15.8952 14.1904 15.8466 14.1439C15.798 14.0974 15.7404 14.0607 15.677 14.036C15.6137 14.0113 15.546 13.999 15.4777 14H5.52227ZM7.58202 16C7.51379 15.999 7.44604 16.0113 7.38272 16.036C7.3194 16.0607 7.26177 16.0974 7.21317 16.1439C7.16458 16.1904 7.12599 16.2458 7.09965 16.307C7.07331 16.3681 7.05975 16.4337 7.05975 16.5C7.05975 16.5662 7.07331 16.6318 7.09965 16.6929C7.12599 16.7541 7.16458 16.8095 7.21317 16.856C7.26177 16.9026 7.3194 16.9392 7.38272 16.9639C7.44604 16.9886 7.51379 17.0009 7.58202 17H13.418C13.4862 17.0009 13.554 16.9886 13.6173 16.9639C13.6806 16.9392 13.7382 16.9026 13.7868 16.856C13.8354 16.8095 13.874 16.7541 13.9004 16.6929C13.9267 16.6318 13.9403 16.5662 13.9403 16.5C13.9403 16.4337 13.9267 16.3681 13.9004 16.307C13.874 16.2458 13.8354 16.1904 13.7868 16.1439C13.7382 16.0974 13.6806 16.0607 13.6173 16.036C13.554 16.0113 13.4862 15.999 13.418 16H7.58202Z" fill="white"/>
</svg>
