<svg width="20" height="20" viewBox="0 0 20 20" fill="none" xmlns="http://www.w3.org/2000/svg">
<path d="M16.2424 2.90453C16.0222 2.90973 15.813 3.00189 15.6605 3.16088L9.9997 8.82169L4.3389 3.16088C4.26114 3.08095 4.16814 3.01744 4.0654 2.97411C3.96266 2.93077 3.85226 2.9085 3.74075 2.9086C3.57504 2.9088 3.41316 2.9584 3.27578 3.05106C3.13839 3.14372 3.03175 3.27522 2.96947 3.42878C2.90719 3.58234 2.8921 3.75098 2.92613 3.91316C2.96016 4.07534 3.04176 4.22369 3.16051 4.33926L8.82132 10.0001L3.16051 15.6609C3.08053 15.7377 3.01668 15.8296 2.97269 15.9314C2.92871 16.0332 2.90547 16.1427 2.90434 16.2536C2.90321 16.3645 2.92422 16.4744 2.96612 16.5771C3.00803 16.6797 3.07 16.773 3.1484 16.8514C3.2268 16.9298 3.32005 16.9917 3.4227 17.0337C3.52535 17.0756 3.63533 17.0966 3.74619 17.0954C3.85706 17.0943 3.96659 17.0711 4.06836 17.0271C4.17014 16.9831 4.26211 16.9192 4.3389 16.8393L9.9997 11.1785L15.6605 16.8393C15.7373 16.9192 15.8293 16.9831 15.931 17.0271C16.0328 17.0711 16.1423 17.0943 16.2532 17.0954C16.3641 17.0966 16.4741 17.0756 16.5767 17.0337C16.6794 16.9917 16.7726 16.9298 16.851 16.8514C16.9294 16.773 16.9914 16.6797 17.0333 16.5771C17.0752 16.4744 17.0962 16.3645 17.0951 16.2536C17.0939 16.1427 17.0707 16.0332 17.0267 15.9314C16.9827 15.8296 16.9189 15.7377 16.8389 15.6609L11.1781 10.0001L16.8389 4.33926C16.9602 4.22299 17.0434 4.07277 17.0778 3.90833C17.1122 3.74389 17.0961 3.57289 17.0316 3.41776C16.9671 3.26263 16.8573 3.13061 16.7164 3.03903C16.5756 2.94744 16.4103 2.90056 16.2424 2.90453Z" fill="#E53935"/>
</svg>
