<svg width="20" height="21" viewBox="0 0 20 21" fill="none" xmlns="http://www.w3.org/2000/svg">
<path d="M2.64676 17.5803C2.66717 17.5824 2.68801 17.5833 2.70842 17.5833C3.00342 17.5833 3.26176 17.3753 3.32092 17.0808C4.19509 12.7074 8.75301 12.3962 10.833 12.4928V15.7083C10.833 15.9608 10.9851 16.1887 11.2188 16.2858C11.4522 16.382 11.7209 16.3291 11.9001 16.1503L17.7334 10.317C17.9776 10.0733 17.9776 9.67701 17.7334 9.43326L11.9001 3.59993C11.7213 3.42118 11.4526 3.36743 11.2188 3.46451C10.9851 3.56076 10.833 3.78868 10.833 4.0416V7.24785C8.48592 7.55451 2.08301 9.11118 2.08301 16.9583C2.08301 17.2795 2.32676 17.5487 2.64676 17.5803Z" fill="#141A28"/>
</svg>
