<svg width="35" height="34" viewBox="0 0 35 34" fill="none" xmlns="http://www.w3.org/2000/svg">
<path d="M26.1642 16.9893C26.1642 12.835 29.5402 10.9614 29.6818 10.8722C27.843 8.0438 24.8722 7.70805 23.7587 7.70734C21.1783 7.70734 18.8974 9.13959 17.6777 9.13959C16.4048 9.13959 14.5483 7.63721 12.4622 7.70734C9.74012 7.76046 7.24678 9.36909 5.85066 11.7385C4.86112 13.4356 4.47153 15.4338 4.50766 17.4668C4.50907 17.5468 4.5197 17.6283 4.52182 17.7083H26.2266C26.1975 17.4753 26.172 17.2387 26.1642 16.9893Z" fill="#262626"/>
<path d="M22.1502 5.00296C23.3516 3.67696 24.0238 1.85654 23.9175 0C22.2558 0 20.3291 0.971833 19.1093 2.40408C18.1545 3.58842 17.1296 5.44496 17.5007 7.30079C19.2156 7.51329 21.0721 6.43521 22.1502 5.00296Z" fill="#262626"/>
<path d="M12.9037 31.875C14.8665 31.875 15.5911 30.566 18.1546 30.566C20.5416 30.566 21.284 31.875 23.3523 31.875C25.5269 31.875 26.9591 29.8952 28.249 27.9317C29.8746 25.6523 30.4236 23.4777 30.4937 23.3885C30.4271 23.3885 26.7488 21.8925 26.2253 17.7084H4.52197C4.63318 21.4703 6.10014 25.3513 7.8306 27.8439C9.19131 29.789 10.7291 31.875 12.9037 31.875Z" fill="#141A28"/>
</svg>
