<svg width="20" height="20" viewBox="0 0 20 20" fill="none" xmlns="http://www.w3.org/2000/svg">
<path d="M17.6962 1.66096C17.5339 1.6657 17.3798 1.73341 17.2665 1.84977L11.6774 7.43896C11.6753 7.43807 11.6737 7.43659 11.6717 7.4357L6.18582 12.9207C6.1868 12.923 6.18809 12.925 6.18907 12.9272L1.84988 17.2664C1.7899 17.324 1.74201 17.393 1.70902 17.4693C1.67603 17.5457 1.6586 17.6278 1.65776 17.711C1.65691 17.7941 1.67267 17.8766 1.7041 17.9536C1.73553 18.0306 1.782 18.1005 1.8408 18.1593C1.8996 18.2181 1.96954 18.2646 2.04652 18.296C2.12351 18.3274 2.20599 18.3432 2.28914 18.3423C2.37229 18.3415 2.45444 18.3241 2.53077 18.2911C2.6071 18.2581 2.67608 18.2102 2.73367 18.1502L6.8808 14.0031C7.64416 14.8683 8.75803 15.4167 10.0001 15.4167C12.2976 15.4167 14.1668 13.5475 14.1668 11.25C14.1668 10.0081 13.6183 8.89415 12.7532 8.13069L14.6054 6.27848C16.627 7.46213 18.1954 9.37368 18.7713 11.6121C18.8421 11.8955 19.0959 12.0833 19.3751 12.0833C19.4251 12.0833 19.4789 12.0788 19.5289 12.0622C19.8664 11.9788 20.0665 11.6379 19.979 11.3045C19.3373 8.80343 17.6923 6.69711 15.5323 5.35156L18.1503 2.73356C18.2405 2.64574 18.3021 2.53275 18.3269 2.40937C18.3518 2.286 18.3389 2.15798 18.2898 2.04208C18.2408 1.92617 18.1578 1.82778 18.0519 1.75978C17.946 1.69178 17.822 1.65734 17.6962 1.66096ZM9.99604 3.74999C5.34187 3.74999 1.14627 6.92535 0.0212659 11.3045C-0.0662341 11.6379 0.133798 11.9788 0.471298 12.0622C0.804632 12.1497 1.14561 11.9496 1.22895 11.6121C2.19978 7.8413 5.97104 4.99999 9.99604 4.99999C10.7085 4.99999 11.4124 5.08714 12.0916 5.25797L13.117 4.23339C12.1211 3.91673 11.071 3.74999 9.99604 3.74999ZM10.0001 7.08333C7.70261 7.08333 5.83344 8.95249 5.83344 11.25C5.83344 11.3321 5.84065 11.4129 5.84565 11.4941L10.2442 7.09553C10.163 7.09053 10.0822 7.08333 10.0001 7.08333ZM10.6804 10.2034C11.0228 10.4264 11.2501 10.8109 11.2501 11.25C11.2501 11.9404 10.6905 12.5 10.0001 12.5C9.56105 12.5 9.17653 12.2727 8.95356 11.9303L10.6804 10.2034Z" fill="#7E7F81"/>
</svg>
