<svg width="35" height="34" viewBox="0 0 35 34" fill="none" xmlns="http://www.w3.org/2000/svg">
<path d="M31.391 14.2254H30.2499V14.1666H17.4999V19.8333H25.5062C24.3382 23.132 21.1995 25.5 17.4999 25.5C12.8058 25.5 8.99992 21.6941 8.99992 17C8.99992 12.3059 12.8058 8.49998 17.4999 8.49998C19.6667 8.49998 21.638 9.3174 23.139 10.6526L27.146 6.64556C24.6158 4.28752 21.2314 2.83331 17.4999 2.83331C9.67638 2.83331 3.33325 9.17644 3.33325 17C3.33325 24.8235 9.67638 31.1666 17.4999 31.1666C25.3235 31.1666 31.6666 24.8235 31.6666 17C31.6666 16.0501 31.5688 15.1229 31.391 14.2254Z" fill="#FBC02D"/>
<path d="M4.9668 10.4061L9.62126 13.8196C10.8807 10.7015 13.9308 8.49998 17.5 8.49998C19.6668 8.49998 21.6381 9.3174 23.1391 10.6526L27.1461 6.64556C24.616 4.28752 21.2316 2.83331 17.5 2.83331C12.0586 2.83331 7.33971 5.90535 4.9668 10.4061Z" fill="#E53935"/>
<path d="M17.5001 31.1667C21.1593 31.1667 24.4842 29.7663 26.9981 27.489L22.6135 23.7787C21.1912 24.8561 19.4232 25.5 17.5001 25.5C13.8153 25.5 10.6866 23.1505 9.50793 19.8716L4.88818 23.431C7.23277 28.0188 11.9942 31.1667 17.5001 31.1667Z" fill="#4CAF50"/>
<path d="M31.3911 14.2255L31.3798 14.1667H30.25H17.5V19.8334H25.5063C24.9453 21.4179 23.926 22.7843 22.6113 23.7795L22.6135 23.7781L26.998 27.4883C26.6878 27.7702 31.6667 24.0834 31.6667 17C31.6667 16.0501 31.5689 15.1229 31.3911 14.2255Z" fill="#1565C0"/>
</svg>
