<svg width="19" height="18" viewBox="0 0 19 18" fill="none" xmlns="http://www.w3.org/2000/svg">
<path d="M14.0817 3.07731L2.49273 8.87181C2.3161 8.95994 2.1991 9.13431 2.18335 9.33119C2.16798 9.52769 2.25685 9.71819 2.41735 9.83294L4.28748 11.1687L14.0817 3.07731ZM8.3446 14.3483L11.4132 16.5799C11.5107 16.6508 11.627 16.6876 11.7444 16.6876C11.8021 16.6876 11.8599 16.6789 11.9161 16.6606C12.0867 16.6058 12.2214 16.4731 12.278 16.3028L16.5312 3.54231L8.3446 14.3483ZM7.73823 13.9073L16.6089 2.19756C16.5582 2.15406 16.5005 2.12444 16.4401 2.10156L4.9036 11.6318L5.96073 14.8028C6.02673 15.0012 6.19773 15.1467 6.40436 15.1801C6.6106 15.2138 6.81911 15.1298 6.94436 14.9622L7.73673 13.9058L7.73823 13.9073Z" fill="white"/>
</svg>
