<svg width="22" height="22" viewBox="0 0 22 22" fill="none" xmlns="http://www.w3.org/2000/svg">
<path d="M4.125 2.75C3.11254 2.75 2.75 3.57087 2.75 4.58333V6.41667C2.75 6.92313 3.16021 7.33333 3.66667 7.33333H5.5C6.00646 7.33333 6.41667 6.92313 6.41667 6.41667V3.66667C6.41667 3.16021 6.00646 2.75 5.5 2.75H4.125ZM8.70833 2.75C8.20188 2.75 7.79167 3.16021 7.79167 3.66667V6.41667C7.79167 6.92313 8.20188 7.33333 8.70833 7.33333H13.2917C13.7981 7.33333 14.2083 6.92313 14.2083 6.41667V3.66667C14.2083 3.16021 13.7981 2.75 13.2917 2.75H8.70833ZM16.5 2.75C15.9935 2.75 15.5833 3.16021 15.5833 3.66667V6.41667C15.5833 6.92313 15.9935 7.33333 16.5 7.33333H18.3333C18.8398 7.33333 19.25 6.92313 19.25 6.41667V4.58333C19.25 3.57087 18.4291 2.75 17.4167 2.75H16.5ZM3.66667 8.70833C3.16021 8.70833 2.75 9.11854 2.75 9.625V12.375C2.75 12.8815 3.16021 13.2917 3.66667 13.2917H9.39583C9.90229 13.2917 10.3125 12.8815 10.3125 12.375V9.625C10.3125 9.11854 9.90229 8.70833 9.39583 8.70833H3.66667ZM12.6042 8.70833C12.0977 8.70833 11.6875 9.11854 11.6875 9.625V11.9749C12.7751 10.8111 14.3234 10.0833 16.0417 10.0833C17.2228 10.0833 18.3237 10.4275 19.25 11.0206V9.625C19.25 9.11854 18.8398 8.70833 18.3333 8.70833H12.6042ZM16.0417 11C13.2573 11 11 13.2573 11 16.0417C11 18.826 13.2573 21.0833 16.0417 21.0833C18.826 21.0833 21.0833 18.826 21.0833 16.0417C21.0833 13.2573 18.826 11 16.0417 11ZM15.1957 13.2917H17.2054C17.4584 13.2917 17.6637 13.4965 17.6637 13.75C17.6637 14.0035 17.4584 14.2083 17.2054 14.2083H15.5851L15.4356 15.125H16.0417C17.0528 15.125 17.875 15.9473 17.875 16.9583C17.875 17.952 17.0092 18.7917 15.9844 18.7917C14.9224 18.7917 14.4142 18.3613 14.3596 18.3118C14.1717 18.1427 14.1574 17.8525 14.3265 17.6646C14.4933 17.479 14.7773 17.4612 14.9657 17.6243C14.9904 17.6436 15.2973 17.875 15.9844 17.875C16.5032 17.875 16.9583 17.4465 16.9583 16.9583C16.9583 16.4528 16.5472 16.0417 16.0417 16.0417H14.8958C14.7615 16.0417 14.6338 15.9823 14.5467 15.8796C14.4596 15.777 14.4222 15.6415 14.4438 15.509L14.7437 13.6757C14.7799 13.4543 14.9711 13.2917 15.1957 13.2917ZM3.66667 14.6667C3.16021 14.6667 2.75 15.0769 2.75 15.5833V17.4167C2.75 18.4291 3.57087 19.25 4.58333 19.25H5.5C6.00646 19.25 6.41667 18.8398 6.41667 18.3333V15.5833C6.41667 15.0769 6.00646 14.6667 5.5 14.6667H3.66667ZM8.70833 14.6667C8.20188 14.6667 7.79167 15.0769 7.79167 15.5833V18.3333C7.79167 18.8398 8.20188 19.25 8.70833 19.25H11.0206C10.4275 18.3237 10.0833 17.2228 10.0833 16.0417C10.0833 15.5682 10.1386 15.108 10.2427 14.6667H8.70833Z" fill="#AFB0B1"/>
</svg>
