<svg width="20" height="20" viewBox="0 0 20 20" fill="none" xmlns="http://www.w3.org/2000/svg">
<path d="M10.0003 1.66577C5.40545 1.66577 1.66699 5.40423 1.66699 9.9991C1.66699 11.3638 2.02645 12.6394 2.60938 13.7768L1.70605 17.0108C1.49566 17.7622 2.23863 18.5052 2.99023 18.295L6.22673 17.3917C7.36313 17.9734 8.63689 18.3324 10.0003 18.3324C14.5952 18.3324 18.3337 14.594 18.3337 9.9991C18.3337 5.40423 14.5952 1.66577 10.0003 1.66577ZM13.3337 6.24992C13.7941 6.24992 14.167 6.62284 14.167 7.08325V12.9166C14.167 13.377 13.7941 13.7499 13.3337 13.7499C12.8732 13.7499 12.5003 13.377 12.5003 12.9166V7.08325C12.5003 6.62284 12.8732 6.24992 13.3337 6.24992ZM6.66699 7.91658C7.12741 7.91658 7.50033 8.2895 7.50033 8.74992V12.9166C7.50033 13.377 7.12741 13.7499 6.66699 13.7499C6.20658 13.7499 5.83366 13.377 5.83366 12.9166V8.74992C5.83366 8.2895 6.20658 7.91658 6.66699 7.91658ZM10.0003 9.58325C10.4607 9.58325 10.8337 9.95617 10.8337 10.4166V12.9166C10.8337 13.377 10.4607 13.7499 10.0003 13.7499C9.53991 13.7499 9.16699 13.377 9.16699 12.9166V10.4166C9.16699 9.95617 9.53991 9.58325 10.0003 9.58325Z" fill="white"/>
</svg>
