<svg width="22" height="22" viewBox="0 0 22 22" fill="none" xmlns="http://www.w3.org/2000/svg">
<path d="M11.0001 1.83325C8.47692 1.83325 6.41675 3.89342 6.41675 6.41659C6.41675 8.93975 8.47692 10.9999 11.0001 10.9999C13.5232 10.9999 15.5834 8.93975 15.5834 6.41659C15.5834 3.89342 13.5232 1.83325 11.0001 1.83325ZM5.72925 12.8333C4.59831 12.8333 3.66675 13.7648 3.66675 14.8958V15.4454C3.66675 16.7933 4.52141 18.0023 5.82503 18.8337C7.12866 19.665 8.9123 20.1666 11.0001 20.1666C13.0879 20.1666 14.8715 19.665 16.1751 18.8337C17.4788 18.0023 18.3334 16.7933 18.3334 15.4454V14.8958C18.3334 13.7648 17.4019 12.8333 16.2709 12.8333H5.72925Z" fill="#AFB0B1"/>
</svg>
