<svg width="22" height="22" viewBox="0 0 22 22" fill="none" xmlns="http://www.w3.org/2000/svg">
<path d="M3.89575 2.29175C3.51625 2.29175 3.20825 2.59929 3.20825 2.97925V3.66675H2.52075C2.14125 3.66675 1.83325 3.97475 1.83325 4.35425V18.5626C1.83325 18.9421 2.14125 19.2501 2.52075 19.2501H19.4791C19.8586 19.2501 20.1666 18.9421 20.1666 18.5626V4.35425C20.1666 3.97475 19.8586 3.66675 19.4791 3.66675H18.7916V2.97925C18.7916 2.59929 18.4836 2.29175 18.1041 2.29175H13.7499C12.6247 2.29175 11.6274 2.83787 10.9999 3.6757C10.3725 2.83787 9.37513 2.29175 8.24992 2.29175H3.89575ZM4.58325 3.66675H8.24992C9.38704 3.66675 10.3124 4.59212 10.3124 5.72925V15.8126C10.3124 16.1925 10.6204 16.5001 10.9999 16.5001C11.3794 16.5001 11.6874 16.1925 11.6874 15.8126V5.72925C11.6874 4.59212 12.6128 3.66675 13.7499 3.66675H17.4166V16.5001H13.7499C12.638 16.5001 11.6343 17.0387 10.9999 17.8894C10.3656 17.0387 9.36184 16.5001 8.24992 16.5001H4.58325V3.66675ZM14.4374 6.41675C14.1943 6.41675 13.9611 6.51333 13.7892 6.68523C13.6173 6.85714 13.5208 7.0903 13.5208 7.33342C13.5208 7.57653 13.6173 7.80969 13.7892 7.9816C13.9611 8.1535 14.1943 8.25008 14.4374 8.25008C14.6805 8.25008 14.9137 8.1535 15.0856 7.9816C15.2575 7.80969 15.3541 7.57653 15.3541 7.33342C15.3541 7.0903 15.2575 6.85714 15.0856 6.68523C14.9137 6.51333 14.6805 6.41675 14.4374 6.41675ZM14.4267 9.1569C14.2445 9.15975 14.0709 9.23479 13.944 9.36554C13.8171 9.49629 13.7473 9.67206 13.7499 9.85425V13.5209C13.7486 13.612 13.7655 13.7025 13.7994 13.787C13.8334 13.8715 13.8838 13.9485 13.9478 14.0134C14.0118 14.0783 14.088 14.1298 14.1721 14.1649C14.2561 14.2001 14.3463 14.2182 14.4374 14.2182C14.5285 14.2182 14.6187 14.2001 14.7028 14.1649C14.7868 14.1298 14.8631 14.0783 14.927 14.0134C14.991 13.9485 15.0414 13.8715 15.0754 13.787C15.1094 13.7025 15.1262 13.612 15.1249 13.5209V9.85425C15.1262 9.76223 15.1091 9.67088 15.0744 9.58562C15.0398 9.50036 14.9884 9.42292 14.9233 9.35789C14.8582 9.29286 14.7807 9.24156 14.6954 9.20704C14.6101 9.17251 14.5187 9.15546 14.4267 9.1569Z" fill="#AFB0B1"/>
</svg>
