<svg width="20" height="20" viewBox="0 0 20 20" fill="none" xmlns="http://www.w3.org/2000/svg">
<path d="M16.5924 2.50073C16.3603 2.50073 16.128 2.58855 15.9512 2.76522L9.0542 9.663L8.74902 11.2507L10.3368 10.9456L17.2337 4.04858C17.405 3.87733 17.4998 3.64939 17.4998 3.40731C17.4998 3.16522 17.405 2.93688 17.2337 2.76522C17.0568 2.58855 16.8246 2.50073 16.5924 2.50073ZM5.20817 2.91659C3.95239 2.91659 2.9165 3.95247 2.9165 5.20825V14.7916C2.9165 16.0474 3.95239 17.0833 5.20817 17.0833H14.7915C16.0473 17.0833 17.0832 16.0474 17.0832 14.7916V7.91658C17.0847 7.80616 17.0643 7.69652 17.0232 7.59405C16.982 7.49158 16.9208 7.39831 16.8433 7.31967C16.7658 7.24103 16.6734 7.17858 16.5715 7.13596C16.4696 7.09333 16.3603 7.07138 16.2498 7.07138C16.1394 7.07138 16.0301 7.09333 15.9282 7.13596C15.8263 7.17858 15.7339 7.24103 15.6564 7.31967C15.5788 7.39831 15.5177 7.49158 15.4765 7.59405C15.4353 7.69652 15.4149 7.80616 15.4165 7.91658V14.7916C15.4165 15.1466 15.1466 15.4166 14.7915 15.4166H5.20817C4.85312 15.4166 4.58317 15.1466 4.58317 14.7916V5.20825C4.58317 4.8532 4.85312 4.58325 5.20817 4.58325H12.0832C12.1936 4.58481 12.3032 4.56441 12.4057 4.52323C12.5082 4.48206 12.6014 4.42092 12.6801 4.34339C12.7587 4.26585 12.8212 4.17345 12.8638 4.07157C12.9064 3.96969 12.9284 3.86036 12.9284 3.74992C12.9284 3.63948 12.9064 3.53014 12.8638 3.42826C12.8212 3.32638 12.7587 3.23399 12.6801 3.15645C12.6014 3.07891 12.5082 3.01778 12.4057 2.9766C12.3032 2.93542 12.1936 2.91502 12.0832 2.91659H5.20817Z" fill="white"/>
</svg>
