<svg width="21" height="20" viewBox="0 0 21 20" fill="none" xmlns="http://www.w3.org/2000/svg">
<path d="M10.2005 1.66675C5.59802 1.66675 1.86719 5.39758 1.86719 10.0001C1.86719 14.6026 5.59802 18.3334 10.2005 18.3334C14.803 18.3334 18.5339 14.6026 18.5339 10.0001C18.5339 5.39758 14.803 1.66675 10.2005 1.66675Z" fill="#0078D4"/>
<path opacity="0.05" d="M12.7005 14.5833V10.8333C12.7005 10.3737 12.3268 10 11.8672 10C11.4076 10 11.0339 10.3737 11.0339 10.8333V14.5833H8.53385V7.5H11.0339V7.92792C11.4672 7.64958 11.9722 7.5 12.4922 7.5C13.9855 7.5 15.2005 8.715 15.2005 10.2083V14.5833H12.7005ZM5.61719 14.5833V7.5H6.85302C6.13677 7.5 5.61719 6.97417 5.61719 6.24958C5.61719 5.52542 6.1451 5 6.87177 5C7.57844 5 8.10219 5.52167 8.11719 6.24125C8.11719 6.97208 7.58927 7.5 6.86219 7.5H8.11719V14.5833H5.61719Z" fill="black"/>
<path opacity="0.07" d="M12.9076 14.3749V10.8333C12.9076 10.2591 12.4405 9.79159 11.8659 9.79159C11.2913 9.79159 10.8242 10.2591 10.8242 10.8333V14.3749H8.74089V7.70825H10.8242V8.34742C11.2784 7.94034 11.8709 7.70825 12.4909 7.70825C13.8696 7.70825 14.9909 8.8295 14.9909 10.2083V14.3749H12.9076ZM5.82422 14.3749V7.70825H7.90755V14.3749H5.82422ZM6.85172 7.29159C6.2563 7.29159 5.82422 6.85325 5.82422 6.2495C5.82422 5.64617 6.26422 5.20825 6.87047 5.20825C7.4688 5.20825 7.89505 5.6345 7.90755 6.24534C7.90755 6.85325 7.46714 7.29159 6.86089 7.29159H6.85172Z" fill="black"/>
<path d="M6.03125 7.91675H7.69792V14.1667H6.03125V7.91675ZM6.85958 7.08341H6.85042C6.35292 7.08341 6.03125 6.71258 6.03125 6.24966C6.03125 5.77675 6.36292 5.41675 6.86917 5.41675C7.37625 5.41675 7.68833 5.77675 7.69792 6.24966C7.69792 6.71258 7.37625 7.08341 6.85958 7.08341ZM14.7812 10.2084C14.7812 8.94258 13.7554 7.91675 12.4896 7.91675C11.7137 7.91675 11.0292 8.30341 10.6146 8.89341V7.91675H8.94792V14.1667H10.6146V10.8334C10.6146 10.143 11.1742 9.58341 11.8646 9.58341C12.555 9.58341 13.1146 10.143 13.1146 10.8334V14.1667H14.7812C14.7812 14.1667 14.7812 10.3838 14.7812 10.2084Z" fill="white"/>
</svg>
