<svg width="35" height="36" viewBox="0 0 35 36" fill="none" xmlns="http://www.w3.org/2000/svg">
<path d="M17.5001 3.4165C9.45883 3.4165 2.91675 9.95859 2.91675 17.9998C2.91675 26.0411 9.45883 32.5832 17.5001 32.5832C25.5413 32.5832 32.0834 26.0411 32.0834 17.9998C32.0834 9.95859 25.5413 3.4165 17.5001 3.4165ZM23.698 19.0936H18.5938V24.1978C18.5938 24.8022 18.1046 25.2915 17.5001 25.2915C16.8956 25.2915 16.4063 24.8022 16.4063 24.1978V19.0936H11.3022C10.6977 19.0936 10.2084 18.6043 10.2084 17.9998C10.2084 17.3954 10.6977 16.9061 11.3022 16.9061H16.4063V11.8019C16.4063 11.1974 16.8956 10.7082 17.5001 10.7082C18.1046 10.7082 18.5938 11.1974 18.5938 11.8019V16.9061H23.698C24.3025 16.9061 24.7917 17.3954 24.7917 17.9998C24.7917 18.6043 24.3025 19.0936 23.698 19.0936Z" fill="white"/>
</svg>
