<svg width="20" height="20" viewBox="0 0 20 20" fill="none" xmlns="http://www.w3.org/2000/svg">
<path d="M8.5408 1.66656C8.44014 1.66527 8.34065 1.68831 8.25081 1.73373C8.16096 1.77914 8.08342 1.84559 8.02477 1.92741C7.96612 2.00923 7.9281 2.10401 7.91394 2.20368C7.89979 2.30336 7.90992 2.40497 7.94347 2.49989H6.0994C5.33106 2.49989 4.61849 2.88165 4.19266 3.5204L3.20633 4.99989H3.12414C3.04132 4.99872 2.95909 5.01402 2.88223 5.0449C2.80538 5.07579 2.73543 5.12164 2.67645 5.17979C2.61747 5.23794 2.57063 5.30724 2.53866 5.38365C2.5067 5.46006 2.49023 5.54206 2.49023 5.62489C2.49023 5.70772 2.5067 5.78972 2.53866 5.86613C2.57063 5.94254 2.61747 6.01184 2.67645 6.06999C2.73543 6.12814 2.80538 6.17399 2.88223 6.20488C2.95909 6.23576 3.04132 6.25106 3.12414 6.24989H16.8741C16.957 6.25106 17.0392 6.23576 17.116 6.20488C17.1929 6.17399 17.2628 6.12814 17.3218 6.06999C17.3808 6.01184 17.4276 5.94254 17.4596 5.86613C17.4916 5.78972 17.508 5.70772 17.508 5.62489C17.508 5.54206 17.4916 5.46006 17.4596 5.38365C17.4276 5.30724 17.3808 5.23794 17.3218 5.17979C17.2628 5.12164 17.1929 5.07579 17.116 5.0449C17.0392 5.01402 16.957 4.99872 16.8741 4.99989H16.7919L15.8056 3.5204C15.3798 2.88165 14.6668 2.49989 13.8989 2.49989H12.0548C12.0884 2.40497 12.0985 2.30336 12.0843 2.20368C12.0702 2.10401 12.0322 2.00923 11.9735 1.92741C11.9149 1.84559 11.8373 1.77914 11.7475 1.73373C11.6576 1.68831 11.5581 1.66527 11.4575 1.66656H8.5408ZM3.73774 7.49989L4.63455 15.869C4.75955 17.0365 5.73903 17.9166 6.9132 17.9166H13.0851C14.2588 17.9166 15.2383 17.0365 15.3637 15.869L16.2605 7.49989H3.73774Z" fill="#FF3D00"/>
</svg>
