<svg width="26" height="26" viewBox="0 0 26 26" fill="none" xmlns="http://www.w3.org/2000/svg">
<path d="M23.8337 12.9998C23.8337 18.9733 18.9738 23.8332 13.0003 23.8332C11.2762 23.8332 9.56724 23.4161 8.03595 22.6258L3.88624 23.7844C3.76653 23.8169 3.64466 23.8332 3.52333 23.8332C3.16853 23.8332 2.82133 23.6934 2.56403 23.4367C2.21899 23.0911 2.08628 22.5852 2.21737 22.1155L3.37599 17.968C2.58408 16.4351 2.16699 14.725 2.16699 12.9998C2.16699 7.02579 7.02683 2.1665 13.0003 2.1665C18.9738 2.1665 23.8337 7.02579 23.8337 12.9998ZM18.417 11.1035C18.417 10.655 18.0535 10.291 17.6045 10.291H8.39616C7.94712 10.291 7.58366 10.655 7.58366 11.1035C7.58366 11.552 7.94712 11.916 8.39616 11.916H17.6045C18.0535 11.916 18.417 11.552 18.417 11.1035ZM16.2503 14.8951C16.2503 14.4466 15.8869 14.0826 15.4378 14.0826H8.39616C7.94712 14.0826 7.58366 14.4466 7.58366 14.8951C7.58366 15.3436 7.94712 15.7076 8.39616 15.7076H15.4378C15.8869 15.7076 16.2503 15.3436 16.2503 14.8951Z" fill="#A2B6D7"/>
</svg>
