<svg width="21" height="21" viewBox="0 0 21 21" fill="none" xmlns="http://www.w3.org/2000/svg">
<path d="M10.2689 1.78223C5.67388 1.78223 1.93555 5.52056 1.93555 10.1156C1.93555 14.7106 5.67388 18.4489 10.2689 18.4489C14.8639 18.4489 18.6022 14.7106 18.6022 10.1156C18.6022 5.52056 14.8639 1.78223 10.2689 1.78223ZM10.2689 5.53223C11.4193 5.53223 12.3522 6.46514 12.3522 7.61556C12.3522 8.76598 11.4193 9.69889 10.2689 9.69889C9.11846 9.69889 8.18555 8.76598 8.18555 7.61556C8.18555 6.46514 9.11846 5.53223 10.2689 5.53223ZM14.0189 12.4231C14.0189 13.6143 12.4993 14.6989 10.2689 14.6989C8.03846 14.6989 6.51888 13.6143 6.51888 12.4231V12.1414C6.51888 11.7131 6.86638 11.3656 7.29471 11.3656H13.243C13.6714 11.3656 14.0189 11.7131 14.0189 12.1414V12.4231Z" fill="#4AB100"/>
</svg>
