<svg width="20" height="21" viewBox="0 0 20 21" fill="none" xmlns="http://www.w3.org/2000/svg">
<path d="M10.0003 2.16675C5.40533 2.16675 1.66699 5.90508 1.66699 10.5001C1.66699 15.0951 5.40533 18.8334 10.0003 18.8334C14.5953 18.8334 18.3337 15.0951 18.3337 10.5001C18.3337 5.90508 14.5953 2.16675 10.0003 2.16675ZM13.542 11.1251H10.6253V14.0417C10.6253 14.3872 10.3457 14.6667 10.0003 14.6667C9.65491 14.6667 9.37533 14.3872 9.37533 14.0417V11.1251H6.45866C6.11324 11.1251 5.83366 10.8455 5.83366 10.5001C5.83366 10.1547 6.11324 9.87508 6.45866 9.87508H9.37533V6.95841C9.37533 6.613 9.65491 6.33341 10.0003 6.33341C10.3457 6.33341 10.6253 6.613 10.6253 6.95841V9.87508H13.542C13.8874 9.87508 14.167 10.1547 14.167 10.5001C14.167 10.8455 13.8874 11.1251 13.542 11.1251Z" fill="white"/>
</svg>
