<svg width="20" height="21" viewBox="0 0 20 21" fill="none" xmlns="http://www.w3.org/2000/svg">
<path d="M3.54205 3C3.3763 3.00002 3.21734 3.06587 3.10013 3.18308C2.98292 3.30028 2.91707 3.45924 2.91705 3.625V18.2083C2.91588 18.2912 2.93118 18.3734 2.96207 18.4502C2.99295 18.5271 3.0388 18.597 3.09695 18.656C3.15511 18.715 3.2244 18.7618 3.30081 18.7938C3.37722 18.8258 3.45923 18.8422 3.54205 18.8422C3.62488 18.8422 3.70688 18.8258 3.7833 18.7938C3.85971 18.7618 3.929 18.715 3.98715 18.656C4.04531 18.597 4.09116 18.5271 4.12204 18.4502C4.15293 18.3734 4.16823 18.2912 4.16705 18.2083V14.25H17.2921C17.4081 14.2499 17.5219 14.2176 17.6206 14.1565C17.7193 14.0955 17.799 14.0081 17.8509 13.9043C17.9028 13.8005 17.9247 13.6843 17.9143 13.5687C17.9038 13.4531 17.8614 13.3427 17.7917 13.2498L14.3233 8.625L17.7917 4.00016C17.8614 3.90732 17.9038 3.79693 17.9143 3.68134C17.9247 3.56575 17.9028 3.44953 17.8509 3.34571C17.799 3.24188 17.7193 3.15455 17.6206 3.09349C17.5219 3.03243 17.4081 3.00006 17.2921 3H3.54205Z" fill="#141A28"/>
</svg>
