<svg width="24" height="24" viewBox="0 0 24 24" fill="none" xmlns="http://www.w3.org/2000/svg">
<path d="M12 5C8.86 5 6.27598 7.425 6.02148 10.5H5.75C3.4065 10.5 1.5 12.4065 1.5 14.75C1.5 17.0935 3.4065 19 5.75 19H10.25V16.6777C10.09 16.7252 9.922 16.75 9.75 16.75C9.2825 16.75 8.8427 16.5678 8.5127 16.2373C8.1817 15.9068 8 15.4675 8 15C8 14.5325 8.1822 14.0932 8.5127 13.7627L10.7627 11.5127C11.0932 11.1822 11.5325 11 12 11C12.4675 11 12.9068 11.1822 13.2373 11.5127L15.4873 13.7617C15.8183 14.0927 16 14.5325 16 15C16 15.4675 15.8178 15.9068 15.4873 16.2373C15.1568 16.5678 14.7175 16.75 14.25 16.75C14.078 16.75 13.91 16.7252 13.75 16.6777V19H18.25C20.5935 19 22.5 17.0935 22.5 14.75C22.5 12.4065 20.5935 10.5 18.25 10.5H17.9785C17.724 7.425 15.14 5 12 5ZM11.9883 11.9893C11.8742 11.9911 11.762 12.019 11.6603 12.0708C11.5586 12.1226 11.47 12.1969 11.4014 12.2881L9.21973 14.4697C9.14775 14.5388 9.09028 14.6216 9.0507 14.7132C9.01111 14.8048 8.99019 14.9034 8.98918 15.0032C8.98817 15.1029 9.00707 15.2019 9.04479 15.2943C9.08251 15.3867 9.13828 15.4706 9.20883 15.5412C9.27939 15.6117 9.36332 15.6675 9.4557 15.7052C9.54808 15.7429 9.64706 15.7618 9.74684 15.7608C9.84662 15.7598 9.9452 15.7389 10.0368 15.6993C10.1284 15.6597 10.2112 15.6022 10.2803 15.5303L11.25 14.5605V20.25C11.2486 20.3494 11.267 20.448 11.304 20.5403C11.3411 20.6325 11.3961 20.7164 11.4659 20.7872C11.5357 20.858 11.6188 20.9142 11.7105 20.9526C11.8022 20.9909 11.9006 21.0107 12 21.0107C12.0994 21.0107 12.1978 20.9909 12.2895 20.9526C12.3812 20.9142 12.4643 20.858 12.5341 20.7872C12.6039 20.7164 12.6589 20.6325 12.696 20.5403C12.733 20.448 12.7514 20.3494 12.75 20.25V14.5605L13.7197 15.5303C13.7888 15.6022 13.8716 15.6597 13.9632 15.6993C14.0548 15.7389 14.1534 15.7598 14.2532 15.7608C14.3529 15.7618 14.4519 15.7429 14.5443 15.7052C14.6367 15.6675 14.7206 15.6117 14.7912 15.5412C14.8617 15.4706 14.9175 15.3867 14.9552 15.2943C14.9929 15.2019 15.0118 15.1029 15.0108 15.0032C15.0098 14.9034 14.9889 14.8048 14.9493 14.7132C14.9097 14.6216 14.8523 14.5388 14.7803 14.4697L12.5947 12.2842C12.5237 12.1911 12.4318 12.1159 12.3265 12.0647C12.2212 12.0135 12.1054 11.9877 11.9883 11.9893Z" fill="#4AB100"/>
</svg>
