<svg width="20" height="20" viewBox="0 0 20 20" fill="none" xmlns="http://www.w3.org/2000/svg">
<path d="M3.95866 4.5835C3.35087 4.5835 2.76798 4.82494 2.33821 5.25471C1.90844 5.68448 1.66699 6.26737 1.66699 6.87516C1.66699 7.48295 1.90844 8.06585 2.33821 8.49562C2.76798 8.92539 3.35087 9.16683 3.95866 9.16683C4.56645 9.16683 5.14934 8.92539 5.57911 8.49562C6.00888 8.06585 6.25033 7.48295 6.25033 6.87516C6.25033 6.26737 6.00888 5.68448 5.57911 5.25471C5.14934 4.82494 4.56645 4.5835 3.95866 4.5835ZM8.12533 5.00016C8.04251 4.99899 7.96028 5.01429 7.88342 5.04518C7.80657 5.07606 7.73662 5.12191 7.67764 5.18006C7.61866 5.23822 7.57182 5.30751 7.53985 5.38392C7.50789 5.46033 7.49142 5.54233 7.49142 5.62516C7.49142 5.70799 7.50789 5.78999 7.53985 5.8664C7.57182 5.94281 7.61866 6.01211 7.67764 6.07026C7.73662 6.12842 7.80657 6.17427 7.88342 6.20515C7.96028 6.23603 8.04251 6.25133 8.12533 6.25016H17.7087C17.7915 6.25133 17.8737 6.23603 17.9506 6.20515C18.0274 6.17427 18.0974 6.12842 18.1563 6.07026C18.2153 6.01211 18.2622 5.94281 18.2941 5.8664C18.3261 5.78999 18.3426 5.70799 18.3426 5.62516C18.3426 5.54233 18.3261 5.46033 18.2941 5.38392C18.2622 5.30751 18.2153 5.23822 18.1563 5.18006C18.0974 5.12191 18.0274 5.07606 17.9506 5.04518C17.8737 5.01429 17.7915 4.99899 17.7087 5.00016H8.12533ZM8.12533 7.50016C8.04251 7.49899 7.96028 7.51429 7.88342 7.54518C7.80657 7.57606 7.73662 7.62191 7.67764 7.68006C7.61866 7.73822 7.57182 7.80751 7.53985 7.88392C7.50789 7.96033 7.49142 8.04233 7.49142 8.12516C7.49142 8.20799 7.50789 8.28999 7.53985 8.3664C7.57182 8.44281 7.61866 8.51211 7.67764 8.57026C7.73662 8.62842 7.80657 8.67427 7.88342 8.70515C7.96028 8.73603 8.04251 8.75133 8.12533 8.75016H15.2087C15.2915 8.75133 15.3737 8.73603 15.4506 8.70515C15.5274 8.67427 15.5974 8.62842 15.6563 8.57026C15.7153 8.51211 15.7622 8.44281 15.7941 8.3664C15.8261 8.28999 15.8426 8.20799 15.8426 8.12516C15.8426 8.04233 15.8261 7.96033 15.7941 7.88392C15.7622 7.80751 15.7153 7.73822 15.6563 7.68006C15.5974 7.62191 15.5274 7.57606 15.4506 7.54518C15.3737 7.51429 15.2915 7.49899 15.2087 7.50016H8.12533ZM3.95866 10.8335C3.35087 10.8335 2.76798 11.0749 2.33821 11.5047C1.90844 11.9345 1.66699 12.5174 1.66699 13.1252C1.66699 13.733 1.90844 14.3158 2.33821 14.7456C2.76798 15.1754 3.35087 15.4168 3.95866 15.4168C4.56645 15.4168 5.14934 15.1754 5.57911 14.7456C6.00888 14.3158 6.25033 13.733 6.25033 13.1252C6.25033 12.5174 6.00888 11.9345 5.57911 11.5047C5.14934 11.0749 4.56645 10.8335 3.95866 10.8335ZM8.12533 11.2502C8.04251 11.249 7.96028 11.2643 7.88342 11.2952C7.80657 11.3261 7.73662 11.3719 7.67764 11.4301C7.61866 11.4882 7.57182 11.5575 7.53985 11.6339C7.50789 11.7103 7.49142 11.7923 7.49142 11.8752C7.49142 11.958 7.50789 12.04 7.53985 12.1164C7.57182 12.1928 7.61866 12.2621 7.67764 12.3203C7.73662 12.3784 7.80657 12.4243 7.88342 12.4551C7.96028 12.486 8.04251 12.5013 8.12533 12.5002H17.7087C17.7915 12.5013 17.8737 12.486 17.9506 12.4551C18.0274 12.4243 18.0974 12.3784 18.1563 12.3203C18.2153 12.2621 18.2622 12.1928 18.2941 12.1164C18.3261 12.04 18.3426 11.958 18.3426 11.8752C18.3426 11.7923 18.3261 11.7103 18.2941 11.6339C18.2622 11.5575 18.2153 11.4882 18.1563 11.4301C18.0974 11.3719 18.0274 11.3261 17.9506 11.2952C17.8737 11.2643 17.7915 11.249 17.7087 11.2502H8.12533ZM8.12533 13.7502C8.04251 13.749 7.96028 13.7643 7.88342 13.7952C7.80657 13.8261 7.73662 13.8719 7.67764 13.9301C7.61866 13.9882 7.57182 14.0575 7.53985 14.1339C7.50789 14.2103 7.49142 14.2923 7.49142 14.3752C7.49142 14.458 7.50789 14.54 7.53985 14.6164C7.57182 14.6928 7.61866 14.7621 7.67764 14.8203C7.73662 14.8784 7.80657 14.9243 7.88342 14.9551C7.96028 14.986 8.04251 15.0013 8.12533 15.0002H15.2087C15.2915 15.0013 15.3737 14.986 15.4506 14.9551C15.5274 14.9243 15.5974 14.8784 15.6563 14.8203C15.7153 14.7621 15.7622 14.6928 15.7941 14.6164C15.8261 14.54 15.8426 14.458 15.8426 14.3752C15.8426 14.2923 15.8261 14.2103 15.7941 14.1339C15.7622 14.0575 15.7153 13.9882 15.6563 13.9301C15.5974 13.8719 15.5274 13.8261 15.4506 13.7952C15.3737 13.7643 15.2915 13.749 15.2087 13.7502H8.12533Z" fill="#4AB100"/>
</svg>
