<svg width="21" height="20" viewBox="0 0 21 20" fill="none" xmlns="http://www.w3.org/2000/svg">
<path d="M14.7736 17.4959L6.44029 17.5038C4.60695 17.5054 3.1057 16.0071 3.10362 14.1738L3.0957 5.84043C3.09404 4.0071 4.59237 2.50585 6.4257 2.50377L14.759 2.49585C16.5924 2.49418 18.0936 3.99252 18.0957 5.82585L18.1036 14.1592C18.1057 15.9929 16.607 17.4942 14.7736 17.4959Z" fill="url(#paint0_radial_6153_3450)"/>
<path d="M14.7736 17.4959L6.44029 17.5038C4.60695 17.5054 3.1057 16.0071 3.10362 14.1738L3.0957 5.84043C3.09404 4.0071 4.59237 2.50585 6.4257 2.50377L14.759 2.49585C16.5924 2.49418 18.0936 3.99252 18.0957 5.82585L18.1036 14.1592C18.1057 15.9929 16.607 17.4942 14.7736 17.4959Z" fill="url(#paint1_radial_6153_3450)"/>
<path d="M10.6003 12.9166C8.99234 12.9166 7.68359 11.6083 7.68359 9.99992C7.68359 8.39159 8.99234 7.08325 10.6003 7.08325C12.2082 7.08325 13.5169 8.39159 13.5169 9.99992C13.5169 11.6083 12.2082 12.9166 10.6003 12.9166ZM10.6003 7.91659C9.45151 7.91659 8.51693 8.85117 8.51693 9.99992C8.51693 11.1487 9.45151 12.0833 10.6003 12.0833C11.749 12.0833 12.6836 11.1487 12.6836 9.99992C12.6836 8.85117 11.749 7.91659 10.6003 7.91659Z" fill="white"/>
<path d="M13.7246 7.5C14.0698 7.5 14.3496 7.22018 14.3496 6.875C14.3496 6.52982 14.0698 6.25 13.7246 6.25C13.3794 6.25 13.0996 6.52982 13.0996 6.875C13.0996 7.22018 13.3794 7.5 13.7246 7.5Z" fill="white"/>
<path d="M13.1003 15.4166H8.10026C6.49234 15.4166 5.18359 14.1083 5.18359 12.4999V7.49992C5.18359 5.89159 6.49234 4.58325 8.10026 4.58325H13.1003C14.7082 4.58325 16.0169 5.89159 16.0169 7.49992V12.4999C16.0169 14.1083 14.7082 15.4166 13.1003 15.4166ZM8.10026 5.41659C6.95151 5.41659 6.01693 6.35117 6.01693 7.49992V12.4999C6.01693 13.6487 6.95151 14.5833 8.10026 14.5833H13.1003C14.249 14.5833 15.1836 13.6487 15.1836 12.4999V7.49992C15.1836 6.35117 14.249 5.41659 13.1003 5.41659H8.10026Z" fill="white"/>
<defs>
<radialGradient id="paint0_radial_6153_3450" cx="0" cy="0" r="1" gradientUnits="userSpaceOnUse" gradientTransform="translate(8.67487 17.5146) scale(18.7079)">
<stop stop-color="#FFDD55"/>
<stop offset="0.328" stop-color="#FF543F"/>
<stop offset="0.348" stop-color="#FC5245"/>
<stop offset="0.504" stop-color="#E64771"/>
<stop offset="0.643" stop-color="#D53E91"/>
<stop offset="0.761" stop-color="#CC39A4"/>
<stop offset="0.841" stop-color="#C837AB"/>
</radialGradient>
<radialGradient id="paint1_radial_6153_3450" cx="0" cy="0" r="1" gradientUnits="userSpaceOnUse" gradientTransform="translate(5.5107 2.30848) scale(12.4221 8.27683)">
<stop stop-color="#4168C9"/>
<stop offset="0.999" stop-color="#4168C9" stop-opacity="0"/>
</radialGradient>
</defs>
</svg>
