<svg width="27" height="26" viewBox="0 0 27 26" fill="none" xmlns="http://www.w3.org/2000/svg">
<path d="M20 0H7C3.42532 0 0.5 2.92532 0.5 6.5V19.5006C0.5 23.0744 3.42532 26.0006 7 26.0006H20C23.5747 26.0006 26.5 23.0744 26.5 19.5006V6.5C26.5 2.92532 23.5747 0 20 0ZM24.3332 19.5006C24.3332 21.8894 22.3901 23.8339 20 23.8339H7C4.61093 23.8339 2.66677 21.8894 2.66677 19.5006V6.5C2.66677 4.11062 4.61093 2.16677 7 2.16677H20C22.3901 2.16677 24.3332 4.11062 24.3332 6.5V19.5006Z" fill="#AFB0B1"/>
<path d="M13.5002 6.49951C9.90963 6.49951 7.00024 9.40921 7.00024 12.9995C7.00024 16.5885 9.90963 19.5001 13.5002 19.5001C17.0898 19.5001 20.0002 16.5885 20.0002 12.9995C20.0002 9.40921 17.0898 6.49951 13.5002 6.49951ZM13.5002 17.3334C11.1072 17.3334 9.16702 15.3931 9.16702 12.9995C9.16702 10.6059 11.1072 8.66628 13.5002 8.66628C15.8932 8.66628 17.8335 10.6059 17.8335 12.9995C17.8335 15.3931 15.8932 17.3334 13.5002 17.3334Z" fill="#AFB0B1"/>
</svg>
