<svg width="20" height="21" viewBox="0 0 20 21" fill="none" xmlns="http://www.w3.org/2000/svg">
<g clip-path="url(#clip0_6242_602)">
<path d="M9.99411 5.99467C9.89474 5.99623 9.80005 6.03716 9.73083 6.10848C9.66162 6.1798 9.62354 6.27567 9.62497 6.37505V7.12505C9.62427 7.17474 9.63345 7.22407 9.65198 7.27019C9.67051 7.3163 9.69802 7.35827 9.73291 7.39366C9.7678 7.42905 9.80938 7.45715 9.85523 7.47633C9.90107 7.49551 9.95027 7.50539 9.99997 7.50539C10.0497 7.50539 10.0989 7.49551 10.1447 7.47633C10.1906 7.45715 10.2321 7.42905 10.267 7.39366C10.3019 7.35827 10.3294 7.3163 10.348 7.27019C10.3665 7.22407 10.3757 7.17474 10.375 7.12505V6.37505C10.3757 6.32485 10.3663 6.27503 10.3474 6.22852C10.3285 6.18202 10.3005 6.13978 10.265 6.1043C10.2295 6.06883 10.1872 6.04085 10.1407 6.02202C10.0941 6.00319 10.0443 5.99389 9.99411 5.99467ZM6.72556 7.35112C6.65093 7.35114 6.578 7.37342 6.5161 7.41512C6.45421 7.45682 6.40616 7.51603 6.37811 7.58519C6.35006 7.65435 6.34328 7.73031 6.35864 7.80334C6.374 7.87637 6.41079 7.94316 6.46433 7.99516L6.9946 8.52544C7.06498 8.59582 7.16044 8.63536 7.25998 8.63536C7.35952 8.63536 7.45498 8.59582 7.52536 8.52544C7.59574 8.45505 7.63528 8.35959 7.63528 8.26006C7.63528 8.16052 7.59574 8.06506 7.52536 7.99467L6.99509 7.4644C6.96003 7.42843 6.91811 7.39987 6.87181 7.38041C6.82552 7.36095 6.77578 7.35099 6.72556 7.35112ZM13.2627 7.35112C13.1653 7.35396 13.0728 7.39459 13.0049 7.4644L12.4746 7.99467C12.4042 8.06506 12.3647 8.16052 12.3647 8.26006C12.3647 8.35959 12.4042 8.45505 12.4746 8.52544C12.545 8.59582 12.6404 8.63536 12.74 8.63536C12.8395 8.63536 12.935 8.59582 13.0053 8.52544L13.5356 7.99516C13.5899 7.94248 13.627 7.87459 13.6421 7.80043C13.6571 7.72627 13.6493 7.6493 13.6198 7.57963C13.5903 7.50996 13.5404 7.45085 13.4766 7.41007C13.4129 7.36928 13.3383 7.34874 13.2627 7.35112ZM9.99997 8.25005C9.27062 8.25005 8.57115 8.53978 8.05543 9.0555C7.5397 9.57123 7.24997 10.2707 7.24997 11C7.24997 11.7294 7.5397 12.4289 8.05543 12.9446C8.57115 13.4603 9.27062 13.75 9.99997 13.75C10.7293 13.75 11.4288 13.4603 11.9445 12.9446C12.4602 12.4289 12.75 11.7294 12.75 11C12.75 10.2707 12.4602 9.57123 11.9445 9.0555C11.4288 8.53978 10.7293 8.25005 9.99997 8.25005ZM5.37497 10.625C5.32528 10.6243 5.27594 10.6335 5.22983 10.6521C5.18372 10.6706 5.14175 10.6981 5.10636 10.733C5.07097 10.7679 5.04287 10.8095 5.02369 10.8553C5.00451 10.9011 4.99463 10.9503 4.99463 11C4.99463 11.0497 5.00451 11.0989 5.02369 11.1448C5.04287 11.1906 5.07097 11.2322 5.10636 11.2671C5.14175 11.302 5.18372 11.3295 5.22983 11.348C5.27594 11.3666 5.32528 11.3757 5.37497 11.375H6.12497C6.17466 11.3757 6.224 11.3666 6.27011 11.348C6.31622 11.3295 6.35819 11.302 6.39358 11.2671C6.42897 11.2322 6.45707 11.1906 6.47625 11.1448C6.49543 11.0989 6.50531 11.0497 6.50531 11C6.50531 10.9503 6.49543 10.9011 6.47625 10.8553C6.45707 10.8095 6.42897 10.7679 6.39358 10.733C6.35819 10.6981 6.31622 10.6706 6.27011 10.6521C6.224 10.6335 6.17466 10.6243 6.12497 10.625H5.37497ZM13.875 10.625C13.8253 10.6243 13.7759 10.6335 13.7298 10.6521C13.6837 10.6706 13.6417 10.6981 13.6064 10.733C13.571 10.7679 13.5429 10.8095 13.5237 10.8553C13.5045 10.9011 13.4946 10.9503 13.4946 11C13.4946 11.0497 13.5045 11.0989 13.5237 11.1448C13.5429 11.1906 13.571 11.2322 13.6064 11.2671C13.6417 11.302 13.6837 11.3295 13.7298 11.348C13.7759 11.3666 13.8253 11.3757 13.875 11.375H14.625C14.6747 11.3757 14.724 11.3666 14.7701 11.348C14.8162 11.3295 14.8582 11.302 14.8936 11.2671C14.929 11.2322 14.9571 11.1906 14.9763 11.1448C14.9954 11.0989 15.0053 11.0497 15.0053 11C15.0053 10.9503 14.9954 10.9011 14.9763 10.8553C14.9571 10.8095 14.929 10.7679 14.8936 10.733C14.8582 10.6981 14.8162 10.6706 14.7701 10.6521C14.724 10.6335 14.6747 10.6243 14.625 10.625H13.875ZM7.25241 13.3614C7.15502 13.3642 7.06256 13.4048 6.9946 13.4747L6.46433 14.0049C6.42946 14.0398 6.40181 14.0812 6.38294 14.1267C6.36406 14.1722 6.35435 14.221 6.35434 14.2703C6.35434 14.3196 6.36404 14.3684 6.38291 14.414C6.40177 14.4595 6.42941 14.5009 6.46427 14.5357C6.49912 14.5706 6.5405 14.5982 6.58604 14.6171C6.63159 14.636 6.6804 14.6457 6.72969 14.6457C6.77898 14.6457 6.82779 14.636 6.87333 14.6171C6.91887 14.5982 6.96024 14.5706 6.99509 14.5357L7.52536 14.0054C7.57967 13.9527 7.61678 13.8848 7.6318 13.8107C7.64682 13.7365 7.63906 13.6596 7.60954 13.5899C7.58001 13.5202 7.5301 13.4611 7.46636 13.4203C7.40263 13.3795 7.32804 13.359 7.25241 13.3614ZM12.7358 13.3614C12.6612 13.3614 12.5883 13.3837 12.5264 13.4254C12.4645 13.4671 12.4164 13.5263 12.3884 13.5954C12.3603 13.6646 12.3535 13.7406 12.3689 13.8136C12.3842 13.8866 12.421 13.9534 12.4746 14.0054L13.0049 14.5357C13.0397 14.5705 13.0811 14.5982 13.1266 14.617C13.1721 14.6359 13.2209 14.6456 13.2702 14.6456C13.3195 14.6456 13.3683 14.6359 13.4139 14.617C13.4594 14.5982 13.5008 14.5705 13.5356 14.5357C13.5705 14.5008 13.5981 14.4595 13.617 14.4139C13.6358 14.3684 13.6455 14.3196 13.6455 14.2703C13.6455 14.221 13.6358 14.1722 13.617 14.1267C13.5981 14.0812 13.5705 14.0398 13.5356 14.0049L13.0053 13.4747C12.9703 13.4387 12.9284 13.4101 12.8821 13.3907C12.8358 13.3712 12.786 13.3612 12.7358 13.3614ZM9.99411 14.4947C9.89474 14.4962 9.80005 14.5372 9.73083 14.6085C9.66162 14.6798 9.62354 14.7757 9.62497 14.875V15.625C9.62427 15.6747 9.63345 15.7241 9.65198 15.7702C9.67051 15.8163 9.69802 15.8583 9.73291 15.8937C9.7678 15.929 9.80938 15.9571 9.85523 15.9763C9.90107 15.9955 9.95027 16.0054 9.99997 16.0054C10.0497 16.0054 10.0989 15.9955 10.1447 15.9763C10.1906 15.9571 10.2321 15.929 10.267 15.8937C10.3019 15.8583 10.3294 15.8163 10.348 15.7702C10.3665 15.7241 10.3757 15.6747 10.375 15.625V14.875C10.3757 14.8249 10.3663 14.775 10.3474 14.7285C10.3285 14.682 10.3005 14.6398 10.265 14.6043C10.2295 14.5688 10.1872 14.5409 10.1407 14.522C10.0941 14.5032 10.0443 14.4939 9.99411 14.4947Z" fill="#AFB0B1"/>
</g>
<defs>
<clipPath id="clip0_6242_602">
<rect width="12" height="12" fill="white" transform="translate(4 5)"/>
</clipPath>
</defs>
</svg>
