<svg width="24" height="24" viewBox="0 0 24 24" fill="none" xmlns="http://www.w3.org/2000/svg">
<path d="M13.7682 10.2313C11.8747 8.3378 8.8405 8.28042 6.87793 10.0592L6.69714 10.2313L3.86874 13.0597C1.91604 15.0123 1.91604 18.1781 3.86874 20.1307C5.76217 22.0242 8.79639 22.0816 10.759 20.3028L10.9397 20.1307L13.061 18.0094C13.4516 17.6189 13.4516 16.9857 13.061 16.5952C12.7006 16.2347 12.1334 16.207 11.7411 16.512L11.6468 16.5952L9.52555 18.7165C8.35394 19.8881 6.45444 19.8881 5.28294 18.7165C4.15821 17.5919 4.11322 15.7963 5.14798 14.6179L5.28294 14.4739L8.11135 11.6455C9.28295 10.4739 11.1823 10.4739 12.3538 11.6455C12.7444 12.036 13.3775 12.036 13.7681 11.6455C14.1586 11.255 14.1587 10.6218 13.7682 10.2313ZM20.1322 3.8673C18.2388 1.97385 15.2045 1.91647 13.2419 3.69517L13.0611 3.8673L10.9398 5.98862C10.5493 6.37914 10.5493 7.01231 10.9398 7.40283C11.3003 7.76332 11.8676 7.79105 12.2598 7.48602L12.354 7.40283L14.4754 5.28151C15.6469 4.10994 17.5464 4.10994 18.718 5.28151C19.8427 6.40621 19.8877 8.20178 18.853 9.38016L18.718 9.52415L15.8896 12.3526C14.718 13.5242 12.8184 13.5241 11.6469 12.3526C11.2564 11.962 10.6232 11.962 10.2327 12.3526C9.84214 12.7431 9.84225 13.3763 10.2327 13.7668C12.1262 15.6602 15.1604 15.7176 17.123 13.9389L17.3038 13.7668L20.1322 10.9384C22.0848 8.98574 22.0848 5.81992 20.1322 3.8673Z" fill="#7E7F81"/>
</svg>
