<svg width="24" height="24" viewBox="0 0 24 24" fill="none" xmlns="http://www.w3.org/2000/svg">
<path d="M5.43625 16.7202C6.24742 16.7202 6.90055 17.3807 6.90055 18.1869C6.90055 18.4774 6.81386 18.7582 6.65638 18.9952C6.8138 19.2321 6.90046 19.5129 6.90046 19.8033C6.90046 20.6096 6.24734 21.27 5.43616 21.27C4.78665 21.27 4.27346 20.9917 4.00921 20.3689C3.86898 20.0385 4.0232 19.6569 4.35367 19.5167C4.68413 19.3764 5.0657 19.5307 5.20593 19.8611C5.23394 19.9271 5.29871 19.97 5.37044 19.97C5.47949 19.97 5.60046 19.9398 5.60046 19.8033C5.60046 19.7024 5.52742 19.6599 5.44411 19.6485L5.3934 19.6452C5.03435 19.6452 4.74332 19.3541 4.74332 18.995C4.74332 18.6686 4.98382 18.3985 5.29726 18.352L5.39332 18.345C5.49524 18.345 5.60055 18.3081 5.60055 18.1869C5.60055 18.0504 5.4796 18.0202 5.37056 18.0202C5.29884 18.0202 5.23406 18.0631 5.20605 18.1291C5.06582 18.4596 4.68425 18.6138 4.35379 18.4736C4.02332 18.3333 3.8691 17.9518 4.00933 17.6213C4.27357 16.9986 4.78675 16.7202 5.43625 16.7202ZM20.0005 18C20.5528 18 21.0005 18.4477 21.0005 19C21.0005 19.5523 20.5528 20 20.0005 20H9.00049C8.44821 20 8.00049 19.5523 8.00049 19C8.00049 18.4477 8.44821 18 9.00049 18H20.0005ZM6.08127 9.94525C6.72607 10.2677 7.055 11.0088 6.88112 11.7043C6.81728 11.9596 6.68956 12.1946 6.50996 12.387L5.95641 12.9801H6.42609C6.78508 12.9801 7.07609 13.2711 7.07609 13.6301C7.07609 13.9891 6.78508 14.2801 6.42609 14.2801H4.57359C4.21204 14.2801 3.91895 13.987 3.91895 13.6255C3.91895 13.4195 3.94729 13.2274 4.09501 13.0692L5.55959 11.5C5.66882 11.383 5.64138 11.1787 5.4999 11.108C5.36343 11.0398 5.25068 11.1187 5.22462 11.2497L5.21895 11.3087C5.21895 11.6677 4.92793 11.9587 4.56895 11.9587C4.17826 11.9587 3.91895 11.632 3.91895 11.2617C3.91895 10.5817 4.38171 9.98904 5.04136 9.82413C5.39219 9.73642 5.75916 9.7842 6.08127 9.94525ZM20.0005 11C20.5528 11 21.0005 11.4477 21.0005 12C21.0005 12.5128 20.6145 12.9355 20.1171 12.9933L20.0005 13H9.00049C8.44821 13 8.00049 12.5523 8.00049 12C8.00049 11.4872 8.38653 11.0645 8.88387 11.0067L9.00049 11H20.0005ZM6.15053 3.38925V6.62991C6.15053 6.9889 5.85952 7.27991 5.50053 7.27991C5.14155 7.27991 4.85053 6.9889 4.85053 6.62991V4.52233C4.60814 4.5599 4.35471 4.45799 4.2097 4.24047C4.01057 3.94177 4.09129 3.53821 4.38998 3.33908L5.13221 2.84426C5.56748 2.55408 6.15053 2.8661 6.15053 3.38925ZM20.0005 4C20.5528 4 21.0005 4.44772 21.0005 5C21.0005 5.51283 20.6145 5.93551 20.1171 5.99327L20.0005 6H9.00049C8.44821 6 8.00049 5.55228 8.00049 5C8.00049 4.48717 8.38653 4.06449 8.88387 4.00673L9.00049 4H20.0005Z" fill="#7E7F81"/>
</svg>
