<svg width="40" height="41" viewBox="0 0 40 41" fill="none" xmlns="http://www.w3.org/2000/svg">
<path d="M11.668 14.6665L16.5713 17.5655C19.43 19.2557 20.5726 19.2557 23.4313 17.5655L28.3346 14.6665" stroke="#4AB100" stroke-width="2.5" stroke-linecap="round" stroke-linejoin="round"/>
<path d="M3.35831 22.9595C3.46727 28.0687 3.52174 30.6234 5.40696 32.5157C7.29217 34.4082 9.91592 34.474 15.1634 34.6059C18.3975 34.6872 21.5999 34.6872 24.834 34.6059C30.0815 34.474 32.7052 34.4082 34.5904 32.5157C36.4757 30.6234 36.5302 28.0687 36.639 22.9595C36.6742 21.3167 36.6742 19.6835 36.639 18.0409C36.5302 12.9316 36.4757 10.377 34.5904 8.4846C32.7052 6.59221 30.0815 6.5263 24.834 6.39445C21.5999 6.31318 18.3975 6.31318 15.1634 6.39443C9.91592 6.52626 7.29217 6.59218 5.40696 8.48458C3.52174 10.377 3.46726 12.9316 3.35831 18.0407C3.32327 19.6835 3.32327 21.3167 3.35831 22.9595Z" stroke="#4AB100" stroke-width="2.5" stroke-linejoin="round"/>
</svg>
