<svg width="79" height="60" viewBox="0 0 79 60" fill="none" xmlns="http://www.w3.org/2000/svg">
<path d="M0.924805 9.21024V37.3837C0.924805 41.3984 3.52258 44.8461 7.13538 46.0742L6.49793 59.7715L18.4711 46.5939H68.8902C73.9674 46.5939 78.0762 42.4614 78.0762 37.3837V9.21024C78.0762 4.13248 73.9674 0 68.8902 0H10.1344C5.05794 0 0.924805 4.13248 0.924805 9.21024Z" fill="#4AB100"/>
<path opacity="0.5" d="M0.924805 9.21024V37.3837C0.924805 41.3984 3.52258 44.8461 7.13538 46.0742L6.49793 59.7715L18.4711 46.5939H68.8902C73.9674 46.5939 78.0762 42.4614 78.0762 37.3837V9.21024C78.0762 4.13248 73.9674 0 68.8902 0H10.1344C5.05794 0 0.924805 4.13248 0.924805 9.21024Z" fill="white"/>
<path d="M57.5543 27.8642C55.2102 27.8642 53.3099 25.9639 53.3099 23.6197C53.3099 21.2756 55.2102 19.3752 57.5543 19.3752C59.8985 19.3752 61.7988 21.2756 61.7988 23.6197C61.7988 25.9639 59.8985 27.8642 57.5543 27.8642Z" fill="#4AB100"/>
<path d="M21.445 27.8642C19.1008 27.8642 17.2005 25.9639 17.2005 23.6197C17.2005 21.2756 19.1008 19.3752 21.445 19.3752C23.7891 19.3752 25.6895 21.2756 25.6895 23.6197C25.6895 25.9639 23.7891 27.8642 21.445 27.8642Z" fill="#4AB100"/>
<path d="M39.318 27.8642C36.9738 27.8642 35.0735 25.9639 35.0735 23.6197C35.0735 21.2756 36.9738 19.3752 39.318 19.3752C41.6622 19.3752 43.5625 21.2756 43.5625 23.6197C43.5625 25.9639 41.6622 27.8642 39.318 27.8642Z" fill="#4AB100"/>
</svg>
