<svg width="16" height="18" viewBox="0 0 16 18" fill="none" xmlns="http://www.w3.org/2000/svg">
<path d="M13.8104 14.1154H1.72876C1.22668 14.1154 0.766259 13.8625 0.497509 13.4384C0.228759 13.0142 0.195425 12.4904 0.409175 12.0363L1.51959 9.80211V7.19086C1.51959 3.75795 4.13251 0.94628 7.46834 0.789196C9.19792 0.710863 10.835 1.31878 12.0829 2.5092C13.3321 3.70045 14.0196 5.3067 14.0196 7.03211V9.80211L15.1238 12.0242C15.3433 12.4904 15.3104 13.0146 15.0417 13.4388C14.7729 13.8629 14.3125 14.1154 13.8104 14.1154ZM5.30709 14.9488C5.50626 16.1292 6.53292 17.0321 7.76959 17.0321C9.00626 17.0321 10.0325 16.1292 10.2321 14.9488H5.30709Z" fill="#4AB100"/>
</svg>
