<svg width="22" height="23" viewBox="0 0 22 23" fill="none" xmlns="http://www.w3.org/2000/svg">
<path d="M2.31942 14.071C2.12449 15.3113 2.99599 16.1722 4.06304 16.6012C8.1539 18.2461 13.8468 18.2461 17.9376 16.6012C19.0047 16.1722 19.8761 15.3113 19.6813 14.071C19.5614 13.3088 18.9691 12.6741 18.5302 12.0543C17.9553 11.2325 17.8982 10.3362 17.8982 9.38263C17.8982 5.69735 14.8099 2.70984 11.0003 2.70984C7.19078 2.70984 4.10253 5.69735 4.10253 9.38263C4.10244 10.3362 4.04532 11.2325 3.47047 12.0543C3.0316 12.6741 2.43922 13.3088 2.31942 14.071Z" stroke="white" stroke-width="1.5" stroke-linecap="round" stroke-linejoin="round"/>
<path d="M8.25 20.1265C8.97979 20.6965 9.94354 21.0431 11 21.0431C12.0565 21.0431 13.0202 20.6965 13.75 20.1265" stroke="white" stroke-width="1.5" stroke-linecap="round" stroke-linejoin="round"/>
</svg>
