<svg width="30" height="30" viewBox="0 0 30 30" fill="none" xmlns="http://www.w3.org/2000/svg">
<path d="M0 8C0 3.58172 3.58172 0 8 0H22C26.4183 0 30 3.58172 30 8V22C30 26.4183 26.4183 30 22 30H8C3.58172 30 0 26.4183 0 22V8Z" fill="#4AB100"/>
<path d="M17.3807 6.00039C17.9542 5.9895 18.5059 6.20884 18.9193 6.62265L23.3768 11.0802C23.8493 11.5527 24.0696 12.2034 23.9806 12.8657C23.8916 13.5275 23.5074 14.0969 22.9275 14.4283L18.1463 17.1614L16.3507 21.6495C16.2617 21.8711 16.0686 22.0335 15.8348 22.0813C15.7869 22.0913 15.7392 22.0961 15.6914 22.0961C15.5054 22.0961 15.3238 22.0225 15.1894 21.8881L12.1529 18.8507L7.22195 23.7817C7.15652 23.8498 7.07814 23.9042 6.99142 23.9417C6.9047 23.9792 6.81137 23.999 6.71689 24C6.62242 24.0009 6.52871 23.983 6.44124 23.9473C6.35377 23.9116 6.27431 23.8588 6.2075 23.792C6.1407 23.7252 6.0879 23.6457 6.05219 23.5583C6.01648 23.4708 5.99858 23.3771 5.99954 23.2826C6.0005 23.1881 6.0203 23.0948 6.05778 23.0081C6.09526 22.9214 6.14967 22.843 6.21782 22.7775L11.1488 17.8466L8.11143 14.8101C7.9429 14.6416 7.87037 14.3986 7.91819 14.1647C7.966 13.9309 8.12796 13.7373 8.34998 13.6488L12.839 11.8532L15.5703 7.07202C15.9017 6.4921 16.4715 6.10788 17.1338 6.01888C17.2163 6.00781 17.2988 6.00194 17.3807 6.00039Z" fill="white"/>
</svg>
