<svg width="24" height="24" viewBox="0 0 24 24" fill="none" xmlns="http://www.w3.org/2000/svg">
<path fill-rule="evenodd" clip-rule="evenodd" d="M12 2C17.5228 2 22 6.47715 22 12C22 17.5228 17.5228 22 12 22C6.47715 22 2 17.5228 2 12C2 6.47715 6.47715 2 12 2ZM12 4C7.58172 4 4 7.58172 4 12C4 16.4183 7.58172 20 12 20C16.4183 20 20 16.4183 20 12C20 7.58172 16.4183 4 12 4ZM8.96449 8.65028C9.0612 7.85899 9.88591 7.3848 10.6179 7.69697L10.9433 7.83955L11.3821 8.04214L11.7316 8.2109L12.1226 8.4069L12.5513 8.63033L13.0142 8.88144L13.5076 9.16043L13.7566 9.30574L14.2255 9.58777L14.6542 9.85565L15.2181 10.2239L15.6824 10.542L16.1371 10.8695C16.1668 10.8916 16.1945 10.9122 16.22 10.9314C16.8553 11.4084 16.8591 12.3595 16.2213 12.8396L15.9375 13.0486L15.5453 13.3255L15.0488 13.6602L14.6618 13.9106L14.2314 14.1792L13.7588 14.4633C13.6766 14.5117 13.5927 14.5607 13.5071 14.6101L13.0086 14.8921L12.543 15.1449L12.1135 15.3691L11.723 15.565L11.2177 15.807L10.8184 15.9881L10.6162 16.0756C9.88271 16.3874 9.06102 15.9105 8.96459 15.1219L8.9106 14.6233L8.88094 14.2892L8.83876 13.6901L8.81511 13.2297L8.79736 12.7237L8.78752 12.1751V11.5965L8.79735 11.0481L8.81508 10.5424L8.83871 10.0821L8.88086 9.48315L8.95228 8.75291C8.95653 8.71619 8.96062 8.68196 8.96449 8.65028ZM10.8476 10.0049L10.8205 10.4716L10.7996 10.9969L10.7878 11.5767V12.1948L10.7996 12.7747L10.8205 13.3001L10.8476 13.7668L11.2637 13.5572C11.3372 13.5194 11.4128 13.4801 11.4902 13.4393L11.9777 13.1767L12.5071 12.8781L13.0301 12.5692C13.1129 12.5191 13.1936 12.4698 13.2721 12.4213L13.7162 12.1413L14.1056 11.8859L13.7143 11.6288L13.2696 11.348L12.7739 11.0481C12.6871 10.9968 12.5984 10.9449 12.5076 10.8925C12.326 10.7876 12.15 10.6886 11.9807 10.5955L11.4932 10.3333L11.0505 10.1058C10.9808 10.0707 10.9131 10.0371 10.8476 10.0049Z" fill="#7E7F81"/>
</svg>
