<svg width="43" height="42" viewBox="0 0 43 42" fill="none" xmlns="http://www.w3.org/2000/svg">
<path d="M21.6016 30C16.6309 30 12.6016 25.9707 12.6016 21C12.6016 16.0293 16.6309 12 21.6016 12C26.5723 12 30.6016 16.0293 30.6016 21C30.6016 25.9707 26.5723 30 21.6016 30ZM21.6016 28.2C23.5111 28.2 25.3425 27.4414 26.6927 26.0912C28.043 24.7409 28.8016 22.9096 28.8016 21C28.8016 19.0904 28.043 17.2591 26.6927 15.9088C25.3425 14.5586 23.5111 13.8 21.6016 13.8C19.692 13.8 17.8607 14.5586 16.5104 15.9088C15.1601 17.2591 14.4016 19.0904 14.4016 21C14.4016 22.9096 15.1601 24.7409 16.5104 26.0912C17.8607 27.4414 19.692 28.2 21.6016 28.2ZM20.7016 16.5H22.5016V18.3H20.7016V16.5ZM20.7016 20.1H22.5016V25.5H20.7016V20.1Z" fill="#4AB100"/>
</svg>
