<svg width="18" height="19" viewBox="0 0 18 19" fill="none" xmlns="http://www.w3.org/2000/svg">
<path fill-rule="evenodd" clip-rule="evenodd" d="M0 7.62646C0 11.3544 3.02208 14.3765 6.75 14.3765C8.30847 14.3765 9.74359 13.8483 10.8861 12.9612C10.9291 13.0522 10.9883 13.1376 11.0636 13.2129L16.4636 18.6129C16.8151 18.9643 17.3849 18.9643 17.7364 18.6129C18.0879 18.2614 18.0879 17.6915 17.7364 17.3401L12.3364 11.9401C12.2611 11.8648 12.1758 11.8056 12.0847 11.7626C12.9718 10.6201 13.5 9.18494 13.5 7.62646C13.5 3.89854 10.4779 0.876465 6.75 0.876465C3.02208 0.876465 0 3.89854 0 7.62646ZM1.8 7.62646C1.8 4.89266 4.01619 2.67646 6.75 2.67646C9.48381 2.67646 11.7 4.89266 11.7 7.62646C11.7 10.3603 9.48381 12.5765 6.75 12.5765C4.01619 12.5765 1.8 10.3603 1.8 7.62646Z" fill="white"/>
</svg>
