<svg width="18" height="20" viewBox="0 0 18 20" fill="none" xmlns="http://www.w3.org/2000/svg">
<path d="M15.9386 11.0458C15.6118 10.8061 15.4166 10.4211 15.4166 10.0155C15.4166 9.60986 15.6118 9.22486 15.9381 8.98561L17.4479 7.87874C17.6885 7.70182 17.788 7.39061 17.694 7.10691C17.3054 5.93907 16.6907 4.87391 15.8666 3.94028C15.6682 3.71661 15.3483 3.64603 15.0746 3.76611L13.3747 4.51366C13.0044 4.67682 12.5731 4.65345 12.2215 4.45041C11.8704 4.24782 11.6349 3.88666 11.5904 3.48378L11.386 1.61745C11.3534 1.32045 11.1325 1.07845 10.8401 1.01841C9.64981 0.775031 8.39902 0.770906 7.18765 1.01382C6.8934 1.07295 6.67202 1.31495 6.63948 1.61332L6.4369 3.46774C6.39244 3.87107 6.15686 4.23224 5.80486 4.43482C5.45377 4.63741 5.02386 4.6617 4.65215 4.49807L2.94302 3.74641C2.67169 3.62632 2.35086 3.69599 2.1524 3.9192C1.32556 4.84916 0.708189 5.91295 0.315398 7.07986C0.220064 7.36311 0.319064 7.67616 0.560606 7.85353L2.06073 8.95353C2.38798 9.1937 2.58323 9.5787 2.58323 9.98432C2.58323 10.3899 2.38798 10.7749 2.06165 11.0142L0.551897 12.1211C0.311272 12.298 0.211814 12.6092 0.305773 12.8929C0.694439 14.0607 1.30906 15.1259 2.13315 16.0595C2.33161 16.2837 2.65244 16.3547 2.92515 16.2337L4.62511 15.4862C4.99544 15.323 5.42627 15.3464 5.77827 15.5494C6.12936 15.752 6.36494 16.1132 6.4094 16.516L6.61381 18.3824C6.64636 18.6794 6.86727 18.9214 7.15969 18.9814C7.76194 19.1042 8.38069 19.1666 8.9999 19.1666C9.60398 19.1666 10.2136 19.1056 10.8117 18.9855C11.1059 18.9264 11.3273 18.6844 11.3599 18.386L11.5629 16.5316C11.6074 16.1283 11.8429 15.7671 12.1949 15.5645C12.546 15.3624 12.9764 15.3386 13.3476 15.5013L15.0568 16.2529C15.329 16.3735 15.6489 16.3038 15.8474 16.0802C16.6742 15.1502 17.2916 14.0864 17.6844 12.9195C17.7797 12.6362 17.6807 12.3232 17.4392 12.1458L15.9386 11.0458ZM8.9999 13.2082C7.22798 13.2082 5.79156 11.7718 5.79156 9.99991C5.79156 8.22799 7.22798 6.79157 8.9999 6.79157C10.7718 6.79157 12.2082 8.22799 12.2082 9.99991C12.2082 11.7718 10.7718 13.2082 8.9999 13.2082Z" fill="#AFB0B1"/>
</svg>
