<svg width="24" height="24" viewBox="0 0 24 24" fill="none" xmlns="http://www.w3.org/2000/svg">
<path d="M19 12C19.5523 12 20 12.4477 20 13C20 13.5128 19.614 13.9355 19.1166 13.9933L19 14H16.8907C17.1073 14.3274 17.2822 14.6843 17.4085 15.0632C18.3613 17.9218 16.2992 20.8717 13.3248 20.9959L13.1295 21H11.4276C9.33508 21 7.41548 19.8616 6.40836 18.0416L6.29625 17.8286L6.11406 17.4642C6.07774 17.3951 6.04927 17.3211 6.02987 17.2436C5.99808 17.1175 5.99194 16.9887 6.00918 16.8639C6.04771 16.5852 6.20307 16.3268 6.44999 16.1647C6.54553 16.1017 6.65252 16.0546 6.76716 16.0272C6.88516 15.9989 7.00534 15.9929 7.12218 16.0074C7.41451 16.043 7.6679 16.2048 7.82628 16.4366L7.86804 16.5032L8.08511 16.9342C8.68649 18.137 9.88436 18.9189 11.2163 18.994L11.4276 19H13.1295C14.843 19 16.053 17.3213 15.5111 15.6957C15.3216 15.1272 14.9359 14.6474 14.4265 14.3401L14.2522 14.2441L13.7639 14H5C4.44772 14 4 13.5523 4 13C4 12.4872 4.38604 12.0645 4.88338 12.0067L5 12H19ZM12.5723 3C14.7453 3 16.7319 4.22775 17.7037 6.17137L17.8849 6.53388C17.926 6.61173 17.9572 6.69566 17.9766 6.78396C18.0345 7.04488 17.984 7.31519 17.8448 7.53528C17.7729 7.64908 17.6772 7.74945 17.5607 7.82816C17.4608 7.89591 17.348 7.94607 17.2268 7.97418C16.9685 8.03452 16.7003 7.98813 16.48 7.85433C16.3558 7.77888 16.2468 7.67563 16.1634 7.54805L16.1279 7.4897L15.9148 7.0658C15.2818 5.79974 13.9878 5 12.5723 5H10.8705C9.15693 5 7.94698 6.67873 8.48884 8.30432C8.69939 8.93596 9.15223 9.45809 9.74775 9.75585L12.236 11H8.01262C7.35876 10.4645 6.86299 9.75131 6.59147 8.93677C5.61792 6.01612 7.79182 3 10.8705 3H12.5723Z" fill="#7E7F81"/>
</svg>
