<svg width="27" height="26" viewBox="0 0 27 26" fill="none" xmlns="http://www.w3.org/2000/svg">
<path d="M20 0H7C3.42532 0 0.5 2.92532 0.5 6.5V19.5006C0.5 23.0744 3.42532 26.0006 7 26.0006H20C23.5747 26.0006 26.5 23.0744 26.5 19.5006V6.5C26.5 2.92532 23.5747 0 20 0ZM24.3332 19.5006C24.3332 21.8894 22.3901 23.8339 20 23.8339H7C4.61093 23.8339 2.66677 21.8894 2.66677 19.5006V6.5C2.66677 4.11062 4.61093 2.16677 7 2.16677H20C22.3901 2.16677 24.3332 4.11062 24.3332 6.5V19.5006Z" fill="#AFB0B1"/>
<path d="M20.552 8.90345C20.4949 8.92088 20.4374 8.93744 20.3795 8.95311C20.1828 9.00631 20.0396 8.76027 20.1799 8.6102C20.3272 8.45275 20.4569 8.27848 20.566 8.09069C20.6682 7.91472 20.4882 7.71 20.3056 7.79518C19.9269 7.97172 19.5259 8.10788 19.1079 8.19906C19.0403 8.21378 18.9706 8.1904 18.9212 8.14112C17.0025 6.22528 13.6718 7.87536 14.0743 10.5859C14.0939 10.7179 13.9847 10.8325 13.8541 10.8217C11.6913 10.6417 9.76865 9.61409 8.41703 8.07035C8.31894 7.95832 8.13963 7.98562 8.07911 8.12248C7.62314 9.15473 7.81653 10.3694 8.57148 11.2081C8.71198 11.3641 8.56373 11.6105 8.36464 11.5494C8.171 11.49 7.98605 11.4108 7.8125 11.3141V11.3505C7.8125 12.4368 8.41486 13.3828 9.30294 13.8706C9.48294 13.9695 9.45218 14.2811 9.14805 14.2586C8.9936 14.2473 8.88101 14.4092 8.94747 14.5518C9.32545 15.3623 10.0699 15.9671 10.967 16.1511C11.1483 16.1883 11.1921 16.4311 11.0354 16.5314C10.1386 17.1059 9.12158 17.4075 8.09511 17.436C7.88238 17.4418 7.81858 17.7341 8.00961 17.8298C9.10285 18.3774 10.335 18.6873 11.6392 18.6873C16.9043 18.6873 19.7821 14.313 19.7821 10.5188C19.7821 10.4312 19.7813 10.3436 19.7788 10.2563C19.7769 10.1878 19.8078 10.1235 19.8619 10.0828C20.1899 9.83593 20.4915 9.55337 20.7605 9.24212C20.8958 9.08555 20.7481 8.84361 20.552 8.90345Z" fill="#AFB0B1"/>
</svg>
