<svg width="24" height="24" viewBox="0 0 24 24" fill="none" xmlns="http://www.w3.org/2000/svg">
<path d="M18 19C18.5523 19 19 19.4477 19 20C19 20.5128 18.614 20.9355 18.1166 20.9933L18 21H6C5.44772 21 5 20.5523 5 20C5 19.4872 5.38604 19.0645 5.88338 19.0067L6 19H18ZM17 3C17.5128 3 17.9355 3.38604 17.9933 3.88338L18 4V12C18 15.3137 15.3137 18 12 18C8.7616 18 6.12243 15.4344 6.00414 12.2249L6 12V4C6 3.44772 6.44772 3 7 3C7.51283 3 7.93551 3.38604 7.99327 3.88338L8 4V12C8 14.2091 9.79086 16 12 16C14.1422 16 15.8911 14.316 15.9951 12.1996L16 12V4C16 3.44772 16.4477 3 17 3Z" fill="#7E7F81"/>
</svg>
