<svg width="14" height="13" viewBox="0 0 14 13" fill="none" xmlns="http://www.w3.org/2000/svg">
<path d="M2.10614 0.414185C2.02129 0.414205 1.93838 0.439541 1.86801 0.486949C1.79764 0.534357 1.74301 0.601682 1.71112 0.68031C1.67922 0.758938 1.67152 0.845294 1.68898 0.928328C1.70644 1.01136 1.74828 1.0873 1.80914 1.14642L2.21106 1.54834C2.25035 1.58926 2.29741 1.62193 2.34947 1.64443C2.40154 1.66694 2.45758 1.67883 2.5143 1.6794C2.57102 1.67998 2.62729 1.66923 2.67981 1.64779C2.73232 1.62635 2.78003 1.59465 2.82014 1.55454C2.86025 1.51443 2.89196 1.46672 2.9134 1.4142C2.93484 1.36168 2.94559 1.30542 2.94501 1.2487C2.94443 1.19198 2.93254 1.13594 2.91004 1.08387C2.88753 1.0318 2.85487 0.984744 2.81395 0.945458L2.41203 0.543533C2.37228 0.502607 2.32474 0.470072 2.27219 0.447854C2.21965 0.425636 2.16319 0.414187 2.10614 0.414185ZM11.8817 0.41474C11.771 0.417967 11.6658 0.464158 11.5886 0.543533L11.1866 0.945458C11.1457 0.984744 11.113 1.0318 11.0905 1.08387C11.068 1.13594 11.0562 1.19198 11.0556 1.2487C11.055 1.30542 11.0657 1.36169 11.0872 1.4142C11.1086 1.46672 11.1403 1.51443 11.1804 1.55454C11.2205 1.59465 11.2683 1.62636 11.3208 1.6478C11.3733 1.66924 11.4296 1.67998 11.4863 1.67941C11.543 1.67883 11.599 1.66694 11.6511 1.64444C11.7032 1.62193 11.7502 1.58926 11.7895 1.54834L12.1914 1.14642C12.253 1.08652 12.2949 1.00944 12.3119 0.925276C12.3289 0.841113 12.3201 0.753784 12.2866 0.674719C12.2531 0.595655 12.1966 0.528537 12.1243 0.48215C12.0521 0.435763 11.9675 0.412268 11.8817 0.41474ZM7.00029 1.05094C4.80686 1.05179 3.02102 2.83039 3.02102 5.0241C3.02102 6.12238 3.47723 7.16418 4.26399 7.9103C4.56357 8.19425 4.75458 8.57397 4.84411 8.97673L4.97679 9.57185H9.02379L9.15647 8.97673C9.24601 8.57397 9.4373 8.19425 9.7366 7.9103C10.5236 7.16418 10.9796 6.12238 10.9796 5.0241C10.9796 2.83039 9.19373 1.05179 7.00029 1.05094ZM0.605031 4.1714C0.548534 4.1706 0.492442 4.18104 0.440014 4.20211C0.387587 4.22318 0.339869 4.25445 0.299635 4.29412C0.2594 4.33379 0.227451 4.38106 0.205644 4.43319C0.183837 4.48531 0.172607 4.54125 0.172607 4.59775C0.172607 4.65425 0.183837 4.71019 0.205644 4.76232C0.227451 4.81444 0.2594 4.86171 0.299635 4.90138C0.339869 4.94105 0.387587 4.97233 0.440014 4.9934C0.492442 5.01446 0.548534 5.0249 0.605031 5.0241H1.45773C1.51423 5.0249 1.57032 5.01446 1.62275 4.9934C1.67518 4.97233 1.72289 4.94105 1.76313 4.90138C1.80336 4.86171 1.83531 4.81444 1.85712 4.76232C1.87893 4.71019 1.89016 4.65425 1.89016 4.59775C1.89016 4.54125 1.87893 4.48531 1.85712 4.43319C1.83531 4.38106 1.80336 4.33379 1.76313 4.29412C1.72289 4.25445 1.67518 4.22318 1.62275 4.20211C1.57032 4.18104 1.51423 4.1706 1.45773 4.1714H0.605031ZM12.5429 4.1714C12.4864 4.1706 12.4303 4.18104 12.3778 4.20211C12.3254 4.22318 12.2777 4.25445 12.2375 4.29412C12.1972 4.33379 12.1653 4.38106 12.1435 4.43319C12.1217 4.48531 12.1104 4.54125 12.1104 4.59775C12.1104 4.65425 12.1217 4.71019 12.1435 4.76232C12.1653 4.81444 12.1972 4.86171 12.2375 4.90138C12.2777 4.94105 12.3254 4.97233 12.3778 4.9934C12.4303 5.01446 12.4864 5.0249 12.5429 5.0241H13.3956C13.4521 5.0249 13.5081 5.01446 13.5606 4.9934C13.613 4.97233 13.6607 4.94105 13.7009 4.90138C13.7412 4.86171 13.7731 4.81444 13.7949 4.76232C13.8167 4.71019 13.828 4.65425 13.828 4.59775C13.828 4.54125 13.8167 4.48531 13.7949 4.43319C13.7731 4.38106 13.7412 4.33379 13.7009 4.29412C13.6607 4.25445 13.613 4.22318 13.5606 4.20211C13.5081 4.18104 13.4521 4.1706 13.3956 4.1714H12.5429ZM11.4836 7.51781C11.3988 7.51783 11.3159 7.54317 11.2455 7.59058C11.1751 7.63798 11.1205 7.70531 11.0886 7.78394C11.0567 7.86257 11.049 7.94892 11.0665 8.03195C11.0839 8.11499 11.1258 8.19092 11.1866 8.25005L11.5886 8.65197C11.6278 8.69289 11.6749 8.72556 11.727 8.74806C11.779 8.77056 11.8351 8.78245 11.8918 8.78303C11.9485 8.78361 12.0048 8.77286 12.0573 8.75142C12.1098 8.72998 12.1575 8.69827 12.1976 8.65816C12.2377 8.61805 12.2695 8.57034 12.2909 8.51783C12.3123 8.46531 12.3231 8.40904 12.3225 8.35232C12.3219 8.2956 12.31 8.23957 12.2875 8.1875C12.265 8.13543 12.2324 8.08837 12.1914 8.04908L11.7895 7.64716C11.7498 7.60623 11.7022 7.5737 11.6497 7.55148C11.5971 7.52926 11.5407 7.51781 11.4836 7.51781ZM2.50418 7.51837C2.39345 7.52159 2.28833 7.56778 2.21106 7.64716L1.80914 8.04908C1.76822 8.08837 1.73555 8.13543 1.71305 8.1875C1.69055 8.23957 1.67866 8.2956 1.67808 8.35232C1.6775 8.40904 1.68825 8.46531 1.70969 8.51783C1.73113 8.57034 1.76284 8.61805 1.80295 8.65816C1.84306 8.69827 1.89077 8.72998 1.94328 8.75142C1.9958 8.77286 2.05207 8.78361 2.10879 8.78303C2.16551 8.78245 2.22154 8.77056 2.27361 8.74806C2.32568 8.72556 2.37274 8.69289 2.41203 8.65197L2.81395 8.25005C2.87546 8.19014 2.91745 8.11307 2.93443 8.0289C2.95141 7.94474 2.94258 7.85741 2.90911 7.77835C2.87563 7.69928 2.81907 7.63216 2.74682 7.58578C2.67457 7.53939 2.59 7.51589 2.50418 7.51837ZM5.1661 10.4245L5.43479 11.6353C5.53597 12.0907 5.94014 12.4142 6.40629 12.4142H7.5943C8.06044 12.4142 8.46461 12.0907 8.5658 11.6353L8.83449 10.4245H5.1661Z" fill="white"/>
</svg>
