<svg width="22" height="20" viewBox="0 0 22 20" fill="none" xmlns="http://www.w3.org/2000/svg">
<path d="M1.44088 19.2047C1.46742 19.2074 1.49451 19.2085 1.52105 19.2085C1.90455 19.2085 2.24038 18.9382 2.3173 18.5552C3.45372 12.8699 9.37901 12.4653 12.083 12.5909V16.771C12.083 17.0992 12.2807 17.3955 12.5846 17.5217C12.8879 17.6468 13.2373 17.578 13.4702 17.3457L21.0535 9.76233C21.371 9.44546 21.371 8.93034 21.0535 8.61346L13.4702 1.03013C13.2378 0.797752 12.8885 0.727877 12.5846 0.854086C12.2807 0.979211 12.083 1.2755 12.083 1.60429V5.77242C9.0318 6.17108 0.708008 8.19475 0.708008 18.396C0.708008 18.8136 1.02488 19.1635 1.44088 19.2047Z" fill="#A2B6D7"/>
</svg>
