<svg width="20" height="13" viewBox="0 0 20 13" fill="none" xmlns="http://www.w3.org/2000/svg">
<path d="M9.99441 0.75C5.2779 0.75 1.12213 4.01913 0.0196353 8.3029C-0.021589 8.46348 0.00266548 8.63386 0.0870629 8.77655C0.17146 8.91925 0.309087 9.02258 0.469668 9.0638C0.630248 9.10503 0.800628 9.08077 0.943325 8.99637C1.08602 8.91198 1.18935 8.77435 1.23057 8.61377C2.18057 4.92253 5.86092 2 9.99441 2C14.1279 2 17.8199 4.92356 18.7696 8.61377C18.8109 8.77435 18.9142 8.91198 19.0569 8.99637C19.1996 9.08077 19.37 9.10503 19.5305 9.0638C19.6911 9.02258 19.8287 8.91925 19.9131 8.77655C19.9975 8.63386 20.0218 8.46348 19.9806 8.3029C18.8778 4.0181 14.7109 0.75 9.99441 0.75ZM10.0009 4.08333C7.78422 4.08333 5.97423 5.89333 5.97423 8.11003C5.97423 10.3267 7.78422 12.1375 10.0009 12.1375C12.2176 12.1375 14.0284 10.3267 14.0284 8.11003C14.0284 5.89333 12.2176 4.08333 10.0009 4.08333Z" fill="#7E7F81"/>
</svg>
