<svg width="320" height="320" viewBox="0 0 320 320" fill="none" xmlns="http://www.w3.org/2000/svg">
<path d="M284.615 223.453H168.937C166.869 223.453 165.186 221.77 165.186 219.701V51.2058C165.186 49.1373 166.869 47.4541 168.937 47.4541H284.615C286.683 47.4541 288.366 49.1367 288.366 51.2058V219.701C288.366 221.77 286.683 223.453 284.615 223.453ZM168.937 47.6141C166.956 47.6141 165.346 49.2256 165.346 51.2058V219.701C165.346 221.681 166.957 223.292 168.937 223.292H284.615C286.595 223.292 288.206 221.681 288.206 219.701V51.2058C288.206 49.2256 286.595 47.6141 284.615 47.6141H168.937Z" fill="#F0F0F0"/>
<path d="M151.22 223.453H35.5427C33.4742 223.453 31.791 221.77 31.791 219.701V51.2058C31.791 49.1373 33.4736 47.4541 35.5427 47.4541H151.22C153.289 47.4541 154.972 49.1367 154.972 51.2058V219.701C154.972 221.77 153.289 223.453 151.22 223.453ZM35.5427 47.6141C33.5625 47.6141 31.951 49.2256 31.951 51.2058V219.701C31.951 221.681 33.5625 223.292 35.5427 223.292H151.22C153.201 223.292 154.812 221.681 155.281 219.345V50.8506C154.812 49.2256 153.201 47.6147 151.22 47.6147L35.5427 47.6141Z" fill="#F0F0F0"/>
<path d="M320 262.537H0V262.697H320V262.537Z" fill="#F0F0F0"/>
<path d="M53.7845 247.705C53.7845 247.705 48.2319 248.936 49.0568 245.062C49.8818 241.187 49.821 239.759 47.5643 237.998C45.3077 236.237 43.0363 235.367 44.765 232.579C46.493 229.791 43.2143 227.624 41.5195 226.123C39.8248 224.622 41.7378 223.49 42.1864 220.653C42.6351 217.816 39.5835 218.242 39.3435 214.669C39.1035 211.096 42.7336 206.919 39.613 202C39.613 202 43.805 204.175 45.1823 207.993C46.5595 211.812 45.4479 214.762 47.924 216.214C50.4002 217.665 51.9509 220.176 51.1093 222.752C50.2677 225.329 51.4632 226.696 53.4933 228.575C55.5234 230.454 54.9826 231.201 54.7304 233.499C54.4776 235.796 54.9851 235.253 57.309 238.392C59.6341 241.531 59.693 246.676 53.7845 247.705Z" fill="#F0F0F0"/>
<path d="M54.5751 247.534C54.5636 247.515 54.554 247.496 54.5469 247.474L43.4359 213.75C43.3879 213.606 43.4673 213.449 43.6113 213.401C43.6132 213.401 43.6151 213.4 43.6164 213.399C43.7597 213.355 43.914 213.434 43.9607 213.577L55.0711 247.3C55.0807 247.327 55.0845 247.355 55.0852 247.383L54.5751 247.534Z" fill="#E0E0E0"/>
<path d="M63.8034 247.636C63.8034 247.636 69.3266 248.86 68.5062 245.006C67.6857 241.153 67.7458 239.732 69.9903 237.98C72.2354 236.228 74.494 235.363 72.775 232.59C71.0559 229.817 74.3174 227.661 76.0031 226.168C77.6889 224.675 75.7855 223.549 75.3394 220.728C74.8927 217.906 77.9289 218.33 78.167 214.775C78.405 211.22 74.7942 207.066 77.8988 202.174C77.8988 202.174 73.7286 204.337 72.359 208.135C70.9894 211.933 72.0953 214.868 69.6319 216.312C67.1686 217.756 65.6262 220.253 66.4633 222.816C67.3004 225.379 66.1113 226.738 64.0914 228.607C62.0722 230.477 62.6098 231.22 62.8607 233.505C63.1122 235.79 62.6073 235.25 60.2956 238.372C57.9846 241.494 57.9257 246.612 63.8034 247.636Z" fill="#F0F0F0"/>
<path d="M62.5078 247.315C62.5085 247.288 62.5123 247.26 62.5219 247.233L73.5734 213.69C73.6208 213.547 73.7737 213.468 73.9165 213.513C73.9184 213.514 73.9203 213.514 73.9216 213.515C74.0649 213.562 74.1437 213.718 74.0963 213.862L63.0448 247.407C63.0377 247.429 63.0281 247.448 63.0166 247.466L62.5078 247.315Z" fill="#E0E0E0"/>
<path d="M57.6705 246.934C57.6705 246.934 51.3147 246.408 53.4849 242.532C55.6551 238.657 56.0647 237.106 54.2324 234.471C52.4001 231.835 50.2561 230.15 53.0331 227.737C55.81 225.324 53.0177 221.914 51.7012 219.743C50.3847 217.573 52.8091 216.996 54.2324 214.107C55.6551 211.217 52.2446 210.66 53.1751 206.753C54.1051 202.846 59.3806 199.579 57.6705 193.274C57.6705 193.274 61.4388 196.995 61.6455 201.542C61.8523 206.09 59.682 208.881 61.8523 211.258C64.0225 213.634 64.8494 216.838 63.0926 219.319C61.3358 221.8 62.1627 223.66 63.7127 226.347C65.2628 229.034 64.4359 229.654 63.4023 232.031C62.3687 234.408 63.0926 233.995 64.539 238.129C65.9867 242.264 64.3412 247.793 57.6705 246.934Z" fill="#F5F5F5"/>
<path d="M58.5744 247.013C58.568 246.989 58.5641 246.966 58.5641 246.939L57.8633 207.129C57.8601 206.959 57.9965 206.817 58.1673 206.814C58.1693 206.814 58.1718 206.814 58.1737 206.814C58.3421 206.814 58.4809 206.949 58.4841 207.119L59.1849 246.928C59.1862 246.96 59.1811 246.991 59.1728 247.021L58.5744 247.013Z" fill="#E0E0E0"/>
<path d="M74.9777 243.859H43.8916C42.9975 243.859 42.3793 244.752 42.6948 245.588L43.1549 246.809L43.4455 247.582L44.2801 249.797L44.5719 250.57L45.4289 252.845L45.7194 253.617L49.1389 262.697H69.7309L73.1505 253.617L73.441 252.845L74.298 250.57L74.5898 249.797L75.4244 247.582L75.7149 246.809L76.1751 245.588C76.4887 244.752 75.8711 243.859 74.9777 243.859Z" fill="#E6E6E6"/>
<path d="M52.4698 180.876H72.6752C73.2051 180.876 73.6352 180.445 73.6352 179.916V175.354C73.6352 174.824 73.2051 174.394 72.6752 174.394H52.4698C51.9398 174.394 51.5098 174.824 51.5098 175.354V179.916C51.5098 180.446 51.9398 180.876 52.4698 180.876Z" fill="#F5F5F5"/>
<path d="M40.4014 189.142H60.6068C61.1368 189.142 61.5668 188.712 61.5668 188.182V183.621C61.5668 183.091 61.1368 182.661 60.6068 182.661H40.4014C39.8708 182.661 39.4414 183.091 39.4414 183.621V188.182C39.4414 188.712 39.8715 189.142 40.4014 189.142Z" fill="#F5F5F5"/>
<path d="M192.228 170.721H172.022C171.493 170.721 171.062 170.291 171.062 169.761V165.2C171.062 164.67 171.493 164.24 172.022 164.24H192.228C192.758 164.24 193.188 164.67 193.188 165.2V169.761C193.188 170.292 192.758 170.721 192.228 170.721Z" fill="#F5F5F5"/>
<path d="M204.296 178.987H184.091C183.561 178.987 183.131 178.557 183.131 178.027V173.466C183.131 172.936 183.561 172.506 184.091 172.506H204.296C204.826 172.506 205.256 172.936 205.256 173.466V178.027C205.256 178.557 204.826 178.987 204.296 178.987Z" fill="#F5F5F5"/>
<path d="M137.701 122.703H117.495C116.965 122.703 116.535 122.273 116.535 121.743V117.181C116.535 116.652 116.965 116.221 117.495 116.221H137.701C138.231 116.221 138.661 116.652 138.661 117.181V121.743C138.661 122.273 138.231 122.703 137.701 122.703Z" fill="#F5F5F5"/>
<path d="M149.769 130.969H129.564C129.034 130.969 128.604 130.539 128.604 130.009V125.448C128.604 124.918 129.034 124.488 129.564 124.488H149.769C150.299 124.488 150.729 124.918 150.729 125.448V130.009C150.729 130.539 150.3 130.969 149.769 130.969Z" fill="#F5F5F5"/>
<path d="M119.597 76.0672H99.3916C98.8617 76.0672 98.4316 75.6371 98.4316 75.1072V70.5459C98.4316 70.0154 98.8617 69.5859 99.3916 69.5859H119.597C120.127 69.5859 120.557 70.0154 120.557 70.5459V75.1072C120.557 75.6378 120.127 76.0672 119.597 76.0672Z" fill="#F5F5F5"/>
<path d="M143.734 76.0672H123.528C122.998 76.0672 122.568 75.6371 122.568 75.1072V70.5459C122.568 70.0154 122.998 69.5859 123.528 69.5859H143.734C144.264 69.5859 144.694 70.0154 144.694 70.5459V75.1072C144.694 75.6378 144.264 76.0672 143.734 76.0672Z" fill="#F5F5F5"/>
<path d="M131.665 84.3336H111.46C110.929 84.3336 110.5 83.9035 110.5 83.3736V78.8123C110.5 78.2824 110.929 77.8523 111.46 77.8523H131.665C132.195 77.8523 132.625 78.2824 132.625 78.8123V83.3736C132.625 83.9035 132.195 84.3336 131.665 84.3336Z" fill="#F5F5F5"/>
<path d="M276.412 62.4448H228.398V110.458H276.412V62.4448Z" fill="#E6E6E6"/>
<path d="M273.98 108.028V64.8755L230.828 64.8755V108.028H273.98Z" fill="#FAFAFA"/>
<path d="M249.512 98.2279C249.512 98.2279 257.436 81.9821 273.98 81.657V108.028H252.404L249.512 98.2279Z" fill="#F0F0F0"/>
<path d="M230.83 93.6666C230.83 93.6666 237.955 89.9316 245.197 92.6733C254.292 96.1165 259.565 108.028 259.565 108.028H230.83V93.6666Z" fill="#F5F5F5"/>
<path d="M253.246 78.5556C253.246 82.7604 249.838 86.169 245.633 86.169C241.428 86.169 238.02 82.7604 238.02 78.5556C238.02 74.3508 241.428 70.9421 245.633 70.9421C249.838 70.9415 253.246 74.3508 253.246 78.5556Z" fill="white"/>
<path d="M86.9747 62.5439H42.6055V148.441H86.9747V62.5439Z" fill="#E6E6E6"/>
<path d="M84.4141 145.881L84.4141 65.104L45.1648 65.104L45.1648 145.881H84.4141Z" fill="#FAFAFA"/>
<path d="M58.7555 98.1536C63.1844 98.1536 66.7747 94.5633 66.7747 90.1344C66.7747 85.7056 63.1844 82.1152 58.7555 82.1152C54.3266 82.1152 50.7363 85.7056 50.7363 90.1344C50.7363 94.5633 54.3266 98.1536 58.7555 98.1536Z" fill="white"/>
<path d="M52.502 145.881C52.502 145.881 62.4354 98.1177 84.4136 93.8291V145.881H64.7893H52.502Z" fill="#F0F0F0"/>
<path d="M45.166 117.535C45.166 117.535 50.2227 112.659 58.2335 115.574C73.2876 121.051 81.6902 145.881 81.6902 145.881H45.166V117.535Z" fill="#F5F5F5"/>
<path d="M276.787 254.51L280.408 200.489H238.721L242.342 254.51H276.787Z" fill="#F5F5F5"/>
<path d="M280.061 205.571L239.23 207.923L238.938 203.643H280.193L280.061 205.571Z" fill="#E6E6E6"/>
<path d="M282.628 203.643H236.502C236.347 203.643 236.221 203.518 236.221 203.362V199.192C236.221 199.037 236.347 198.911 236.502 198.911H282.628C282.783 198.911 282.909 199.036 282.909 199.192V203.362C282.909 203.518 282.783 203.643 282.628 203.643Z" fill="#F5F5F5"/>
<path d="M275.738 212.334L274.713 230.394H244.415L243.391 212.334H275.738Z" fill="#E6E6E6"/>
<path d="M261.077 222.109C261.077 222.944 260.4 223.621 259.565 223.621C258.73 223.621 258.053 222.944 258.053 222.109C258.053 221.274 258.73 220.597 259.565 220.597C260.4 220.597 261.077 221.274 261.077 222.109Z" fill="#E0E0E0"/>
<path d="M274.312 234.624L273.378 251.091H245.751L244.816 234.624H274.312Z" fill="#E6E6E6"/>
<path d="M261.077 243.455C261.077 244.291 260.4 244.968 259.565 244.968C258.73 244.968 258.053 244.291 258.053 243.455C258.053 242.62 258.73 241.943 259.565 241.943C260.4 241.943 261.077 242.62 261.077 243.455Z" fill="#E0E0E0"/>
<path d="M255.123 254.511C255.041 254.511 254.959 254.512 254.878 254.512C250.697 254.567 247.111 257.448 246.18 261.431L245.921 262.537H242.683L242.371 254.51H255.123V254.511Z" fill="#E6E6E6"/>
<path d="M264.018 254.511C264.1 254.511 264.182 254.512 264.263 254.512C268.444 254.567 272.03 257.448 272.961 261.431L273.219 262.537H276.444L276.77 254.51H264.018V254.511Z" fill="#E6E6E6"/>
<path d="M251.265 171.918C251.265 171.918 247.613 172.958 243.584 167.737C240.672 163.963 235.518 155.911 228.406 155.773C228.406 155.773 236.846 152.116 244.294 155.841C251.741 159.567 255.716 169.209 251.265 171.918Z" fill="#F0F0F0"/>
<path d="M253.443 186.993C253.439 186.993 253.436 186.993 253.433 186.993C253.327 186.988 253.245 186.897 253.25 186.791C253.252 186.741 253.487 181.704 252.485 175.971C251.565 170.703 249.384 163.749 244.218 160.543C244.127 160.487 244.1 160.368 244.156 160.278C244.212 160.187 244.332 160.159 244.422 160.216C246.762 161.668 248.703 163.975 250.189 167.074C251.373 169.542 252.274 172.515 252.867 175.912C253.874 181.687 253.638 186.76 253.635 186.811C253.63 186.913 253.544 186.993 253.443 186.993Z" fill="#E0E0E0"/>
<path d="M254.03 160.421C254.03 160.421 257.728 159.555 258.712 153.034C259.423 148.321 260.015 138.779 266.163 135.203C266.163 135.203 257.01 136.107 252.31 142.982C247.611 149.858 248.824 160.216 254.03 160.421Z" fill="#F0F0F0"/>
<path d="M259.118 187.42C259.039 187.42 258.966 187.371 258.937 187.293C258.913 187.226 256.476 180.508 254.697 172.22C253.652 167.349 253.035 162.895 252.864 158.982C252.649 154.078 253.136 150.011 254.313 146.893C254.351 146.793 254.462 146.743 254.561 146.78C254.661 146.818 254.711 146.929 254.674 147.029C252.047 153.989 253.441 164.522 255.074 172.133C256.847 180.396 259.275 187.093 259.299 187.16C259.336 187.26 259.284 187.37 259.184 187.408C259.163 187.416 259.14 187.42 259.118 187.42Z" fill="#E0E0E0"/>
<path d="M260.498 163.614C260.498 163.614 264.261 164.128 267.512 158.39C269.862 154.243 273.826 145.543 280.847 144.402C280.847 144.402 271.975 141.974 265.129 146.714C258.281 151.453 255.71 161.561 260.498 163.614Z" fill="#F0F0F0"/>
<path d="M261.075 187.419C260.985 187.419 260.904 187.355 260.886 187.263C260.874 187.2 259.643 180.862 259.606 173.281C259.585 168.825 259.975 164.815 260.765 161.364C261.755 157.037 263.382 153.577 265.601 151.081C265.672 151.002 265.793 150.994 265.873 151.065C265.953 151.136 265.96 151.258 265.889 151.338C260.956 156.888 259.96 166.333 259.992 173.279C260.028 180.824 261.252 187.126 261.265 187.188C261.285 187.293 261.217 187.394 261.113 187.415C261.1 187.418 261.088 187.419 261.075 187.419Z" fill="#E0E0E0"/>
<path d="M266.963 172.39C266.963 172.39 270.548 173.642 274.874 168.664C278.001 165.066 283.615 157.328 290.723 157.604C290.723 157.604 282.511 153.462 274.859 156.747C267.206 160.032 262.677 169.426 266.963 172.39Z" fill="#F0F0F0"/>
<path d="M263.471 187.419C263.366 187.419 263.281 187.336 263.278 187.231C263.277 187.188 263.169 182.831 264.486 177.469C265.259 174.317 266.367 171.437 267.776 168.908C269.54 165.743 271.787 163.123 274.452 161.121C274.537 161.057 274.658 161.074 274.722 161.159C274.786 161.244 274.769 161.365 274.683 161.429C268.742 165.891 266.063 172.664 264.861 177.56C263.556 182.873 263.663 187.177 263.664 187.22C263.667 187.326 263.583 187.415 263.476 187.418C263.474 187.419 263.473 187.419 263.471 187.419Z" fill="#E0E0E0"/>
<path d="M275.094 191.897C275.083 192.465 274.993 193.04 274.826 193.618C274.097 196.147 271.918 198.002 269.313 198.374C262.952 199.283 256.391 199.219 249.66 198.334C246.714 197.946 244.31 195.706 243.843 192.772C243.763 192.276 243.744 191.783 243.784 191.294C243.923 189.602 244.791 187.953 246.494 186.353H272.364C274.27 188.143 275.13 189.993 275.094 191.897Z" fill="#E0E0E0"/>
<path d="M288.206 288.567C288.206 290.738 232.039 292.497 162.752 292.497C93.4665 292.497 37.2988 290.738 37.2988 288.567C37.2988 286.396 93.4665 284.637 162.752 284.637C232.039 284.637 288.206 286.396 288.206 288.567Z" fill="#F0F0F0"/>
<path d="M215.415 130.438C213.316 134.15 211.083 137.664 208.67 141.171C207.684 142.598 206.667 144.019 205.579 145.421C205.335 145.741 205.092 146.054 204.843 146.368C204.606 146.669 204.369 146.963 204.126 147.264C203.665 147.821 203.191 148.378 202.686 148.941C201.899 149.805 201.105 150.656 199.985 151.584C199.377 152.051 198.82 152.563 197.431 153.139C197.22 153.216 197.035 153.28 196.804 153.338C196.548 153.402 196.254 153.459 196.023 153.485C195.819 153.504 195.614 153.523 195.415 153.523C195.236 153.523 195.063 153.51 194.884 153.498C194.219 153.446 193.7 153.318 193.239 153.184C192.356 152.896 191.697 152.563 191.095 152.23C190.5 151.898 189.969 151.558 189.463 151.206C187.486 149.83 185.886 148.339 184.311 146.842C181.214 143.808 178.481 139.629 177.148 137.183L179.043 134.297C180.636 135.532 182.396 136.837 184.022 138.053C185.635 139.288 187.163 140.467 188.795 141.6C190.395 142.746 192.151 143.597 193.674 144.41C193.981 144.563 194.282 144.71 194.557 144.832C194.96 144.416 195.459 143.821 195.927 143.219C196.49 142.496 197.059 141.728 197.623 140.934C198.743 139.347 199.85 137.677 200.938 135.994C203.12 132.627 205.271 129.126 207.395 125.734L215.415 130.438Z" fill="#4AB100"/>
<path d="M174.806 135.203C174.806 135.203 173.401 133.972 172.146 132.973C170.891 131.974 173.229 131.917 174.313 132.466C175.776 133.208 176.745 134.162 176.745 134.162L174.806 135.203Z" fill="#FFC3BD"/>
<path opacity="0.2" d="M174.806 135.203C174.806 135.203 173.401 133.972 172.146 132.973C170.891 131.974 173.229 131.917 174.313 132.466C175.776 133.208 176.745 134.162 176.745 134.162L174.806 135.203Z" fill="black"/>
<path d="M177.149 137.183C177.149 137.183 175.172 137.423 172.204 137.553C169.235 137.684 167.341 134.891 165.862 134.085C164.383 133.279 167.888 132.751 169.089 133.899C170.292 135.049 173.58 134.029 174.84 133.617C176.099 133.205 178.312 133.291 179.043 134.297C179.071 135.293 178.289 137.485 177.149 137.183Z" fill="#FFC3BD"/>
<path d="M219.531 274.557V284.246L215.617 284.558L213.701 275.487L219.531 274.557Z" fill="#FFC3BD"/>
<path d="M216.754 283.646C216.754 283.646 215.524 281.284 214.798 281.536C214.072 281.788 213.776 284.654 213.776 284.654C213.776 284.654 209.832 285.973 208.729 286.042C207.627 286.111 206.735 286.736 206.594 288.888H220.062C220.062 288.888 219.971 284.029 219.947 283.196C219.922 282.362 218.736 283.404 218.736 283.404L216.754 283.646Z" fill="#4AB100"/>
<g opacity="0.2">
<path d="M216.754 283.646C216.754 283.646 215.524 281.284 214.798 281.536C214.072 281.788 213.776 284.654 213.776 284.654C213.776 284.654 209.832 285.973 208.729 286.042C207.627 286.111 206.735 286.736 206.594 288.888H220.062C220.062 288.888 219.971 284.029 219.947 283.196C219.922 282.362 218.736 283.404 218.736 283.404L216.754 283.646Z" fill="white"/>
</g>
<path d="M219.913 285.043C218.971 285.617 218.529 286.76 219.181 287.882C219.253 288.007 219.083 288.115 219.01 287.991C218.296 286.761 218.736 285.496 219.781 284.858C219.893 284.79 220.024 284.974 219.913 285.043Z" fill="white"/>
<path d="M219.934 288.115C216.412 288.151 212.891 288.188 209.369 288.225C208.551 288.234 207.731 288.243 206.913 288.251C206.775 288.252 206.748 288.039 206.885 288.037C210.407 288 213.929 287.964 217.451 287.927C218.269 287.918 219.088 287.91 219.907 287.902C220.044 287.899 220.072 288.113 219.934 288.115Z" fill="white"/>
<path d="M214.358 285.501C213.805 284.842 212.999 284.657 212.393 285.154C212.294 285.235 212.163 285.05 212.262 284.969C212.956 284.4 213.901 284.645 214.529 285.393C214.623 285.505 214.452 285.612 214.358 285.501Z" fill="white"/>
<path d="M213.243 285.851C212.689 285.192 211.885 285.007 211.278 285.503C211.178 285.585 211.048 285.4 211.146 285.318C211.841 284.75 212.786 284.995 213.414 285.743C213.508 285.855 213.336 285.962 213.243 285.851Z" fill="white"/>
<path d="M212.089 286.201C211.535 285.542 210.731 285.357 210.124 285.854C210.024 285.935 209.893 285.75 209.992 285.669C210.686 285.1 211.632 285.345 212.26 286.093C212.354 286.206 212.182 286.312 212.089 286.201Z" fill="white"/>
<path d="M221.88 178.527C221.769 180.256 222.006 185.566 221.771 188.416C221.331 193.848 220.74 200.893 220.271 207.948C219.725 216.119 218.466 223.923 218.661 229.6C219.163 244.179 219.92 277.598 219.92 277.598H213.595C213.595 277.598 206.166 244.758 204.778 229.979C203.617 217.725 204.233 186.157 204.428 178.528H221.88V178.527Z" fill="#263238"/>
<path opacity="0.2" d="M221.772 188.416C221.331 193.848 220.74 200.893 220.272 207.948C217.159 198.734 220.049 184.813 220.049 184.813L221.772 188.416Z" fill="black"/>
<path d="M220.471 277.823H213.048L212.504 275.455L220.816 275.166L220.471 277.823Z" fill="#4AB100"/>
<path d="M228.404 230.939C231.461 245.463 242.751 277.155 242.751 277.155L249.037 276.439C249.037 276.439 244.458 243.889 242.314 229.464C240.379 216.444 239.165 186.733 238.729 177.882L217.736 178.527C218.404 186.127 225.868 218.891 228.404 230.939Z" fill="#263238"/>
<path d="M248.506 274.557V284.246L244.592 284.558L242.676 275.487L248.506 274.557Z" fill="#FFC3BD"/>
<path d="M245.729 283.646C245.729 283.646 244.498 281.284 243.773 281.536C243.046 281.788 242.75 284.654 242.75 284.654C242.75 284.654 238.806 285.973 237.704 286.042C236.602 286.111 235.71 286.736 235.568 288.888H249.037C249.037 288.888 248.946 284.029 248.921 283.196C248.897 282.362 247.711 283.404 247.711 283.404L245.729 283.646Z" fill="#4AB100"/>
<g opacity="0.2">
<path d="M245.729 283.646C245.729 283.646 244.498 281.284 243.773 281.536C243.046 281.788 242.75 284.654 242.75 284.654C242.75 284.654 238.806 285.973 237.704 286.042C236.602 286.111 235.71 286.736 235.568 288.888H249.037C249.037 288.888 248.946 284.029 248.921 283.196C248.897 282.362 247.711 283.404 247.711 283.404L245.729 283.646Z" fill="white"/>
</g>
<path d="M248.888 285.043C247.946 285.617 247.503 286.76 248.155 287.882C248.228 288.007 248.057 288.115 247.985 287.991C247.27 286.761 247.711 285.496 248.756 284.858C248.867 284.79 248.999 284.974 248.888 285.043Z" fill="white"/>
<path d="M248.907 288.115C245.385 288.151 241.864 288.188 238.342 288.225C237.523 288.234 236.704 288.243 235.886 288.251C235.748 288.252 235.72 288.039 235.858 288.037C239.38 288 242.901 287.964 246.423 287.927C247.242 287.918 248.061 287.91 248.879 287.902C249.018 287.899 249.045 288.113 248.907 288.115Z" fill="white"/>
<path d="M243.333 285.501C242.779 284.842 241.975 284.657 241.368 285.154C241.268 285.235 241.138 285.05 241.236 284.969C241.931 284.4 242.876 284.645 243.504 285.393C243.598 285.505 243.426 285.612 243.333 285.501Z" fill="white"/>
<path d="M242.217 285.851C241.664 285.192 240.859 285.007 240.253 285.503C240.152 285.585 240.022 285.4 240.121 285.318C240.816 284.75 241.761 284.995 242.388 285.743C242.482 285.855 242.311 285.962 242.217 285.851Z" fill="white"/>
<path d="M241.063 286.201C240.51 285.542 239.705 285.357 239.098 285.854C238.999 285.935 238.868 285.75 238.967 285.669C239.661 285.1 240.606 285.345 241.234 286.093C241.328 286.206 241.157 286.312 241.063 286.201Z" fill="white"/>
<path d="M249.608 276.602L242.233 277.442L241.424 275.151L249.65 273.923L249.608 276.602Z" fill="#4AB100"/>
<path d="M240.209 179.309C225.361 180.979 211.179 179.853 203.492 178.528C203.876 174.733 206.251 128.71 207.217 126.054C208.113 123.584 212.311 122.381 215.313 121.888C216.036 121.766 216.683 121.683 217.207 121.638C219.838 121.395 222.743 121.376 225.713 121.446C227.134 121.485 228.574 121.542 230.001 121.613C232.081 121.709 233.035 121.786 234.603 121.978C236.996 122.272 238.66 124.16 238.436 127.219C238.135 131.213 237.995 135.2 237.969 139.104C237.963 140.134 237.963 141.152 237.969 142.17C238.103 160 240.388 175.373 240.209 179.309Z" fill="#4AB100"/>
<path opacity="0.5" d="M240.209 179.309C225.361 180.979 211.179 179.853 203.492 178.528C203.876 174.733 206.251 128.71 207.217 126.054C208.113 123.584 212.311 122.381 215.313 121.888C216.036 121.766 216.683 121.683 217.207 121.638C219.838 121.395 222.743 121.376 225.713 121.446C227.134 121.485 228.574 121.542 230.001 121.613C232.081 121.709 233.035 121.786 234.603 121.978C236.996 122.272 238.66 124.16 238.436 127.219C238.135 131.213 237.995 135.2 237.969 139.104C237.963 140.134 237.963 141.152 237.969 142.17C238.103 160 240.388 175.373 240.209 179.309Z" fill="white"/>
<path d="M238.692 161.227L241.634 165.267C245.629 162.959 249.407 160.481 253.116 157.59C254.041 156.866 254.971 156.116 255.879 155.275C256.798 154.424 257.7 153.572 258.658 152.333C258.899 152.02 259.146 151.661 259.392 151.241C259.639 150.804 259.908 150.294 260.127 149.498C260.183 149.313 260.233 149.067 260.267 148.815C260.306 148.596 260.328 148.26 260.328 147.963C260.328 147.823 260.317 147.632 260.295 147.447C260.272 147.268 260.25 147.088 260.211 146.904C260.166 146.702 260.11 146.5 260.038 146.304L259.937 146.013L259.864 145.85L259.712 145.531L259.583 145.295L259.46 145.076L259.353 144.903C259.208 144.667 259.09 144.5 258.966 144.315C258.496 143.659 258.092 143.154 257.683 142.667C257.274 142.18 256.876 141.72 256.479 141.272C254.881 139.507 253.273 137.882 251.659 136.268C250.029 134.676 248.404 133.09 246.733 131.567C243.504 128.571 240.226 125.672 236.804 122.895C236.623 122.747 236.395 122.655 236.162 122.652C236.115 122.651 236.069 122.651 236.023 122.651C230.891 122.692 228.701 129.249 232.566 132.626C235.049 134.795 237.574 136.936 240.082 139.064L245.125 143.357C246.8 144.774 248.459 146.215 250.006 147.632C250.382 147.974 250.752 148.316 251.088 148.647C250.819 149.005 250.516 149.381 250.208 149.745C249.558 150.507 248.852 151.292 248.118 152.065C245.17 155.158 241.892 158.206 238.692 161.227Z" fill="#4AB100"/>
<path d="M240.897 159.573C240.897 159.573 236.133 159.849 235.301 160.465C234.468 161.08 237.212 166.598 238.578 167.636C239.942 168.674 239.653 166.614 239.653 166.614C239.653 166.614 242.185 165.785 243.516 164.533C244.848 163.281 244.529 160.827 240.897 159.573Z" fill="#FFC3BD"/>
<path d="M225.713 121.446C224.625 123.302 221.649 127.269 217.329 127.283C214.129 127.293 214.449 123.533 215.313 121.888C216.036 121.766 216.682 121.683 217.207 121.638C219.838 121.395 222.743 121.376 225.713 121.446Z" fill="#4AB100"/>
<path d="M214.727 98.6296C218.769 98.2053 220.047 98.7673 222.102 100.116C223.444 100.998 225.382 102.774 225.713 104.907C226.723 111.425 222.076 113.814 222.076 113.814L209.398 106.632C209.398 106.632 205.993 102.228 209.269 99.2005C210.913 97.6799 212.713 98.8408 214.727 98.6296Z" fill="#263238"/>
<path d="M215.786 118.72L215.785 118.725C215.793 118.743 215.797 118.755 215.804 118.772L216.423 121.045C216.476 121.51 216.485 121.972 216.453 122.422C216.427 122.801 216.37 123.171 216.293 123.525C216.026 124.32 215.908 125.88 217.351 125.768C219.589 125.594 223.692 122.454 223.833 121.462C222.771 118.401 221.876 114.82 222.022 111.887L219.48 114.676L215.786 118.72Z" fill="#FFC3BD"/>
<g opacity="0.2">
<path d="M215.805 118.772L216.424 121.045C217.824 120.393 219.284 119.001 219.609 117.503C219.837 116.422 219.343 115.416 218.908 115.364L215.805 118.772Z" fill="black"/>
</g>
<path d="M210.087 114.045C210.223 114.539 210.375 115.026 210.538 115.506C211.986 119.743 217.229 120.089 220.464 116.937C220.47 116.93 220.469 116.925 220.474 116.925C220.761 116.644 221.033 116.338 221.286 116C223.337 113.261 222.801 111.171 222.454 106.418C222.107 101.671 217.005 98.7416 212.713 101.205C208.752 103.478 208.714 109.104 210.087 114.045Z" fill="#FFC3BD"/>
<path d="M209.996 113.707C209.996 113.707 210.134 118.999 213.303 119.894C215.787 120.595 219.885 119.499 220.221 115.974C220.525 112.774 220.575 109.667 220.575 109.667L219.404 109.917C219.404 109.917 217.784 112.488 217.117 112.604C216.45 112.721 216.216 111.924 212.983 112.484C210.623 112.893 209.996 113.707 209.996 113.707Z" fill="#263238"/>
<path d="M212.113 114.357C213.128 114.046 213.798 113.761 215.347 113.116C215.347 113.116 215.548 114.763 213.895 115.113C212.681 115.371 212.113 114.357 212.113 114.357Z" fill="white"/>
<path d="M219.409 105.24C220.608 105.537 219.403 109.917 219.403 109.917L221.094 109.555C221.094 109.555 220.966 109.394 221.02 108.166C221.074 106.938 222.508 106.861 222.508 106.861C222.508 106.861 222.858 103.301 221.007 101.074C219.155 98.8467 214.604 99.191 212.349 100.729C210.093 102.267 209.621 105.102 209.621 105.102C209.621 105.102 211.169 102.881 211.85 102.881C212.53 102.881 211.89 103.821 212.61 103.801C213.99 103.763 214.637 101.641 216.843 102.161C219.048 102.68 216.576 104.538 219.409 105.24Z" fill="#263238"/>
<path d="M224.9 109.287C224.718 110.558 223.968 111.627 223.113 112.246C221.829 113.178 220.636 112.162 220.533 110.662C220.44 109.311 220.997 107.199 222.508 106.861C223.996 106.528 225.107 107.834 224.9 109.287Z" fill="#FFC3BD"/>
<path d="M215.432 109.647C215.482 110.018 215.326 110.346 215.084 110.379C214.84 110.411 214.603 110.137 214.552 109.766C214.502 109.394 214.658 109.066 214.901 109.033C215.144 109 215.381 109.275 215.432 109.647Z" fill="#263238"/>
<path d="M211.354 110.149C211.404 110.521 211.248 110.849 211.005 110.881C210.762 110.914 210.524 110.639 210.474 110.268C210.424 109.896 210.58 109.569 210.823 109.536C211.066 109.503 211.304 109.777 211.354 110.149Z" fill="#263238"/>
<path d="M209.774 108.73C209.839 108.721 209.898 108.678 209.924 108.612C210.04 108.319 210.213 108.123 210.437 108.029C210.806 107.876 211.21 108.04 211.214 108.042C211.307 108.082 211.421 108.039 211.462 107.942C211.503 107.846 211.458 107.735 211.362 107.694C211.34 107.684 210.81 107.464 210.291 107.681C209.969 107.814 209.727 108.081 209.572 108.474C209.533 108.571 209.581 108.68 209.678 108.719C209.71 108.731 209.743 108.735 209.774 108.73Z" fill="#263238"/>
<path d="M216.328 107.975C216.356 107.972 216.383 107.961 216.408 107.945C216.494 107.887 216.518 107.77 216.459 107.684C216.446 107.663 216.123 107.189 215.571 107.087C215.229 107.023 214.88 107.113 214.536 107.357C214.45 107.417 214.429 107.535 214.49 107.62C214.551 107.706 214.669 107.726 214.754 107.666C215.011 107.485 215.262 107.414 215.499 107.458C215.894 107.53 216.143 107.891 216.146 107.895C216.187 107.956 216.259 107.984 216.328 107.975Z" fill="#263238"/>
<path d="M212.917 108.871C212.917 108.871 212.385 110.777 211.477 112.034C211.378 112.171 213.094 112.461 213.094 112.461L212.917 108.871Z" fill="#ED847E"/>
<path d="M216.171 120.594C216.172 120.589 216.172 120.587 216.172 120.585C216.171 120.584 216.169 120.587 216.166 120.594H216.171Z" fill="black"/>
<path d="M208.847 61.0765V89.2499C208.847 93.2646 206.249 96.7123 202.636 97.9404L203.274 111.638L191.3 98.4601H140.881C135.804 98.4601 131.695 94.3277 131.695 89.2499V61.0765C131.695 55.9987 135.804 51.8662 140.881 51.8662H199.637C204.714 51.8662 208.847 55.9987 208.847 61.0765Z" fill="#4AB100"/>
<path opacity="0.5" d="M208.847 61.0765V89.2499C208.847 93.2646 206.249 96.7123 202.636 97.9404L203.274 111.638L191.3 98.4601H140.881C135.804 98.4601 131.695 94.3277 131.695 89.2499V61.0765C131.695 55.9987 135.804 51.8662 140.881 51.8662H199.637C204.714 51.8662 208.847 55.9987 208.847 61.0765Z" fill="white"/>
<path d="M152.217 79.7304C154.561 79.7304 156.462 77.8301 156.462 75.4859C156.462 73.1418 154.561 71.2415 152.217 71.2415C149.873 71.2415 147.973 73.1418 147.973 75.4859C147.973 77.8301 149.873 79.7304 152.217 79.7304Z" fill="#4AB100"/>
<path d="M188.327 79.7304C190.671 79.7304 192.571 77.8301 192.571 75.4859C192.571 73.1418 190.671 71.2415 188.327 71.2415C185.982 71.2415 184.082 73.1418 184.082 75.4859C184.082 77.8301 185.982 79.7304 188.327 79.7304Z" fill="#4AB100"/>
<path d="M170.453 79.7304C172.798 79.7304 174.698 77.8301 174.698 75.4859C174.698 73.1418 172.798 71.2415 170.453 71.2415C168.109 71.2415 166.209 73.1418 166.209 75.4859C166.209 77.8301 168.109 79.7304 170.453 79.7304Z" fill="#4AB100"/>
<path d="M104.246 277.97L105.584 284.365H108.949L109.317 277.97H104.246Z" fill="#FF8B7B"/>
<path d="M118.569 288.888C118.457 286.804 117.563 286.182 116.436 286.111C115.263 286.037 111.116 284.632 111.116 284.632C111.116 284.632 110.285 283.309 109.521 283.04C108.758 282.772 107.984 283.559 107.984 283.559L105.881 283.301C105.881 283.301 105.28 282.35 104.816 283.183C104.097 284.475 104.058 288.05 104.093 288.888H118.569Z" fill="#263238"/>
<path d="M118.313 288.344C117.436 288.34 116.564 288.335 115.688 288.332C111.861 288.313 108.035 288.291 104.208 288.272C104.062 288.273 104.099 288.049 104.245 288.052C104.502 288.055 104.764 288.054 105.022 288.056C105.024 288.048 105.03 288.035 105.036 288.027C105.786 286.826 105.354 285.607 104.355 284.999C104.238 284.932 104.386 284.737 104.499 284.808C105.58 285.467 106.016 286.771 105.255 288.056C105.796 288.061 106.333 288.063 106.874 288.065C110.697 288.083 114.523 288.106 118.35 288.125C118.496 288.123 118.458 288.347 118.313 288.344Z" fill="#4AB100"/>
<path d="M110.452 285.533C111.073 284.832 111.952 284.634 112.57 285.162C112.67 285.248 112.814 285.055 112.715 284.971C112.005 284.363 110.983 284.628 110.28 285.422C110.176 285.538 110.35 285.649 110.452 285.533Z" fill="white"/>
<path d="M111.626 285.906C112.247 285.205 113.125 285.006 113.744 285.535C113.843 285.621 113.987 285.428 113.889 285.344C113.18 284.736 112.156 285.001 111.454 285.795C111.35 285.911 111.524 286.022 111.626 285.906Z" fill="white"/>
<path d="M112.839 286.28C113.46 285.578 114.339 285.379 114.956 285.908C115.056 285.994 115.201 285.802 115.102 285.716C114.392 285.109 113.369 285.373 112.666 286.168C112.563 286.284 112.737 286.395 112.839 286.28Z" fill="white"/>
<path d="M65.5508 273.052L64.1152 279.65L67.177 281.019L70.0468 274.895L65.5508 273.052Z" fill="#FF8B7B"/>
<path d="M74.0917 289.049C74.8373 287.107 74.2773 286.178 73.2802 285.655C72.2434 285.11 69.0408 282.144 69.0408 282.144C69.0408 282.144 68.8226 280.602 68.2377 280.047C67.6527 279.492 66.6281 279.893 66.6281 279.893L64.8181 278.803C64.8181 278.803 64.6581 277.692 63.8972 278.262C62.7176 279.145 61.2277 282.382 60.918 283.159L74.0917 289.049Z" fill="#263238"/>
<path d="M74.0795 288.45C73.284 288.09 72.4923 287.731 71.6962 287.371C68.2216 285.797 64.749 284.22 61.2738 282.646C61.1406 282.587 61.2654 282.398 61.3966 282.46C61.6296 282.568 61.869 282.673 62.1019 282.781C62.1064 282.774 62.1173 282.765 62.1262 282.759C63.2974 281.972 63.4005 280.686 62.7387 279.727C62.6587 279.618 62.8738 279.501 62.9474 279.612C63.6629 280.65 63.5285 282.014 62.3138 282.874C62.8034 283.1 63.2917 283.319 63.7838 283.541C67.2546 285.114 70.7272 286.691 74.2018 288.265C74.3362 288.323 74.2107 288.512 74.0795 288.45Z" fill="#4AB100"/>
<path d="M68.0691 282.694C68.919 282.308 69.7997 282.485 70.1472 283.217C70.2029 283.336 70.4128 283.219 70.3571 283.102C69.9584 282.261 68.9203 282.085 67.9577 282.522C67.8163 282.586 67.9289 282.757 68.0691 282.694Z" fill="white"/>
<path d="M68.9869 283.511C69.8369 283.125 70.7175 283.302 71.065 284.035C71.1213 284.153 71.3306 284.037 71.2749 283.919C70.8762 283.078 69.8381 282.902 68.8756 283.339C68.7341 283.403 68.8474 283.574 68.9869 283.511Z" fill="white"/>
<path d="M69.9402 284.344C70.7901 283.958 71.6708 284.135 72.0176 284.868C72.074 284.986 72.2832 284.87 72.2282 284.753C71.8295 283.912 70.7914 283.735 69.8288 284.172C69.6874 284.237 69.8 284.408 69.9402 284.344Z" fill="white"/>
<path d="M92.1331 187.39C92.6342 194.298 93.776 203.234 96.0006 214.734C96.647 218.075 97.385 221.635 98.2278 225.425C96.8218 248.326 104.157 279.067 104.157 279.067L109.729 278.943C109.729 278.943 111.621 243.517 111.592 224.971C111.543 194.584 108.819 165.638 108.819 165.638L93.6589 165.579C93.6589 165.579 90.8858 170.146 92.1331 187.39Z" fill="#4AB100"/>
<path opacity="0.2" d="M92.1331 187.39C92.6342 194.298 93.776 203.234 96.0006 214.734C96.647 218.075 97.385 221.635 98.2278 225.425C96.8218 248.326 104.157 279.067 104.157 279.067L109.729 278.943C109.729 278.943 111.621 243.517 111.592 224.971C111.543 194.584 108.819 165.638 108.819 165.638L93.6589 165.579C93.6589 165.579 90.8858 170.146 92.1331 187.39Z" fill="white"/>
<path opacity="0.2" d="M92.1348 187.39C92.6359 194.297 93.7776 203.234 96.0023 214.734C99.6029 202.58 94.705 176.643 94.705 176.643L92.1348 187.39Z" fill="black"/>
<path d="M96.8033 170.408C96.8033 170.408 93.8088 212.84 90.955 228.063L70.0449 275.979L64.9512 273.115C64.9512 273.115 72.8219 235.733 79.115 224.213C79.115 224.213 74.5582 186.011 79.8817 168.885L96.8033 170.408Z" fill="#4AB100"/>
<path opacity="0.2" d="M96.8033 170.408C96.8033 170.408 93.8088 212.84 90.955 228.063L70.0449 275.979L64.9512 273.115C64.9512 273.115 72.8219 235.733 79.115 224.213C79.115 224.213 74.5582 186.011 79.8817 168.885L96.8033 170.408Z" fill="white"/>
<path d="M69.6686 277.847L70.9864 275.842L64.379 272.451L63.5918 274.729L69.6686 277.847Z" fill="#263238"/>
<path d="M110.324 280.254L110.581 277.868H103.154L103.493 280.254H110.324Z" fill="#263238"/>
<path d="M110.158 149.225C109.992 150.972 110.164 153.26 110.397 155.847C110.477 156.767 110.569 157.729 110.649 158.717C110.992 162.813 111.231 167.374 110.434 171.605C110.311 172.249 109.852 172.795 109.227 172.997C105.094 174.346 90.8753 173.715 80.0901 171.091C79.0603 170.839 78.4165 169.815 78.643 168.779C79.4648 165.032 80.0901 160.097 80.2494 154.156C80.2737 153.371 80.2865 152.574 80.2923 151.752C80.323 146.503 79.9921 140.556 79.1461 134.02C78.6801 130.421 81.2305 127.11 84.8363 126.687C85.8539 126.57 86.9329 126.466 88.0369 126.399C92.3659 126.123 95.916 125.927 99.7233 126.215C100.992 126.307 102.299 126.448 103.543 126.602C108.05 127.166 111.447 131.072 111.275 135.609C111.053 141.555 115.689 144.958 110.158 149.225Z" fill="#263238"/>
<path opacity="0.2" d="M86.8439 136.798C86.8439 136.798 87.0992 144.2 88.9443 147.014L85.2656 146.298C85.2656 146.298 85.4077 139.918 86.8439 136.798Z" fill="black"/>
<path opacity="0.2" d="M110.649 158.717C106.455 157.558 99.8027 153.91 99.8027 153.91L110.398 155.847C110.477 156.767 110.569 157.729 110.649 158.717Z" fill="black"/>
<path opacity="0.2" d="M102.725 152.064C102.725 152.064 91.6157 159.606 86.8208 158.802C84.0311 158.337 81.7015 156.013 80.248 154.155C80.2724 153.37 80.2852 152.573 80.2909 151.751L102.725 152.064Z" fill="black"/>
<path d="M100.426 136.59C100.78 136.59 101.113 136.5 101.422 136.321C104.505 134.535 101.161 126.339 101.017 125.991C100.972 125.882 100.847 125.832 100.74 125.875C100.632 125.92 100.581 126.044 100.625 126.152C100.659 126.234 103.975 134.353 101.21 135.953C100.801 136.191 100.351 136.228 99.8369 136.071C96.4526 135.03 92.1025 126.069 92.059 125.979C92.0085 125.873 91.8811 125.829 91.7761 125.88C91.6705 125.93 91.6264 126.057 91.6776 126.163C91.8587 126.538 96.1525 135.38 99.7128 136.475C99.9579 136.552 100.197 136.59 100.426 136.59Z" fill="white"/>
<path d="M106.737 114.078C106.737 114.078 109.518 108.915 105.544 105.418C101.57 101.92 94.8443 102.83 91.9406 107.155C89.0369 111.48 90.1441 117.025 92.8391 118.971C95.081 120.59 94.7668 122.323 94.7668 122.323L106.737 114.078Z" fill="#263238"/>
<path d="M97.8516 103.669C97.8516 100.054 91.9412 97.8388 88.5127 99.9962C83.7569 102.988 87.9297 107.3 87.0554 109.789C86.1812 112.28 82.6836 110.383 82.6836 110.383C82.6836 110.383 85.2487 115.845 89.3293 114.348C92.9985 113.002 94.0186 108.39 94.0186 108.39C94.0186 108.39 97.8516 107.283 97.8516 103.669Z" fill="#263238"/>
<path d="M91.1454 107.895C91.2177 107.895 91.2861 107.85 91.3105 107.777C92.9034 103.154 97.6119 103.431 97.8129 103.444C97.9069 103.449 97.9934 103.378 97.9991 103.282C98.0061 103.186 97.9338 103.102 97.8372 103.095C97.7853 103.093 92.6609 102.782 90.9802 107.663C90.9489 107.755 90.9975 107.854 91.089 107.885C91.1076 107.892 91.1262 107.895 91.1454 107.895Z" fill="#4AB100"/>
<g opacity="0.5">
<path d="M91.1454 107.895C91.2177 107.895 91.2861 107.85 91.3105 107.777C92.9034 103.154 97.6119 103.431 97.8129 103.444C97.9069 103.449 97.9934 103.378 97.9991 103.282C98.0061 103.186 97.9338 103.102 97.8372 103.095C97.7853 103.093 92.6609 102.782 90.9802 107.663C90.9489 107.755 90.9975 107.854 91.089 107.885C91.1076 107.892 91.1262 107.895 91.1454 107.895Z" fill="white"/>
</g>
<path d="M100.442 126.536C100.473 126.588 100.496 126.642 100.521 126.695C101.49 131.045 95.583 129.946 93.1836 126.175C94.7766 124.054 95.0869 120.354 94.7189 117.681L99.5369 121.66L100.471 122.555C100.262 123.234 100.094 123.928 100.058 124.588C100.012 125.288 100.108 125.955 100.442 126.536Z" fill="#FF8B7B"/>
<g opacity="0.2">
<path d="M100.059 124.587C100.094 123.928 100.262 123.234 100.472 122.555L99.5377 121.66L97.041 121.601C97.041 121.601 98.2154 124.013 100.059 124.587Z" fill="black"/>
</g>
<path d="M92.9054 112.684C93.5627 117.514 93.7752 118.748 96.3652 121.057C100.262 124.53 105.897 123.492 106.669 118.564C107.362 114.128 106.171 106.976 101.369 105.397C96.6379 103.84 92.2481 107.855 92.9054 112.684Z" fill="#FF8B7B"/>
<path d="M102.007 118.947C102.361 118.947 102.647 118.578 102.647 118.124C102.647 117.669 102.361 117.301 102.007 117.301C101.654 117.301 101.367 117.669 101.367 118.124C101.367 118.578 101.654 118.947 102.007 118.947Z" fill="white"/>
<path d="M101.583 111.233C101.542 111.28 101.482 111.309 101.414 111.309C100.49 111.297 100.042 112.266 100.037 112.276C99.9859 112.387 99.8572 112.436 99.7465 112.386C99.6358 112.336 99.5865 112.206 99.6371 112.095C99.6595 112.045 100.212 110.854 101.421 110.869C101.542 110.871 101.64 110.97 101.638 111.092C101.636 111.146 101.616 111.195 101.583 111.233Z" fill="#263238"/>
<path d="M106.018 112.141C105.959 112.122 105.908 112.078 105.882 112.016C105.531 111.16 104.464 111.126 104.453 111.126C104.331 111.123 104.235 111.023 104.238 110.902C104.241 110.781 104.341 110.684 104.463 110.687C104.519 110.689 105.83 110.731 106.289 111.85C106.335 111.962 106.281 112.09 106.169 112.137C106.119 112.156 106.066 112.157 106.018 112.141Z" fill="#263238"/>
<path d="M102.464 105.056C102.464 105.056 101.906 110.913 96.047 110.344C90.1884 109.775 94.9103 105.097 97.4895 104.397C100.069 103.698 102.464 105.056 102.464 105.056Z" fill="#263238"/>
<path d="M96.0746 105.947C96.0746 105.947 98.2966 112.003 96.5193 114.03C94.7421 116.057 91.6406 113.108 91.6406 113.108C91.6406 113.108 91.9274 106.47 96.0746 105.947Z" fill="#263238"/>
<path d="M100.677 113.349C100.706 113.744 100.94 114.049 101.198 114.03C101.456 114.01 101.642 113.674 101.611 113.279C101.582 112.884 101.348 112.579 101.09 112.599C100.833 112.618 100.647 112.954 100.677 113.349Z" fill="#263238"/>
<path d="M104.657 113.143C104.687 113.538 104.921 113.843 105.179 113.823C105.437 113.804 105.622 113.468 105.592 113.073C105.563 112.678 105.329 112.373 105.071 112.392C104.813 112.412 104.628 112.748 104.657 113.143Z" fill="#263238"/>
<path d="M104.959 112.423L105.887 112.078C105.887 112.078 105.456 112.856 104.959 112.423Z" fill="#263238"/>
<path d="M103.035 113.329C103.035 113.329 103.795 114.324 104.602 115.177C104.864 115.454 104.812 115.906 104.482 116.099C103.915 116.431 103.285 116.609 103.285 116.609L103.035 113.329Z" fill="#FF5652"/>
<path d="M100.979 112.629L101.907 112.284C101.907 112.284 101.476 113.062 100.979 112.629Z" fill="#263238"/>
<path d="M91.4335 116.173C91.9372 117.069 92.7411 117.595 93.4732 117.742C94.574 117.962 95.0207 116.739 94.6278 115.562C94.2739 114.502 93.2748 113.11 92.2118 113.427C91.1641 113.738 90.8575 115.149 91.4335 116.173Z" fill="#FF8B7B"/>
<path d="M93.6862 118.229C93.3284 118.486 92.8305 118.404 92.5739 118.047C92.3166 117.689 92.3985 117.191 92.7556 116.934C93.1134 116.678 93.6113 116.759 93.868 117.116C94.1246 117.473 94.0433 117.971 93.6862 118.229Z" fill="white"/>
<path d="M87.09 133.654L86.8955 136.05C86.8411 136.867 86.7764 137.683 86.738 138.496C86.6439 140.122 86.6081 141.738 86.6228 143.302C86.6529 144.854 86.7521 146.397 86.9966 147.643C87.1111 148.255 87.3012 148.789 87.3991 149.025C87.4452 149.145 87.4644 149.171 87.3659 149.105C87.3428 149.096 87.3102 149.07 87.2724 149.053C87.2436 149.043 87.3102 149.086 87.323 149.103C87.3793 149.148 87.4414 149.194 87.5163 149.238C87.8126 149.414 88.2759 149.583 88.8468 149.692C89.4196 149.798 90.0852 149.843 90.7899 149.828C92.2055 149.811 93.7588 149.595 95.3243 149.28C98.4558 148.643 101.722 147.629 104.864 146.552L106.527 149.527C105.049 150.65 103.559 151.588 101.983 152.496C100.41 153.387 98.7764 154.199 97.0478 154.898C95.3159 155.59 93.4971 156.184 91.4785 156.527C90.4679 156.691 89.4017 156.789 88.2542 156.756C87.1086 156.721 85.8599 156.537 84.5697 156.029C84.2478 155.903 83.9252 155.754 83.6059 155.586C83.4356 155.489 83.3115 155.43 83.1054 155.297C82.891 155.157 82.6804 155.009 82.4967 154.855C81.7351 154.234 81.2244 153.564 80.8308 152.943C80.05 151.69 79.6948 150.566 79.3953 149.507C78.8283 147.395 78.6433 145.479 78.5403 143.587C78.4359 141.701 78.4756 139.864 78.5716 138.045C78.6286 137.137 78.6887 136.232 78.7873 135.33C78.8795 134.414 78.9902 133.557 79.1444 132.58L87.09 133.654Z" fill="#263238"/>
<path d="M118.172 153.652C118.122 154.204 117.951 154.847 117.651 155.344C117.51 155.596 117.313 155.877 117.142 156.055C116.983 156.233 116.805 156.392 116.621 156.546C116.412 156.712 116.296 156.779 116.143 156.871C115.996 156.957 115.848 157.037 115.695 157.11C115.475 157.203 115.254 157.282 115.027 157.35C114.862 157.393 114.696 157.43 114.524 157.461C113.935 157.558 113.519 157.565 113.144 157.558C112.771 157.552 112.446 157.521 112.139 157.491C110.919 157.344 109.913 157.118 108.908 156.878C107.908 156.627 106.94 156.369 105.989 156.075C104.095 155.493 102.243 154.879 100.416 154.205C100.202 154.125 99.9809 154.046 99.7659 153.96C99.7473 153.953 99.7294 153.948 99.7108 153.941C99.6187 153.91 99.5272 153.88 99.4414 153.837C99.2513 153.775 99.0612 153.702 98.8776 153.628C95.7569 152.457 92.6971 151.194 89.668 149.778L90.8392 146.277L102.005 148.625C103.856 148.993 105.702 149.379 107.517 149.686C108.142 149.791 109.614 150.337 110.221 150.428C109.706 149.178 108.308 147.473 107.787 146.21C106.321 142.727 104.844 139.214 103.47 135.695L110.853 132.562C112.453 136.081 113.882 139.644 115.23 143.279C115.911 145.094 116.536 146.927 117.155 148.835C117.455 149.828 117.732 150.693 118.02 152.029L118.118 152.556L118.13 152.623L118.149 152.746L118.167 152.924C118.184 153.162 118.19 153.407 118.172 153.652Z" fill="#263238"/>
<path opacity="0.2" d="M107.824 135.275C107.824 135.275 110.344 139.49 111.441 142.326C112.538 145.162 110.152 147.798 110.152 147.798L110.648 148.649C110.648 148.649 113.173 145.565 112.321 142.62C111.708 140.499 107.824 135.275 107.824 135.275Z" fill="black"/>
<path opacity="0.2" d="M106.159 149.728C105.362 150.292 101.775 152.812 99.7639 153.958C99.7454 153.952 99.7274 153.946 99.7089 153.94C99.6167 153.909 99.5252 153.878 99.4395 153.836C99.7211 153.67 104.485 150.874 106.159 149.728Z" fill="black"/>
<path d="M104.883 146.614C104.883 146.614 106.016 145.941 108.616 146.682C111.988 148.565 111.216 150.693 110.432 150.468L106.514 149.526L104.883 146.614Z" fill="#FF8B7B"/>
<path d="M91.9474 146.558C91.9474 146.558 89.0309 145.146 87.9352 144.841C86.8396 144.536 86.6194 144.871 86.6194 144.871L86.7307 145.968C86.7307 145.968 84.7416 148.138 84.4184 150.003C84.0952 151.868 87.7784 150.214 89.0706 150.063C90.3628 149.912 91.6171 149.987 91.6171 149.987C92.0875 149.735 92.4965 147.242 91.9474 146.558Z" fill="#FF8B7B"/>
<path d="M106.211 89.5616V96.3609C106.211 97.3299 106.838 98.1619 107.71 98.4582L107.556 101.764L110.446 98.5837H122.615C123.84 98.5837 124.832 97.5865 124.832 96.3609V89.5616C124.832 88.336 123.84 87.3389 122.615 87.3389H108.434C107.208 87.3382 106.211 88.336 106.211 89.5616Z" fill="#4AB100"/>
<path opacity="0.5" d="M106.211 89.5616V96.3609C106.211 97.3299 106.838 98.1619 107.71 98.4582L107.556 101.764L110.446 98.5837H122.615C123.84 98.5837 124.832 97.5865 124.832 96.3609V89.5616C124.832 88.336 123.84 87.3389 122.615 87.3389H108.434C107.208 87.3382 106.211 88.336 106.211 89.5616Z" fill="white"/>
<path d="M118.854 93.0393C118.854 93.605 119.312 94.0639 119.878 94.0639C120.444 94.0639 120.903 93.605 120.903 93.0393C120.903 92.4735 120.444 92.0146 119.878 92.0146C119.312 92.0146 118.854 92.4735 118.854 93.0393Z" fill="#4AB100"/>
<path d="M110.139 93.0393C110.139 93.605 110.598 94.0639 111.163 94.0639C111.729 94.0639 112.188 93.605 112.188 93.0393C112.188 92.4735 111.729 92.0146 111.163 92.0146C110.598 92.0146 110.139 92.4735 110.139 93.0393Z" fill="#4AB100"/>
<path d="M114.453 93.0393C114.453 93.605 114.912 94.0639 115.478 94.0639C116.044 94.0639 116.502 93.605 116.502 93.0393C116.502 92.4735 116.044 92.0146 115.478 92.0146C114.912 92.0146 114.453 92.4735 114.453 93.0393Z" fill="#4AB100"/>
</svg>
