<svg width="27" height="26" viewBox="0 0 27 26" fill="none" xmlns="http://www.w3.org/2000/svg">
<path d="M7.96571 4.12378L9.24794 8.75334V10.975H10.3595V8.75334L11.6586 4.12378H10.5386L10.0731 6.2312C9.94169 6.84653 9.85892 7.28443 9.82064 7.54587H9.78678C9.7319 7.18115 9.6484 6.73913 9.53429 6.22274L9.08572 4.12378H7.96571ZM12.9507 5.87291C12.5745 5.87291 12.272 5.94556 12.0409 6.09578C11.8098 6.24528 11.6393 6.48454 11.5303 6.80954C11.4227 7.13671 11.3666 7.56779 11.3666 8.10729V8.83515C11.3666 9.36815 11.4152 9.79599 11.5105 10.1174C11.6059 10.4388 11.7655 10.6745 11.9915 10.8269C12.2183 10.98 12.5303 11.0568 12.9268 11.0568C13.3131 11.0568 13.6211 10.9828 13.8465 10.8325C14.0718 10.6823 14.2355 10.4459 14.3359 10.1216C14.4363 9.79733 14.4869 9.36959 14.4869 8.83515V8.1087C14.4869 7.57064 14.435 7.13874 14.3317 6.81519C14.2284 6.49235 14.0654 6.25382 13.8422 6.10143C13.6183 5.94832 13.3212 5.87291 12.9507 5.87291ZM15.0723 5.97024V9.70972C15.0723 10.1727 15.1511 10.5136 15.3092 10.731C15.4674 10.9484 15.7127 11.0568 16.0442 11.0568C16.523 11.0568 16.8828 10.8258 17.1219 10.3628H17.1472L17.2446 10.975H18.1262V5.97024H17.0005V9.9467C16.9572 10.0391 16.8898 10.1174 16.8002 10.1766C16.71 10.2373 16.617 10.2655 16.5195 10.2655C16.4047 10.2655 16.3239 10.2184 16.2741 10.123C16.2243 10.0277 16.1993 9.868 16.1993 9.64483V5.97024H15.0723ZM12.9268 6.64874C13.0849 6.64874 13.1961 6.73158 13.2582 6.89841C13.3211 7.06452 13.3528 7.32585 13.3528 7.68552V9.24563C13.3528 9.61541 13.3204 9.88294 13.2582 10.0454C13.1954 10.2094 13.0849 10.2902 12.9282 10.2909C12.77 10.2909 12.6602 10.2079 12.5995 10.0454C12.5388 9.88294 12.5106 9.61613 12.5106 9.24563V7.68552C12.5106 7.32658 12.543 7.06524 12.6051 6.89841C12.668 6.73302 12.7744 6.64874 12.9268 6.64874ZM7.23362 12.0682C6.28028 12.0682 5.5 12.8485 5.5 13.8018V19.7235C5.5 20.6768 6.28028 21.4571 7.23362 21.4571H19.6553C20.6086 21.4571 21.3889 20.6768 21.3889 19.7235V13.8018C21.3889 12.8485 20.6086 12.0682 19.6553 12.0682H7.23362ZM13.4882 13.6565H14.4036V15.8825H14.4107C14.493 15.7214 14.6095 15.5914 14.7619 15.4931C14.9136 15.3949 15.0773 15.345 15.2528 15.345C15.4774 15.345 15.654 15.4043 15.7818 15.5242C15.9096 15.6441 16.0033 15.8374 16.0611 16.1039C16.1188 16.3708 16.1471 16.7418 16.1471 17.2141H16.1485V17.8827H16.15C16.15 18.5125 16.0738 18.976 15.9214 19.2721C15.7691 19.5689 15.5333 19.7164 15.2119 19.7164C15.0321 19.7164 14.8698 19.6753 14.7224 19.5937C14.5744 19.5114 14.4653 19.3982 14.391 19.2552H14.3698L14.2739 19.6544H13.4882V13.6565ZM7.79926 13.871H10.6176V14.6355H9.67253V19.6544H8.74295V14.6355H7.79926V13.871ZM17.861 15.3493C18.1874 15.3493 18.4373 15.4085 18.6128 15.5284C18.7876 15.6476 18.9102 15.8328 18.9824 16.0856C19.0532 16.3391 19.0882 16.688 19.0882 17.1337V17.8587H19.0868V17.8573H17.4971V18.0717C17.4971 18.3425 17.5058 18.5467 17.5225 18.6825C17.5391 18.8175 17.5706 18.9173 17.6212 18.9787C17.6718 19.0408 17.7499 19.0704 17.8554 19.0704C17.9969 19.0704 18.096 19.0159 18.1488 18.9054C18.2015 18.7949 18.2312 18.6109 18.2348 18.3538L19.0558 18.4032C19.0594 18.4407 19.0614 18.4913 19.0614 18.5555C19.0614 18.9462 18.9557 19.238 18.7412 19.4301C18.5267 19.6229 18.2249 19.7207 17.8342 19.7207C17.3655 19.7207 17.0374 19.5724 16.8482 19.2792C16.6597 18.9859 16.5661 18.5312 16.5661 17.9151V17.176C16.5661 16.5411 16.6631 16.079 16.8581 15.7865C17.0531 15.494 17.3879 15.3493 17.861 15.3493ZM11.9619 15.4268H12.9127V19.653H12.1679L12.086 19.1353H12.0663C11.8634 19.5274 11.5595 19.7221 11.1551 19.7221C10.8741 19.7221 10.668 19.6305 10.5344 19.447C10.4008 19.2629 10.3341 18.9752 10.3341 18.5852V15.4282H11.2877V18.5301C11.2877 18.7186 11.3078 18.8534 11.3497 18.9336C11.3909 19.0145 11.4582 19.0549 11.5557 19.0549C11.638 19.0549 11.7189 19.0293 11.7941 18.9787C11.8706 18.9289 11.9251 18.8635 11.9619 18.7855V15.4268ZM17.8427 15.9911C17.7416 15.9911 17.6668 16.0229 17.6184 16.0814C17.5693 16.1406 17.5369 16.2376 17.521 16.3733C17.5044 16.5091 17.4971 16.7153 17.4971 16.9912V17.2945H18.1911V16.9912C18.1911 16.7196 18.1831 16.5135 18.1643 16.3733C18.1477 16.2332 18.1139 16.1349 18.0655 16.0771C18.0171 16.0193 17.9438 15.9911 17.8427 15.9911ZM14.8226 16.0221C14.7309 16.0221 14.6467 16.0592 14.5687 16.1335C14.4914 16.2072 14.4361 16.3016 14.4036 16.4157V18.8137C14.4448 18.8873 14.4994 18.9419 14.5659 18.9787C14.6323 19.0148 14.7044 19.0351 14.7831 19.0351C14.8842 19.0351 14.9622 18.9966 15.0229 18.9237C15.0836 18.85 15.126 18.7268 15.1513 18.5513C15.1765 18.3772 15.1893 18.1361 15.1893 17.8277H15.1879V17.2846C15.1879 16.9531 15.1771 16.6977 15.1569 16.5186C15.136 16.3388 15.0989 16.2115 15.0469 16.1364C14.9949 16.0613 14.9201 16.0221 14.8226 16.0221Z" fill="#AFB0B1"/>
<path d="M20 0H7C3.42532 0 0.5 2.92532 0.5 6.5V19.5006C0.5 23.0744 3.42532 26.0006 7 26.0006H20C23.5747 26.0006 26.5 23.0744 26.5 19.5006V6.5C26.5 2.92532 23.5747 0 20 0ZM24.3332 19.5006C24.3332 21.8894 22.3901 23.8339 20 23.8339H7C4.61093 23.8339 2.66677 21.8894 2.66677 19.5006V6.5C2.66677 4.11062 4.61093 2.16677 7 2.16677H20C22.3901 2.16677 24.3332 4.11062 24.3332 6.5V19.5006Z" fill="#AFB0B1"/>
</svg>
